<svg style="fill-rule:evenodd;clip-rule:evenodd;stroke-linejoin:round;stroke-miterlimit:2;" xml:space="preserve" xmlns:xlink="http://www.w3.org/1999/xlink" xmlns="http://www.w3.org/2000/svg" version="1.1" viewBox="0 0 1663 1704" height="100%" width="100%">
    <g transform="matrix(-7.55776,6.54972,-4.38688,-5.06204,18287.2,12649.7)">
        <g>
            <clipPath id="_clip1">
                <path d="M492.941,3128.8C459.481,3085.5 455.858,3009.8 484.855,2959.84C513.852,2909.88 564.559,2904.47 598.019,2947.77C631.479,2991.06 635.103,3066.77 606.105,3116.72C577.108,3166.68 526.401,3172.09 492.941,3128.8Z"></path>
            </clipPath>
            <g clip-path="url(#_clip1)">
                <g transform="matrix(-0.0755636,-0.0977709,0.065485,-0.112818,-108.521,6455.39)">
                    <rect style="fill:rgb(121,208,236);" height="2703.79" width="2162.83" y="20187" x="9150.1"></rect>
                </g>
                <g transform="matrix(1.19326,0.817849,-0.352827,1.18517,970.928,-858.993)">
                    <g>
                        <g>
                            <g transform="matrix(2.88212,0,0,4.30308,427.692,2347.72)">
                                <path style="fill:rgb(255,222,222);" d="M37.69,143.747L39.782,142.186L41.803,138.767L42.915,134.985L43.111,131.563L42.39,128.575L38.636,124.957L34.968,123.547L29.695,123.865C29.695,123.865 22.502,129.139 22.402,129.851C22.301,130.564 22.533,140.915 22.944,141.887C23.355,142.859 30.878,146.63 31.652,146.9C32.425,147.17 37.303,144.468 37.303,144.468L37.69,143.747ZM62.941,90.263L64.16,83.757L66.868,76.198L69.946,74.39L75.425,70.643L81.065,65.228L83.092,62.077L83.367,59.201L81.948,57.134L81.789,55.632L81.07,53.606L78.92,53.284L74.532,57.847L70.987,60.771L71.778,59.01L74.35,56.597L76.361,53.666L76.213,51.156L74.08,50.1L71.798,50.86L68.762,53.742L63.742,56.811L60.611,60.738L57.331,67.736L55.782,70.421L51.19,77.748L49.74,82.968L50.884,86.008L54.234,89.137L57.943,90.196L61.25,92.522L62.873,92.875L62.941,90.263Z"></path>
                            </g>
                            <g transform="matrix(0.0591051,-3.59693e-34,-2.40915e-34,-0.0882454,344.453,3903.05)">
                                <path style="fill:rgb(255,222,222);fill-rule:nonzero;" d="M3115,11640C3119,11627 3106,11625 3032,11624C2929,11624 2792,11607 2765,11592C2747,11583 2745,11585 2745,11621C2744,11688 2678,11739 2615,11721L2583,11712L2576,11764C2573,11792 2570,11844 2570,11880C2570,11944 2570,11944 2622,11997C2680,12056 2671,12057 2755,11980C2808,11932 2994,11830 3029,11830C3041,11830 3050,11825 3050,11819C3050,11813 3059,11811 3070,11815C3081,11818 3090,11818 3090,11813C3091,11791 3111,11654 3115,11640Z"></path>
                            </g>
                        </g>
                        <g transform="matrix(2.88212,0,0,4.30308,427.692,2347.72)">
                            <path style="fill:white;" d="M39.8,137.283C39.8,137.283 40.391,132.374 35.013,130.692C34.932,130.553 34.353,131.075 34.353,131.075C34.353,131.075 38.898,135.627 39.8,137.283Z"></path>
                        </g>
                        <g transform="matrix(2.88212,0,0,4.30308,427.692,2347.72)">
                            <path style="fill:rgb(182,107,120);" d="M40.29,137.283C40.29,137.283 42.12,134.538 42.077,133.728C42.017,133.624 41.041,133.49 41.041,133.49L39.089,133.668L39.819,136.102L40.29,137.283Z"></path>
                        </g>
                        <g transform="matrix(2.88212,0,0,4.30308,427.692,2347.72)">
                            <path style="fill:rgb(244,156,152);" d="M38.909,133.976L40.12,133.674L41.535,133.49L42.078,133.093C42.078,133.093 42.247,127.632 37.457,128.666C33.7,130.527 34.84,130.478 34.353,130.842C34.45,130.789 36.443,130.763 38.222,132.797C40.001,134.832 38.909,133.976 38.909,133.976Z"></path>
                        </g>
                        <g transform="matrix(2.88212,0,0,4.30308,427.692,2347.72)">
                            <path style="fill:rgb(253,158,154);fill-opacity:0.66;" d="M35.091,120.605C35.091,120.605 29.783,123.314 23.562,119.771C24.048,122.903 24.311,125.346 24.311,125.346L23.076,136.008L29.02,147.43L36.657,145.711L38.424,143.556C38.424,143.556 38.826,142.04 35.091,141.777C34.691,140.482 35.03,136.692 31.222,137.323C31.281,137.302 32.001,132.312 27.999,132.483C23.996,132.655 27.871,129.972 28.969,129.575C30.067,129.177 31.126,124.163 31.126,124.163C31.126,124.163 34.207,122.946 35.757,123.368C35.663,123.209 35.091,120.605 35.091,120.605ZM65.165,80.966C65.165,80.966 62.893,90.744 52.381,86.672C52.154,86.467 53.877,89.131 53.877,89.131C53.877,89.131 56.47,89.352 57.896,90.184C59.323,91.017 61.351,92.822 62.761,92.614C62.807,92.524 63.692,84.215 65.165,80.966ZM56.861,80.966L61.168,72.838L62.501,69.765L67.611,67.12L72.874,64.717L75.953,62.342L79.089,59.236L81.605,57.11L81.242,55.518L77.198,59.455C77.198,59.455 73.827,62.834 71.773,63.648C69.719,64.463 65.665,66.267 64.001,67.081C62.337,67.894 61.294,68.584 59.124,74.653C56.923,80.807 56.861,80.966 56.861,80.966ZM76.431,53.623C76.431,53.623 73.818,57.724 72.464,58.919C71.109,60.114 68.221,62.115 66.381,63.124C64.541,64.134 62.068,65.381 61.196,67.081C60.324,68.781 56.893,75.087 56.065,76.062C56.14,75.965 59.243,66.53 61.567,64.368C63.303,62.753 68.838,60.713 70.909,58.386C72.979,56.06 75.327,53.345 75.327,53.345L76.219,52.15L76.431,53.623ZM61.081,60.839L64.766,58.933L68.551,56.509L71.54,53.654L73.848,50.822L73.022,50.1L69.557,53.356L64.417,56.592L61.671,59.126L61.081,60.839Z"></path>
                        </g>
                        <g transform="matrix(-1.7232,-4.2332,2.87578,-2.6095,208.015,3388.25)">
                            <ellipse style="fill:rgb(253,142,170);" ry="1.987" rx="1.988" cy="129.698" cx="34.139"></ellipse>
                        </g>
                        <g transform="matrix(-1.64888,-4.05063,2.76261,-2.50681,245.454,3414.06)">
                            <path style="fill:rgb(253,142,170);" d="M34.139,127.711C35.237,127.711 36.127,128.601 36.127,129.698C36.127,130.212 35.932,130.68 35.611,131.033C35.247,131.433 33.547,127.801 33.547,127.801C33.547,127.801 33.933,127.711 34.139,127.711Z"></path>
                        </g>
                        <g transform="matrix(2.88212,0,0,4.30308,427.692,2347.72)">
                            <path style="fill:rgb(95,96,191);" d="M45.885,106.253L48.471,104.616L52.706,99.728L58.607,97.085L63.168,96.596L64.001,95.606L62.826,92.874L60.178,92.073L56.55,89.744L55.346,90.141L51.608,86.484L49.951,83.513L50.541,79.864L52.964,72.838L47.25,78.012L41.861,85.067L38.976,86.761L34.779,95.071L29.319,109.676L29.893,111.668L35.79,113.739L40.297,112.209L43.84,109.082L45.885,106.253ZM25.989,152.379L25.942,164.412M25.942,164.412L25.647,171.375L27.759,180.948L28.866,186.172L26.982,188.078L23.25,188.787L22.061,187.214L19.469,176.977L16.741,164.915L14.68,153.429L14.194,144.572L17.942,148.85L22.647,151.405L25.989,152.379"></path>
                        </g>
                        <g transform="matrix(2.63393,-0.0420317,0.0283282,3.90806,427.345,2355.79)">
                            <path style="fill:rgb(132,133,209);" d="M30.529,123.262C30.529,123.262 42.869,123.271 44.653,116.531C46.437,109.79 48.806,104.333 48.806,104.333L58.859,96.929L61.647,99.978L50.865,106.595L48.941,115.937L44.157,121.158L38.811,123.945L30.529,123.262ZM24.067,164.6L23.259,175.525L23.735,186.628L25.878,200.346L27.076,205.031L29.247,203.551L26.301,183.82L27.18,165.034L24.067,164.6Z"></path>
                        </g>
                        <g transform="matrix(2.88212,0,0,4.30308,427.692,2347.72)">
                            <path style="fill:rgb(67,68,184);" d="M39.177,113.381C39.177,113.381 32.621,111.156 34.994,103.927C34.908,103.993 37.859,92.472 37.859,92.472L40.11,86.282L37.211,88.896L31.05,106.582L29.863,110.543L33.599,113.467L37.151,113.695L39.177,113.381ZM61.233,96.879C61.233,96.879 51.423,93.358 46.504,100.225C46.616,99.963 47.185,96.946 51.861,94.703C56.538,92.461 56.812,91.954 56.812,91.954L55.67,90.516L56.867,90.159L62.053,92.684L63.811,95.759L61.233,96.879ZM49.978,83.689C49.978,83.689 44.606,85.538 40.142,92.499C35.677,99.46 36.692,98.725 36.692,98.725C36.692,98.725 38.311,91.329 39.566,89.168C40.821,87.006 44.995,80.393 44.995,80.393L51.486,73.707L52.737,73.863L50.755,78.609L49.978,83.689ZM19.43,149.965C19.43,149.965 17.087,164.739 19.145,176.278C18.949,176.441 14.167,149.679 14.032,145.178C13.897,140.677 14.068,146.975 19.43,149.965Z"></path>
                        </g>
                        <g>
                            <g transform="matrix(2.88212,0,0,4.30308,427.692,2347.72)">
                                <path style="fill:rgb(105,186,201);" d="M15.694,122.38C15.71,122.64 23.832,115.801 23.832,115.801L29.222,110.311L32.372,102.952L38.913,83.931L43.442,73.035L40.47,70.822L35.237,68.651L31.116,69.35L21.37,76.132L16.05,82.38L11.58,94.862L8.601,106.272L3.657,111.405L5.515,116.717L9.631,121.302C9.631,121.302 15.677,122.121 15.694,122.38Z"></path>
                                <clipPath id="_clip2">
                                    <path d="M15.694,122.38C15.71,122.64 23.832,115.801 23.832,115.801L29.222,110.311L32.372,102.952L38.913,83.931L43.442,73.035L40.47,70.822L35.237,68.651L31.116,69.35L21.37,76.132L16.05,82.38L11.58,94.862L8.601,106.272L3.657,111.405L5.515,116.717L9.631,121.302C9.631,121.302 15.677,122.121 15.694,122.38Z"></path>
                                </clipPath>
                                <g clip-path="url(#_clip2)">
                                    <path style="fill:rgb(66,155,171);" d="M34.891,104.808L30.908,103.181L25.835,101.51L24.446,101.204L25.731,95.909L26.522,92.038L29.223,84.922C29.223,84.922 34.846,69.336 35.947,67.893C37.047,66.45 46.432,70.318 46.432,70.318L45.206,80.175L34.891,104.808ZM23.935,122.225L22.604,117.568L19.925,118.855L18.412,120.735L20.981,123.289L23.935,122.225Z"></path>
                                </g>
                            </g>
                            <g transform="matrix(2.88212,0,0,4.30308,427.692,2347.72)">
                                <path style="fill:rgb(105,186,201);" d="M33.889,118.224C34.134,118.367 37.681,118.342 37.681,118.342L40.164,116.873L43.657,113.378L45.762,108.807L45.781,105.187L44.774,107.794L40.852,111.616L37.637,113.47L33.604,113.583L30.43,111.857L29.243,110.515L26.236,113.479L29.969,116.917C29.969,116.917 33.644,118.081 33.889,118.224ZM23.37,119.449L22.906,118.106L21.412,117.933L18.223,120.561L19.235,121.312L21.465,121.793L23.14,122.862L23.741,121.323L23.37,119.449Z"></path>
                            </g>
                            <g transform="matrix(2.88212,0,0,4.30308,427.692,2347.72)">
                                <path style="fill:rgb(49,104,136);fill-opacity:0.67;" d="M24.424,122.006L23.37,119.449L22.632,117.33L18.463,120.735L19.749,121.952L22.729,122.871L24.424,122.006Z"></path>
                            </g>
                            <g transform="matrix(2.88212,0,0,4.30308,427.692,2347.72)">
                                <path style="fill:url(#_Linear3);" d="M23.163,107.851C23.163,107.851 11.316,117.654 9.671,121.149C9.662,121.001 4.305,116.921 3.778,111.719C3.759,112.012 16.334,99.484 17.226,98.988C18.119,98.493 20.346,104.692 23.163,107.851ZM24.055,101.275L26.24,91.831L31.185,78.701L35.003,68.878C35.003,68.878 31.56,68.409 29.134,70.443C26.708,72.476 17.804,79.889 16.883,81.408C15.962,82.926 8.573,105.567 8.986,106.252C9.399,106.938 15.696,99.877 17.226,98.988C17.96,99.933 20.608,104.08 20.608,104.08L24.1,102.862L24.055,101.275Z"></path>
                            </g>
                            <g transform="matrix(2.88212,0,0,4.30308,427.692,2347.72)">
                                <path style="fill:rgb(49,104,136);fill-opacity:0.34;" d="M39.307,117.531C39.307,117.531 40.943,115.182 39.245,114.494C39.254,114.384 32.215,117.258 28.526,111.85C28.384,111.987 29.131,110.001 29.131,110.001L32.302,113.058L36.643,113.556L40.196,112.531L45.771,105.966L45.677,110.247L42.609,115.275L39.307,117.531ZM22.846,102.961L20.168,96.827C20.168,96.827 19.734,95.437 18.623,95.798C17.512,96.159 10.827,102.397 10.827,102.397L12.395,103.58L17.47,98.945L20.574,104.123L22.846,102.961Z"></path>
                            </g>
                        </g>
                        <g transform="matrix(2.88212,0,0,4.30308,427.692,2347.72)">
                            <path style="fill:rgb(252,155,172);" d="M34.897,150.151L37.047,148.83L38.558,146.687L38.347,144.92L36.711,144.01L34.144,144.212L35.065,142.575L35.034,140.051C35.034,140.051 31.826,138.767 30.258,139.173C30.883,137.549 31.848,133.364 27.167,133.581C27.19,133.41 35.866,124.711 29.575,123.602C24.406,126.532 28.994,124.212 26.825,124.627C26.254,123.198 26.234,121.977 26.234,121.977L24.762,121.512L23.076,122.897L21.992,123.137L21.008,121.835L19.021,121.599L16.562,125.696L15.291,125.006L13.884,127.013L12.685,138.354L13.64,143.291L16.002,147.179L21.113,150.824L26.186,151.976L31.933,151.246L34.897,150.151Z"></path>
                        </g>
                        <g transform="matrix(2.88212,0,0,4.30308,427.692,2347.72)">
                            <path style="fill:rgb(244,156,152);fill-opacity:0.43;" d="M29.73,152.049C29.73,152.049 33.443,149.432 33.415,147.474C33.403,146.583 32.372,145.969 30.295,145.553C30.114,145.47 32.161,142.362 27.444,141.528C27.25,141.446 27.496,140.381 27.936,139.464C28.376,138.547 29.458,137.208 24.207,136.009C20.73,134.511 25.108,133.14 18.016,131.501C16.478,131.146 15.665,132.13 15.018,132.553C13.857,133.311 13.564,134.461 13.029,135.179C12.966,135.054 13.267,139.016 13.267,139.016C13.267,139.016 17.481,131.141 21.326,137.605C22.087,138.264 21.796,138.384 24.944,139.301C24.978,139.495 23.407,143.926 27.678,144.174C27.643,144.3 28.836,144.23 27.379,146.496C27.367,146.505 28.189,147.273 28.886,147.776C30.078,148.635 30.332,149.707 28.12,150.699C27.834,150.456 25.655,151.756 25.655,151.756L29.73,152.049ZM22.214,150.797L23.918,150.142C23.918,150.142 24.272,149.363 23.329,148.548C22.387,147.734 22.5,147.508 22.378,146.154C22.255,144.8 22.527,144.345 19.235,143.319C18.205,142.998 18.073,142.52 17.763,142.016C17.083,140.908 16.911,139.886 14.13,141.622C13.01,142.322 14.095,143.966 14.721,145.129C16.357,148.167 21.142,151.283 22.214,150.797ZM28.438,131.548C28.438,131.548 28.993,128.3 24.718,129.018C24.583,128.794 21.771,124.399 17.649,128.187C17.617,128.081 14.828,127.688 13.592,128.889C13.615,128.662 14.317,124.708 15.783,125.135C17.25,125.561 16.847,126.462 16.847,126.462C16.847,126.462 17.045,124.142 17.724,123.194C18.404,122.247 21.934,120.305 21.934,123.616C22.212,123.803 26.29,118.653 26.872,124.331C26.926,124.234 36.303,122.168 28.438,131.548Z"></path>
                        </g>
                    </g>
                </g>
                <g transform="matrix(0.0705276,0.048339,0.0311354,-0.104586,4.84532,4048.5)">
                    <path style="fill:rgb(3,0,106);fill-rule:nonzero;" d="M6157,14689C5818,14506 5623,14389 5534,14317C5124,13988 5130,13993 4916,13782C4689,13556 4590,13421 4525,13244C4502,13183 4500,13167 4508,13124L4518,13075L4519,13118C4520,13167 4555,13256 4610,13350C4657,13431 4928,13748 5036,13849C5133,13940 5375,14143 5450,14195C5480,14217 5541,14262 5585,14295C5629,14329 5726,14394 5800,14440C5874,14486 5964,14542 6000,14565C6036,14589 6084,14618 6107,14631C6130,14644 6151,14663 6154,14672C6155.8,14680.7 6156.7,14688 6157,14689ZM11125,14389C11173,14194 11186,14049 11167,13940C11148,13832 11119,13756 11068,13680C11025,13615 11012,13606 10935,13578C10875,13556 10848,13555 10812,13574C10777,13593 10716,13657 10696,13697C10669,13751 10612,13920 10591,14010C10558,14152 10472,14399 10440,14450C10400,14512 10371,14532 10330,14523C10311,14520 10289,14523 10274,14531C10253,14542 10249,14549 10254,14574C10261,14610 10240,14629 10191,14630C10163,14630 10158,14633 10163,14649C10169,14675 10058,14742 10023,14734C10005,14729 10000,14732 10000,14748C10000,14772 9899,14820 9846,14820C9821,14820 9810,14824 9810,14835C9810,14843 9796,14852 9774,14856C9736,14863 9637,14856 9605,14844C9586,14836 9586,14837 9610,14670C9615,14634 9617,14529 9616,14435C9613,14288 9609,14253 9587,14176C9563,14095 9550,14071 9527,14070C9492,14069 9221,14017 9165,14000C9127,13988 8722,13792 8265,13565C7809,13338 7406,13142 7370,13131C7273,13101 7206,13100 6975,13126C6768,13150 6672,13160 6435,13180C6240,13197 5592,13200 5482,13184C5395,13171 5383,13166 5277,13102C5137,13016 4994,12939 4983,12942C4979,12943 4965,12939 4952,12932C4940,12925 4878,12908 4815,12895C4707,12872 4699,12871 4648,12886C4619,12895 4585,12908 4572,12917C4552,12929 4546,12930 4527,12917C4515,12909 4457,12893 4399,12881C4250,12851 4114,12806 4055,12769C3993,12730 3836,12572 3749,12463C3695,12395 3682,12370 3666,12308C3630,12167 3547,12038 3429,11940C3313,11843 3288,11832 3186,11831L3138,11830L3145,11793C3155,11734 3190,11627 3203,11610C3210,11602 3237,11585 3263,11572C3327,11542 3413,11478 3444,11437C3458,11419 3484,11373 3502,11335C3533,11270 3535,11258 3535,11165C3534,11110 3528,11040 3521,11010C3499,10918 3419,10762 3349,10675L3285,10595L3304,10560C3319,10530 3321,10519 3311,10485C3292,10415 3265,10383 3184,10336C3054,10260 2860,10200 2745,10200L2702,10200L2696,10153C2693,10126 2688,9966 2685,9795C2679,9523 2681,9461 2700,9285C2711,9175 2725,9058 2731,9025C2751,8907 2830,8562 2845,8527C2860,8490 2933,8430 3044,8362C3131,8309 3200,8238 3200,8201C3200,8184 3196,8169 3191,8166C3185.7,8162.6 3175.3,8162.1 3161.6,8164.1L3163.8,8190C3167.8,8190 3170,8191.3 3170,8194C3170,8224 3124,8268 3013,8345C2943,8393 2874,8443 2860,8454C2833,8478 2801,8478 2766,8454C2731,8431 2658,8408 2600,8401L2545,8395L2539,8250C2533,8106 2512,7999 2464,7880C2455,7858 2450,7835 2452,7828C2458,7813 2493,7880 2540,7993C2576,8079 2596,8094 2586,8028C2574,7943 2569,7774 2577,7710L2585,7645L2584.4,7643.8C2559.5,7656.1 2548.1,7729.6 2552,7850L2555,7968L2524,7900C2491,7829 2456,7785 2440,7795C2424,7805 2428,7834 2467,7968C2497,8075 2504,8115 2508,8220C2512,8339 2511,8349 2485,8409C2450,8494 2381,8737 2336,8935C2316,9023 2289,9140 2275,9195C2238,9343 2213,9478 2175,9743C2156,9873 2133,10022 2125,10073C2109,10177 2072,10479 2060,10615C2055,10665 2044,10732 2036,10765C2010,10863 2007,10964 2024,11159C2041,11353 2050,11401 2081,11461C2113,11525 2185,11563 2206,11528C2210,11521 2221,11541 2233,11576C2243,11608 2262,11649 2275,11666C2306,11706 2296,11717 2256,11686C2187,11634 2174,11631 2070,11646C1970,11661 1889,11682 1853,11703C1824,11719 1736,11804 1706,11843C1670,11890 1606,12017 1585,12080C1575,12110 1563,12140 1558,12146C1541,12169 1570,12208 1662,12287C1796,12404 1807,12417 1815,12477C1821,12523 1818,12536 1786,12603C1766,12644 1750,12683 1750,12690C1750,12697 1744,12700 1736,12697C1718,12690 1707,12703 1669,12780C1646,12826 1641,12845 1649,12853C1657,12861 1646,12879 1604,12921L1547,12979L1594,13008C1682,13064 1694,13066 1738,13031C1759,13015 1783,12994 1790,12985C1797,12977 1810,12970 1818,12970C1838,12970 1890,12921 1890,12903C1890,12896 1895,12890 1900,12890C1906,12890 1910,12898 1910,12908C1910,12917 1946,13031 1989,13160C2072,13409 2134,13548 2221,13676C2288,13777 2483,13969 2633,14083C2763,14182 2956,14296 3008,14306C3062,14316 3159,14303 3235,14276C3305,14251 3446,14175 3479,14146C3489,14137 3500,14130 3505,14130C3510,14130 3522,14123 3532,14113C3572,14077 3556,14025 3375,13620C3349,13562 3320,13491 3310,13462L3292,13409L3324,13435C3341,13449 3379,13477 3407,13497C3443,13521 3489,13571 3550,13654C3705,13861 3969,14128 4052,14163C4072,14171 4100,14195 4115,14216C4131,14238 4156,14271 4171,14291C4186,14311 4204,14347 4210,14371C4234,14461 4301,14617 4326,14641C4340,14654 4364,14687 4380,14715C4411,14769 4470,14830 4536,14877L4578,14906L4526,14962C4473,15019 4311,15169 4155,15304C4106,15347 3957,15461 3825,15558C3693,15654 3583,15735 3581,15736C3579,15738 3582,15772 3589,15812C3600,15878 3599,15886 3584,15895C3441,15979 3280,16122 3280,16165C3280,16178 3443,16345 3503,16394C3545,16428 3609,16492 3645,16536C3746,16657 3814,16723 3895,16780C3985,16841 4150,16913 4276,16945C4407,16977 4607,17005 4654,16996C4690,16989 4740,16952 4740,16932C4740,16902 4682,16862 4520,16781C4423,16733 4323,16679 4299,16662C4213,16603 4079,16478 4058,16437C4039,16399 4018,16340 4024,16340C4025,16340 4068,16358 4118,16380C4217,16423 4339,16457 4408,16461L4452,16464L4525,16332C4605,16189 4728,16003 4812,15899C4841,15863 4943,15745 5038,15637L5211,15441L5263,15499C5653,15936 5892,16163 6330,16517C6399,16573 6525,16675 6610,16745C6794,16897 6932,17002 7026,17063C7101,17111 7421,17275 7510,17310C7704,17387 7821,17426 7945,17455C8125,17496 8191,17485 8142,17422C8130,17407 8109,17375 8094,17350C8079,17325 8058,17295 8047,17282C8022,17255 8022,17187 8046,17101C8072,17011 8110,16962 8215,16888C8299,16829 8393,16790 8457,16790C8469,16790 8491,16785 8507,16779C8531,16770 8533,16767 8519,16757C8511,16750 8501,16737 8497,16726C8491,16711 8493,16709 8512,16714C8599,16736 8783,16771 8794,16767C8802,16764 8811,16747 8815,16730C8821,16702 8814,16690 8743,16604C8557,16377 8323,16049 8165,15795C8093,15680 7856,15259 7844,15225C7840,15214 7877,15243 7926,15290C8061,15420 8430,15733 8507,15784C8545,15809 8554,15811 8607,15805C8705,15793 8923,15734 9001,15698C9042,15679 9101,15642 9133,15616L9191,15569L9308,15663C9441,15770 9735,15968 9825,16011C9896,16045 9939,16047 10000,16017C10058,15989 10164,15865 10215,15768C10323,15562 10378,15483 10533,15319C10781,15056 10839,14985 10968,14795C11036,14693 11074,14596 11125,14389ZM11063,13795C11108,13884 11125,14063 11100,14201C11084,14291 11015,14528 10974,14632C10955,14680 10940,14723 10940,14727C10940,14738 10835,14889 10775,14965C10744,15003 10637,15118 10537,15220C10437,15322 10339,15430 10319,15460C10299,15490 10230,15595 10166,15693C10101,15792 10027,15894 10001,15921C9975,15948 9945,15970 9934,15970C9867,15969 9465,15722 9277,15567L9229,15527L9263,15491C9315,15437 9408,15304 9445,15230C9462,15194 9494,15120 9516,15065C9537,15010 9558,14962 9563,14959C9568,14955 9617,14950 9673,14946C9810,14937 9818,14934 9812,14904C9799,14833 9891,14937 9945,15054C9983,15136 9986,15140 10015,15137C10037,15136 10046,15129 10048,15113C10051,15090 9999,14977 9956,14913L9929,14875L9976,14854C10005,14841 10019,14831 10012,14826C10005,14822 10000,14812 10000,14803C10000,14789 10002,14789 10023,14802C10050,14821 10127,14916 10176,14993C10213,15050 10241,15065 10267,15039C10290,15016 10244,14919 10176,14843C10151,14815 10130,14789 10130,14786C10130,14783 10146,14772 10166,14762L10203,14743L10180,14727C10141,14700 10167,14695 10213,14720C10282,14758 10338,14808 10381,14871C10416,14922 10425,14931 10448,14928C10464,14926 10476,14918 10478,14907C10484,14875 10437,14797 10372,14731C10312,14672 10309,14666 10325,14654C10342,14642 10342,14640 10327,14634C10297,14623 10309,14608 10343,14615C10392,14626 10465,14676 10519,14738C10571,14797 10594,14802 10606,14756C10614,14723 10567,14663 10489,14605L10433,14564L10462,14529C10527,14452 10564,14367 10618,14165C10635,14105 10655,14016 10664,13969C10688,13838 10735,13719 10780,13675C10828,13628 10887,13613 10933,13635C10964,13650 11031,13733 11063,13795ZM9476,14303C9502,14388 9503,14397 9497,14558C9491,14739 9483,14782 9420,14970C9331,15236 9222,15398 9026,15552C8963,15602 8876,15646 8781,15676C8729,15693 8686,15700 8636,15699C8568,15697 8563,15696 8530,15661C8511,15641 8380,15531 8240,15416C8085,15289 7930,15151 7846,15066C7689,14906 7693,14913 7565,14590C7477,14365 7411,14172 7375,14025C7334,13862 7308,13836 7170,13826C6978,13811 6827,13780 6575,13704C6179,13584 6141,13569 5855,13431C5623,13318 5583,13293 5600,13276C5613,13263 5639,13263 6080,13261C6386,13260 6464,13256 6840,13219C6898,13214 7025,13206 7122,13203C7324,13196 7288,13187 7540,13306C7636,13351 7780,13415 7860,13449C7940,13482 8100,13561 8215,13623C8331,13685 8531,13793 8660,13862C8907,13996 9135,14092 9329,14146C9407,14168 9434,14179 9441,14195C9445,14206 9461,14255 9476,14303ZM8589,16598C8631,16650 8630,16656 8578,16640C8564,16636 8521,16629 8483,16625L8415,16618L8265,16389C7905,15838 7803,15678 7696,15502C7648,15423 7605,15349 7601,15337C7592,15315 7511,15146 7320,14755C7204,14518 7109,14300 7060,14160C7015,14032 7013,14030 6926,14030C6886,14030 6830,14023 6800,14015C6770,14007 6698,13988 6640,13974C6405,13916 6223,13851 6000,13747C5947,13722 5870,13688 5828,13671C5703,13618 5390,13417 5390,13389C5390,13379 5380,13366 5369,13359C5357,13353 5309,13319 5261,13284C5198,13237 5169,13221 5153,13225C5139,13228 5121,13222 5103,13207C5062,13174 4975,13118 4897,13075C4835,13041 4824,13038 4769,13042C4723,13045 4700,13053 4665,13078C4612,13115 4610,13116 4610,13094C4610,13063 4650,13012 4688,12994C4741,12969 4841,12973 4898,13003C4953,13032 5158,13159 5260,13227C5435,13344 5561,13416 5768,13519C6026,13648 6119,13683 6457,13785C6756,13874 6931,13913 7121,13932L7237,13943L7260,14039C7373,14517 7712,15281 8067,15859C8194,16064 8437,16408 8589,16598ZM8409,16691L8458,16746L8401,16758C8370,16765 8340,16770 8334,16770C8320,16769 8161,16537 7868,16089C7815,16009 7723,15875 7664,15792C7505,15572 7483,15539 7398,15397L7320,15269L7395,15276C7458,15282 7470,15280 7470,15268C7470,15259 7463,15246 7454,15239C7419,15210 7307,15023 7282,14952L7271,14919L7193,14925C7124,14931 7114,14930 7104,14913C7098,14903 7065,14841 7030,14775C6995,14709 6939,14606 6905,14545C6825,14399 6788,14320 6794,14304C6801,14286 6781,14273 6735,14268C6698,14263 6584,14225 6336,14137C6247,14105 6235,14094 6216,14033L6209,14011L6212.2,13992.5C6197.8,13991.1 6191.8,13979.1 6177,13938C6165.8,13907.2 6156.8,13890 6147.9,13883.3C6145,13881 6142,13880 6139,13880C6129,13880 6079,13862 6028,13839C5925,13794 5790,13740 5778,13740C5773,13740 5770,13751 5770,13764L5770,13788L5713,13758C5681,13741 5635,13719 5610,13708L5565,13690L5590,13709C5604,13720 5654,13752 5702,13781C5780,13828 5790,13837 5809,13883C5821,13910 5829,13934 5827,13936C5826,13937 5765,13910 5692,13875L5560,13811L5526,13738C5507,13698 5483,13643 5472,13615C5461,13588 5445,13549 5437,13529L5421,13492L5476,13524C5506,13541 5568,13577 5613,13604C5658,13631 5711,13659 5730,13667C5749,13676 5776,13690 5790,13700C5819.8,13720.9 6008.2,13807.4 6153.9,13869.2C6203.6,13890.2 6248.2,13908.3 6280,13920C6436,13977 6805,14070 6906,14077L6987,14083L6999,14134C7030,14267 7237,14724 7411,15041C7452,15115 7494,15198 7504,15225C7515,15251 7538,15301 7557,15334C7576,15368 7621,15449 7658,15515C7738,15662 7928,15963 8227,16418C8300,16529 8360,16624 8360,16628C8360,16632 8382,16661 8409,16691ZM8232,16711C8259,16747 8280,16781 8280,16787C8280,16793 8273,16800 8266,16803C8255,16807 8225,16768 8164,16672C8116,16597 8051,16497 8020,16450C7990,16403 7964,16353 7963,16338C7963,16322 7963,16310 7965,16310C7966,16310 8017,16385 8076,16478C8136,16570 8206,16675 8232,16711ZM8209,16808C8218,16824 8216,16830 8197,16843C8176,16857 8173,16856 8145,16816C8129,16794 8075,16723 8025,16660C7932,16542 7837,16416 7806,16368L7788,16341L7822,16345C7840,16347 7876,16352 7903,16355C7929,16359 7948,16365 7945,16370C7942,16375 7961,16412 7986,16452C8064,16573 8197,16786 8209,16808ZM8128,16847L8150,16879L8129,16885C8118,16889 8105,16888 8100,16883C8088,16869 7816,16488 7679,16293C7608,16192 7529,16073 7503,16028C7482.7,15992.1 7464.2,15960.4 7455.7,15946.8C7453.3,15943 7451.7,15940.7 7451,15940C7447,15937 7432,15916 7416,15893C7400,15869 7386,15850 7384,15850C7378,15850 7393,15885 7405,15900C7412,15908 7439,15956 7466,16005C7526,16118 7579,16198 7852,16587C7972,16759 8073,16906 8076,16913C8078,16920 8073,16933 8063,16942C8046,16957 8036,16945 7900,16759C7820,16650 7709,16494 7652,16413C7596,16331 7522,16226 7487,16177C7453,16129 7361,15999 7283,15887L7142,15686.4L7118.4,15703C7142.8,15739.9 7164.4,15772.7 7179,15795C7215,15850 7306,15983 7380,16090C7455,16197 7549,16335 7590,16395C7630,16456 7724,16590 7799,16693C8021,17001 8020,16999 8008,17026C7998,17047 7993,17043 7921,16947C7878,16891 7795,16775 7735,16690C7675,16605 7583,16474 7530,16400C7477,16326 7397,16211 7352,16145C7307,16079 7259,16012 7245,15995L7220,15965L7230,15993C7236,16009 7288,16096 7346,16188C7451,16353 7514,16444 7823,16877L7981,17099L7978,17149C7975,17193 7973,17198 7958,17189C7948,17183 7940,17175 7940,17169C7940,17164 7911,17126 7875,17085C7731,16920 7403,16468 7105,16025C7002,15871 6881,15694 6838,15632C6714,15455 6604,15288 6515,15141C6369,14900 6233,14656 6226,14623C6219,14592 6195,14562 6184,14573C6176,14580 5956,14440 5834,14350C5779,14309 5701,14253 5661,14225C5595,14179.5 5518.6,14123.5 5441.4,14064.7C5284.5,13945.3 5124.1,13814.1 5041,13735C4969,13666 4762,13434 4697,13349C4648,13286 4618,13222 4625,13199C4634,13170 4679,13121 4711,13105C4766,13076 4817,13085 4913,13143C4994,13191 5082,13253 5138,13300C5162,13320 5218,13475 5196,13463C5168,13447 4907,13255 4840,13201C4799,13168 4762,13140 4758,13140C4741,13140 4752,13159 4788,13191C4829,13230 5121,13450 5187,13493C5220,13514 5237,13535 5260,13587C5277,13623 5289,13654 5287,13656C5284,13660 5100,13542 5027,13489C4995,13466 4923,13409 4867,13363L4765,13279L4886,13397C5050,13558 5282,13713 5575,13858C5866,14002 6036,14077 6170,14121C6233,14142 6371,14189 6475,14225C6580,14262 6684,14297 6708,14303C6734,14309 6750,14319 6750,14328C6750,14350 6996,14817 7096,14985C7125,15035 7210,15167 7284,15280C7359,15393 7451,15535 7489,15596C7528,15657 7592,15751 7631,15806C7694,15892 7911,16218 7934,16260C7970,16325 7812,16108 7729,15978C7702,15935 7674,15900 7666,15900C7658,15900 7620,15852 7581,15793C7485,15647 7487,15650 7467,15626C7449,15605 7449,15606 7463,15635C7482,15673 7565,15813 7596,15859C7609,15879 7620,15898 7620,15902C7620,15907 7593,15910 7560,15910L7501,15910L7458,15853C7435,15821 7367,15719 7307,15625C7091,15289 7078,15269 7073,15274C7060,15287 7248.4,15592.5 7474.2,15934.6C7594.8,16117.2 7726.1,16310.4 7843,16475C7871,16514 7941,16606 8000,16680C8058,16754 8116,16829 8128,16847ZM7921,17307C7938,17331 7950,17350 7948,17349C7902,17341 7711,17274 7605,17231C7528,17199 7454,17169 7440,17165C7375,17145 7069,16976 6965,16901C6870,16834 6584,16598 6145,16226C5862,15987 5382,15518 5326,15426C5315,15409 5281,15357 5250,15310C5173,15195 5149,15147 5161,15129C5166,15121 5170,15095 5170,15071C5170,15003 5107,14906 4985,14783C4928,14726 4895,14689 4911,14701C4951,14729 5200,14991 5213,15018C5238,15071 5347,15065 5408,15007C5434,14982 5440,14968 5440,14934C5440,14910 5436,14880 5430,14866C5422,14844 5424,14838 5441,14827C5466,14812 5500,14749 5499,14718C5499,14705 5502,14682 5506,14667C5522,14601 5435,14471 5257,14298C5135,14179 4984,14070 4835,13993C4710,13929 4711,13930 4669,13795C4657,13757 4626,13671 4600,13605C4560,13505 4530,13403 4530,13372C4530,13368 4542,13385 4557,13410C4623,13521 4697,13610 4865,13781C5063,13983 5163,14069 5468,14297C5700,14471 5785,14526 6013,14647C6102,14694 6176,14736 6178,14740C6188,14765 6376,15096 6438,15200C6697,15628 7353,16595 7643,16975C7696,17044 7788,17149 7828,17184C7845,17200 7860,17219 7860,17226C7860,17232 7867,17243 7876,17251C7885,17258 7905,17283 7921,17307ZM7857,16243L7909,16320L7882,16319C7847,16318 7761,16295 7750,16284C7745,16279 7692,16202 7632,16113L7523,15952L7592,15948L7662,15945L7733,16055C7773,16116 7828,16200 7857,16243ZM7400,15236C7400,15243 7377,15238 7328,15223C7282,15209 7278,15205 7211,15092C7172,15028 7143,14974 7146,14971C7157,14960 7250,14954 7250,14964C7250,14985 7299,15080 7349,15156C7377,15198 7400,15234 7400,15236ZM6163,13997C6181,14048 6197,14090 6196,14090C6162,14083 6002,14021 5952,13996L5884,13962L5847,13874C5827,13826 5812,13784 5814,13782C5816,13780 5862,13797 5917,13820C5971,13843 6040,13871 6072,13883L6128,13904L6163,13997ZM5478,13718C5495,13752 5505,13780 5501,13780C5483,13780 5373,13716 5364,13700C5359,13691 5342,13658 5326,13629C5280,13544 5191,13313 5190,13278C5190,13274 5226,13297 5270,13328C5345,13381 5351,13388 5366,13440C5384,13503 5435,13628 5478,13718ZM5398,14539C5446,14611 5454,14638 5413,14589C5398,14572 5364,14540 5337,14519C5297,14487 5280,14480 5245,14480C5196,14480 5175,14496 5153,14548L5139,14582L5097,14546C5057,14513 4814,14372 4760,14352C4694,14326 4541,14249 4504,14222C4471,14198 4455,14174 4416,14084C4365,13968 4215,13671 4199,13656C4158,13613 4222,13798 4332,14035C4442,14273 4435,14265 4608,14348C4689,14386 4794,14434 4843,14453C4927,14487 4970,14515 5056,14589C5078,14609 5120,14644 5149,14667L5201,14709L5147,14703C5100,14698 5090,14700 5071,14719C5046,14744 5053,14747 4969,14678C4944,14657 4884,14624 4836,14605C4748,14569 4613,14500 4531,14448C4483,14418 4418,14334 4338,14200C4273,14091 4149,13910 4140,13910C4128,13910 4323,14292 4374,14369C4416,14431 4437,14451 4509,14498C4556,14529 4631,14571 4675,14592C4719,14613 4775,14645 4800,14662C4857,14703 4995,14842 5056,14921C5081,14954 5100,14983 5097,14986C5095,14988 5087,14983 5079,14974C5071,14964 5043,14939 5017,14918C4961,14874 4908,14867 4869,14899C4845,14918 4845,14918 4805,14883C4772,14854 4538,14710 4523,14710C4521,14710 4485,14687 4443,14659C4370,14609 4366,14605 4323,14512C4298,14459 4256,14359 4229,14290C4160,14117 4149,14091 4134,14079C4114,14062 4106,14093 4119,14132L4130,14165L4103,14135C4012,14035 3874,13736 3863,13615C3858,13557 3859,13552 3903,13479C3978,13356 4019,13316 4083,13301C4148,13287 4275,13228 4310,13196C4336,13173 4409,13140 4435,13140C4447,13140 4450,13153 4450,13198C4450,13272 4513,13526 4584,13743C4615,13835 4640,13917 4640,13926C4640,13948 4681,13990 4703,13990C4727,13990 4903,14080 4974,14128C5097,14212 5333,14441 5398,14539ZM5405,14633C5468,14712 5473,14739 5431,14781C5415,14797 5393,14810 5383,14809C5373,14808 5325,14766 5277,14715C5201,14635 5188,14616 5187,14586C5186,14535 5214,14507 5259,14515C5306,14524 5341,14552 5405,14633ZM5384,14878C5394,14907 5389,14906 5354,14869C5325,14838 5325,14838 5350,14845C5380,14854 5376,14850 5384,14878ZM5343,14922L5370,14959L5344,14979C5329,14991 5310,15000 5300,15000C5291,15000 5252,14967 5214,14927C5086,14792 5087,14794 5099,14772C5115,14741 5137,14739 5186,14761C5228,14781 5275,14830 5343,14922ZM5138,15317C5161,15351 5180,15382 5180,15385C5180,15388 5126,15452 5059,15528C4783,15841 4644,16027 4500,16275C4447,16366 4419,16406 4405,16407C4367,16411 4198,16352 4083,16294C4019,16262 3931,16208 3886,16174C3755,16074 3658,15927 3644,15809L3638,15754L3781,15648C3980,15501 4316,15228 4570,15007C4606,14975 4640,14950 4646,14950C4664,14950 4822,15064 4893,15129C4960,15190 4967,15194 5006,15191C5033,15189 5087,15240 5138,15317ZM5110,15081C5110,15090 5102,15104 5092,15113C5082,15123 5065,15129 5054,15128C5030,15126 4880,14980 4880,14960C4880,14935 4901,14920 4934,14920C4958,14920 4979,14935 5037,14992C5077,15032 5110,15072 5110,15081ZM4971,15123C5005,15168 4979,15153 4902,15081C4855,15036 4833,15009 4840,15005C4852,14997 4934,15071 4971,15123ZM4775,14926C4816,14962 4822,14972 4810,14980C4790,14993 4792,14993 4745,14960C4723,14945 4666,14907 4619,14876C4532,14820 4425,14731 4434,14723C4437,14720 4492,14749 4557,14787C4622,14825 4686,14861 4700,14869C4714,14876 4748,14901 4775,14926ZM4630,16916C4642,16928 4636,16930 4585,16929C4518,16927 4516,16927 4375,16899C4262,16876 4111,16831 4059,16805C4002,16775 3879,16689 3831,16646C3807,16623 3751,16559 3707,16502C3654,16433 3599,16376 3541,16330C3494,16292 3435,16238 3411,16209L3368,16158L3406,16119C3450,16074 3607,15960 3624,15960C3630,15961 3653,15991 3675,16027C3707,16081 3783,16166 3869,16245C3894,16267 3940,16334 3940,16346C3940,16354 3963,16397 3990,16443C4039,16525 4089,16576 4238,16699C4293,16744 4454,16835 4555,16877C4588,16891 4622,16908 4630,16916ZM4572,12980C4577,12980 4574,12988 4564,12997C4555,13006 4541,13028 4534,13045C4527,13061 4521,13069 4520,13061C4520,13042 4559,12980 4572,12980ZM4473,12951C4504,12964 4505,12968 4486,13007C4478,13022 4469,13042 4466,13051C4464,13061 4446,13070 4422,13074C4397,13078 4365,13094 4334,13121C4307,13143 4267,13171 4245,13182C4223,13193 4203,13206 4200,13210C4197,13214 4187,13214 4176,13211C4160,13205 4163,13199 4201,13165C4225,13144 4239,13130 4232,13135C4225,13139 4211,13135 4202,13127C4193,13119 4163,13105 4137,13096C4093,13081 3943,12990 3801,12892L3747,12855L3717,12740C3701,12677 3688,12612 3688,12595C3691,12514 3693,12490 3695,12490C3696,12490 3719,12518 3746,12552C3866,12705 3932,12770 4013,12817C4109,12873 4146,12925 4194,13072C4197,13082 4211,13092 4226,13096C4297,13114 4305,13043 4241,12953C4219,12921 4204,12894 4209,12892C4220,12888 4437,12937 4473,12951ZM4144,12880C4171,12880 4279,13048 4263,13064C4246,13081 4229,13064 4201,13004C4184,12968 4161,12926 4150,12909C4132,12885 4131,12880 4144,12880ZM4108,13130C4131,13137 4150,13146 4150,13149C4150,13153 4125,13175 4094,13200C4004,13272 3865,13423 3836,13481C3788,13578 3802,13679 3890,13868C3911,13913 3928,13950 3927,13950C3926,13950 3862,13888 3784,13812C3600,13633 3432,13421 3356,13275C3310,13184 3287,13120 3226,12905C3185,12762 3137,12587 3119,12515C3088,12398 3085,12389 3082,12430C3081,12457 3093,12530 3114,12610C3133,12684 3147,12746 3145,12748C3144,12750 3118,12705 3089,12648C3052,12575 3035,12551 3032,12565C3029,12577 3059,12648 3103,12735C3167,12862 3183,12905 3209,13015C3226,13087 3253,13186 3270,13235L3300,13325L3270,13295C3235,13260 3210,13196 3084,12825C2970,12490 2915,12339 2886,12283L2863,12236L2904,12202C2969,12146 3066,12105 3125,12106C3198,12108 3297,12136 3360,12173C3457,12229 3618,12408 3604,12444C3601,12451 3615,12517 3634,12591C3653,12665 3676,12759 3685,12800C3698,12862 3706,12878 3730,12895C3746,12906 3794,12940 3837,12971C3942,13046 4056,13113 4108,13130ZM3631,12348C3637,12378 3639,12404 3636,12407C3633,12411 3630,12408 3630,12402C3630,12390 3489,12220 3444,12178C3357,12097 3240,12057 3095,12057C3036,12057 3017,12062 2971,12087C2942,12104 2897,12137 2873,12161L2829,12204L2783,12157L2737,12111L2775,12065C2817,12014 2907,11943 2985,11902C3031,11877 3044,11875 3141,11876C3261,11878 3288,11888 3396,11969C3490,12039 3605,12226 3631,12348ZM3424,10863C3483,10986 3504,11077 3498,11188C3495,11260 3489,11284 3465,11329C3401,11446 3325,11509 3187,11558C3103,11589 3039,11596 2973,11583C2951,11579 2951,11578 2966,11554C3000,11503 2975,11396 2906,11294C2892,11273 2853,11228 2819,11193L2759,11130L2797,11130C2859,11130 2932,11075 2945,11019C2950,10995 2940,10927 2924,10887C2919,10872 2927,10870 2991,10870C3073,10870 3103,10859 3134,10817C3160,10782 3161,10704 3137,10667L3121,10642L3158,10643C3178,10644 3209,10641 3226,10637C3246.2,10631.6 3256.2,10632.8 3270.4,10644.4C3274.4,10647.7 3278.9,10651.9 3284,10657C3319.8,10692.8 3371.5,10757.8 3364.9,10757.8L3366,10771.4C3377.1,10771.4 3392.5,10797.1 3424,10863ZM3484,14016C3488,14030 3483,14046 3469,14064C3441,14100 3335,14167 3242,14208C3159,14245 3142,14247 3133,14223C3130,14213 3091,14120 3047,14015C2960,13810 2870,13576 2783,13330C2695,13081 2671,13002 2645,12875C2632,12809 2617,12743 2611,12728C2600,12700 2611,12690 2652,12690C2680,12690 2866,12632 2910,12610L2946,12592L3004,12768C3037,12865 3085,13004 3112,13075C3139,13147 3190,13284 3225,13380C3260,13476 3331,13654 3383,13775C3435,13896 3480,14004 3484,14016ZM3244,10460C3265,10512 3264,10533 3242,10560C3221,10586 3155,10595 3100,10579C3039,10562 2980,10539 2980,10532C2980,10528 2993,10518 3009,10508C3070,10474 3055,10356 2983,10301L2955,10280L2982,10290C2997,10295 3027,10308 3049,10320C3071,10331 3094,10340 3099,10340C3104,10340 3135,10358 3168,10379C3212,10409 3231,10429 3244,10460ZM3032,11624C3106,11625 3119,11627 3115,11640C3111,11654 3091,11791 3090,11813C3090,11818 3081,11818 3070,11815C3059,11811 3050,11813 3050,11819C3050,11825 3041,11830 3029,11830C2994,11830 2808,11932 2755,11980C2671,12057 2680,12056 2622,11997C2570,11944 2570,11944 2570,11880C2570,11844 2573,11792 2576,11764L2583,11712L2615,11721C2678,11739 2744,11688 2745,11621C2745,11585 2747,11583 2765,11592C2792,11607 2929,11624 3032,11624ZM3086,14213L3099,14250L3052,14250C3001,14250 2963,14233 2828,14150C2650,14039 2415,13837 2298,13693C2246,13630 2193,13528 2117,13345C2089,13278 1946,12828 1932,12764C1924,12729 1927,12715 1947,12672C1960,12645 1977,12617 1985,12610C2002,12596 2017,12607 2158,12741C2210,12790 2260,12830 2269,12830C2279,12830 2292,12818 2299,12803C2312,12773 2400,12620 2404,12620C2410,12620 2566,12701 2576,12709C2581,12713 2600,12789 2617,12876C2642,12999 2669,13092 2739,13290C2865,13646 2907,13759 2995,13981C3038,14088 3078,14192 3086,14213ZM2957,10566C3091,10644 3146,10744 3080,10791C3029,10828 2900,10820 2807,10774C2762,10753 2752,10744 2761,10733C2767,10726 2786,10720 2802,10720C2842,10720 2896,10696 2909,10672C2924,10645 2923,10577 2908,10562C2883,10537 2911,10539 2957,10566ZM2932,10295C3009,10346 3035,10386 3027,10438C3019,10482 2996,10499 2939,10500C2914,10500 2885,10506 2875,10514C2857,10527 2857,10528 2879,10563C2916,10623 2890,10671 2815,10684C2750,10695 2741,10700 2726,10728C2713,10752 2715,10758 2746,10804C2765,10832 2780,10865 2780,10878C2780,10909 2735,10948 2691,10955C2608,10968 2564,10983 2543,11002C2530,11014 2520,11027 2520,11032C2520,11036 2506,11062 2489,11090C2465,11129 2446,11145 2397,11169C2286,11223 2215,11217 2144,11149C2085,11092 2056,11029 2053,10950C2050,10895 2052,10888 2062,10904C2125,11000 2218,11055 2303,11048C2365,11043 2399,11022 2432,10967C2478.4,10890.9 2481.9,10882.9 2549.7,10870.7L2546.7,10853.2C2545.2,10853.5 2543.6,10853.8 2542,10854C2483,10862 2455,10880 2431,10928C2420,10948 2398,10978 2381,10994C2334,11039 2271,11041 2200,10998C2132,10957 2085,10890 2075,10821C2071,10794 2071,10762 2075,10751L2081,10730L2109,10751C2176,10801 2260,10778 2300,10700C2322,10657 2351,10640 2401,10640C2482,10640 2523,10584 2518,10482C2515,10417 2515,10416 2550,10392C2569,10379 2588,10359 2593,10348C2602,10323 2578,10282 2548,10271C2517,10260 2648,10238 2685,10249C2729,10261 2834,10316 2849,10334C2854.8,10341.1 2858.5,10348 2860,10354.7L2878.1,10353C2871.1,10323.6 2844.1,10300.4 2785,10270L2725,10239L2795,10245C2856,10250 2874,10256 2932,10295ZM2937,11467C2942,11513 2940,11518 2915,11538C2881,11565 2814,11567 2767,11544C2749,11535 2721,11512 2703,11491C2663,11445 2650,11457 2678,11515C2709,11579 2707,11633 2674,11659C2659,11671 2639,11680 2629,11680C2599,11680 2533,11613 2505,11554C2491,11524 2475,11500 2470,11500C2464,11500 2460,11524 2460,11553C2460,11627 2432,11670 2384,11670C2365,11670 2340,11665 2329,11660C2301,11644 2273,11582 2258,11500C2250,11459 2239,11425 2234,11423C2228,11421 2216,11438 2207,11460C2179,11533 2121,11498 2090,11389L2082,11361L2110,11382C2138,11402 2167,11403 2235,11384C2249,11381 2276,11393 2318,11421C2401,11477 2462,11485 2520,11446C2542,11432 2566,11407 2575,11391C2594,11354 2616,11347 2683,11355C2730,11361 2740,11359 2764,11338C2779,11326 2797,11297 2804,11276L2818,11237L2854,11286C2905,11355 2930,11410 2937,11467ZM2930,12549C2939,12566 2933,12572 2884,12594C2853,12608 2792,12631 2749,12645C2664,12672 2561,12678 2525,12658C2439,12612 2421,12598 2426,12586C2430,12575 2439,12577 2467,12596C2566,12663 2672,12655 2847,12566C2916,12532 2920,12531 2930,12549ZM2826,10832C2889,10869 2917,10929 2900,10991C2886,11041 2852,11069 2788,11082C2738,11093 2729,11092 2690,11071C2622,11036 2623,11061 2693,11122C2785,11203 2801,11260 2749,11309C2730,11326 2718,11328 2664,11323L2601,11317L2542,11379C2487,11436 2480,11440 2439,11439C2387,11438 2380,11436 2316,11391C2270,11359 2264,11358 2205,11363C2102,11373 2074,11338 2061,11183C2057,11129 2054,11084 2054,11083C2055,11082 2071,11102 2090,11128C2169,11235 2292,11257 2426,11190C2489,11157 2497,11150 2534,11083C2575,11008 2605,10985 2650,10997C2681,11005 2756,10973 2785,10939C2812,10907 2816,10877 2800,10836L2791,10811L2826,10832ZM2885,12422C2897,12455 2897,12461 2880,12482C2870,12495 2824,12524 2778,12545C2676,12593 2590,12602 2524,12571C2501,12561 2480,12545 2477,12537C2465,12505 2597,12352 2667,12317C2704,12298 2795,12279 2815,12286C2830,12292 2858,12346 2885,12422ZM2777,8521L2758,8602C2735,8701 2678,9053 2648,9278C2629,9417 2626,9488 2627,9700C2628,9840 2632,10012 2635,10083C2642,10204 2641,10210 2623,10210C2585,10210 2413,10267 2352,10300C2313,10321 2264,10361 2219,10408C2180,10449 2150,10474 2153,10464C2156,10453 2164,10378 2169,10295C2187,10052 2189,10026 2225,9790C2292,9356 2353,9075 2471,8663C2540,8420 2528,8441 2592,8451C2649,8460 2722,8485 2756,8507L2777,8521ZM2770,12227C2770,12233 2749,12240 2724,12244C2586,12262 2489,12358 2315,12645C2279,12705 2247,12756 2246,12758C2244,12759 2193,12715 2132,12659L2022,12556L2046,12518C2091,12447 2089,12429 2030,12374C1953,12302 1954,12302 1929,12360C1917,12388 1900,12414 1892,12419C1880,12426 1849,12403 1764,12328C1702,12273 1642,12214 1630,12198L1609,12169L1630,12112C1675,11987 1734,11888 1805,11814C1883,11734 1929,11712 2060,11690C2131,11678 2137,11678 2177,11699C2269,11745 2459,11902 2613,12058C2699,12146 2770,12222 2770,12227ZM2508,10284C2580,10295 2590,10337 2531,10374C2484,10404 2474,10430 2490,10480C2500,10511 2500,10523 2486,10552C2466,10593 2443,10606 2376,10614C2321,10621 2295,10639 2275,10687C2268,10704 2248,10726 2231,10734C2190,10756 2163,10753 2128,10722C2079,10680 2134,10535 2240,10430C2322,10347 2455,10275 2508,10284ZM2534,11679C2545,11697 2518,11791 2493,11820C2479,11837 2465,11850 2462,11850C2458,11849 2426,11826 2391,11798C2332,11751 2328,11746 2345,11734C2356,11726 2378,11720 2395,11720C2412,11720 2435,11713 2446,11705C2458,11697 2470,11693 2472,11696C2475,11698 2483,11694 2490,11685C2504,11668 2526,11665 2534,11679ZM2010,12395C2034,12420 2052,12440 2050,12440C2040,12439 1957,12359 1962,12355C1964,12352 1986,12371 2010,12395ZM2041,12472L1976,12556C1940,12603 1901,12668 1888,12700C1876,12733 1863,12760 1860,12759C1836,12756 1790,12723 1790,12708C1790,12687 1926,12416 1944,12401C1953,12393 1967,12401 1999,12431L2041,12472ZM1799,12766C1894,12818 1894,12817 1862,12875C1847,12902 1828,12926 1820,12928C1800,12932 1714,12877 1700,12851C1692,12834 1694,12820 1711,12780L1733,12730L1799,12766ZM1769,12942L1737,12981C1720,13002 1703,13019 1700,13019C1680,13016 1638,13000 1622,12989C1604,12976 1605,12973 1651,12932L1700,12889L1735,12915L1769,12942Z"></path>
                </g>
                <g transform="matrix(0.0705276,0.048339,0.0311354,-0.104586,4.84532,4048.5)">
                    <path style="fill:rgb(3,0,106);fill-rule:nonzero;" d="M3357,11359C3426,11333 3480,11242 3480,11150C3479,11059 3419,10936 3360,10905L3331,10890L3291,10973C3273.5,11009.3 3258.1,11036.3 3236.7,11062.8L3261.9,11068.1C3272.7,11054.2 3281.8,11041.7 3288,11032C3308,11001 3329,10971 3333,10965C3348,10948 3330,11040 3313,11074C3284,11130 3219,11198 3174,11219C3150,11231 3125,11240 3119,11240L3119.3,11260L3120,11260C3161,11260 3228,11220 3275,11168L3321,11117L3375,11123C3443,11130 3450,11134 3450,11171C3450,11237 3401,11312 3346,11329C3305.6,11341.4 3273.7,11346 3243.2,11341.4L3239.6,11366.7C3281.6,11372.9 3326.3,11370.7 3357,11359ZM3440,11082C3440,11097 3437,11109 3433,11108C3428,11107 3404,11105 3378,11103L3331,11099L3346,11052C3353,11026 3360,10992 3360,10977C3360,10959 3364,10951 3371,10956C3393,10969 3440,11055 3440,11082Z"></path>
                    <path style="fill:rgb(3,0,106);fill-rule:nonzero;" d="M3366,10771.4L3364.9,10757.8C3364.5,10757.8 3363.9,10757.5 3363,10757C3356,10752 3329,10758 3304,10770C3278,10781 3255,10788 3253,10786C3250,10784 3255,10756 3263,10723C3274.9,10679.8 3274.6,10653.2 3264.6,10653.2C3261.2,10653.2 3256.6,10656.4 3251,10663C3227,10692 3178,10860 3194,10860C3206,10860 3349,10790 3355,10781C3358.5,10774.8 3362,10771.4 3366,10771.4Z"></path>
                    <path style="fill:rgb(3,0,106);fill-rule:nonzero;" d="M3261.9,11068.1L3236.7,11062.8C3209.2,11097 3171.7,11130.7 3107,11183C3081,11204 3060,11226 3060,11233C3060,11257 3122,11321 3168,11345C3188.1,11355.4 3213.3,11362.7 3239.6,11366.7L3243.2,11341.4C3209.5,11336.3 3177.4,11319.9 3137,11290C3100.4,11263.3 3099,11260.1 3119.3,11260L3119,11240C3113,11240 3140,11206 3179,11165C3206.5,11136.1 3238.3,11098.7 3261.9,11068.1Z"></path>
                    <path style="fill:rgb(3,0,106);fill-rule:nonzero;" d="M3090,11032C3090,11023 3036,11047 2948,11097C2855,11148 2831,11170 2865,11170C2874,11170 2912,11154 2951,11135L3021,11099L2990,11159C2974,11192 2960,11231 2960,11245C2960,11276 2980,11278 2998,11249C3010,11230 3090,11041 3090,11032Z"></path>
                    <path style="fill:rgb(3,0,106);fill-rule:nonzero;" d="M2880,10370C2880,10364.1 2879.4,10358.4 2878.1,10353L2860,10354.7C2865,10378.2 2843.5,10399.9 2793,10424C2758,10440 2728,10462 2725,10472C2721,10483 2729,10503 2744,10523C2758,10542 2770,10562 2770,10569C2770,10584 2728,10600 2688,10600C2652,10600 2590,10657 2590,10690C2590,10702 2598,10734 2607,10761C2623,10806 2623,10810 2607,10828C2596.6,10839.3 2572.9,10848.9 2546.7,10853.2L2549.7,10870.7C2559.4,10869 2570.4,10867.1 2583,10865C2606,10861 2626,10850 2635,10836C2649,10815 2649,10808 2636,10769C2614,10706 2616,10673 2645,10645C2663,10626 2680,10620 2715,10620C2794,10620 2820,10570 2769,10514C2740,10483 2746,10471 2798,10449C2860,10422 2880,10403 2880,10370Z"></path>
                </g>
            </g>
        </g>
    </g>
    <defs>
        <linearGradient gradientTransform="matrix(-7.11047,38.1886,-38.1886,-7.11047,23.2742,62.4716)" gradientUnits="userSpaceOnUse" y2="0.00677644" x2="1" y1="0" x1="0" id="_Linear3"><stop style="stop-color:rgb(43,157,193);stop-opacity:0" offset="0"></stop><stop style="stop-color:rgb(43,157,193);stop-opacity:0.52" offset="1"></stop></linearGradient>
    </defs>
</svg>
