<svg style="fill-rule:evenodd;clip-rule:evenodd;stroke-linejoin:round;stroke-miterlimit:2;" xml:space="preserve" xmlns:xlink="http://www.w3.org/1999/xlink" xmlns="http://www.w3.org/2000/svg" version="1.1" viewBox="0 0 1767 1767" height="100%" width="100%">
    <g transform="matrix(0.850253,-3.46567e-33,-3.46567e-33,-0.850253,-28795.4,7857.04)">
        <clipPath id="_clip1">
            <path d="M34906,9145.33C35426.8,9145.33 35849.6,8722.51 35849.6,8201.72C35849.6,7680.93 35426.8,7258.11 34906,7258.11C34385.2,7258.11 33962.4,7680.93 33962.4,8201.72C33962.4,8722.51 34385.2,9145.33 34906,9145.33Z"></path>
        </clipPath>
        <g clip-path="url(#_clip1)">
            <g transform="matrix(1.17612,-4.79393e-33,-4.79393e-33,-1.17612,25532.4,36461.9)">
                <rect style="fill:rgb(76,194,216);" height="1863.45" width="1873.32" y="23226" x="7048.7"></rect>
            </g>
            <g transform="matrix(1.00437,-1.15555e-35,-1.15555e-35,1.00153,-100.041,51.0468)">
                <g>
                    <g transform="matrix(47.8693,-1.95118e-31,-1.95118e-31,-47.8693,-2086.01,17734.2)">
                        <path style="fill:rgb(103,225,146);fill-rule:nonzero;" d="M770.41,253.298C770.514,253.298 770.243,253.695 769.804,254.217C769.386,254.739 768.969,255.157 768.906,255.157C768.822,255.157 768.53,254.927 768.279,254.656L767.82,254.175L769.031,253.757C769.7,253.528 770.326,253.319 770.41,253.298ZM787.686,225.43C788.71,225.597 788.835,225.66 788.773,226.057C788.626,227.039 785.723,232.491 784.469,234.162C784.114,234.622 783.822,235.019 783.822,235.04C783.822,235.061 783.153,234.893 782.359,234.664C781.503,234.413 779.936,234.183 778.536,234.121C776.468,234.016 776.197,233.953 776.322,233.661C776.802,232.533 777.45,230.632 777.408,230.486C777.366,230.381 776.552,231.823 775.591,233.703C774.609,235.562 773.272,237.964 772.603,239.03C771.935,240.095 771.392,241.014 771.392,241.056C771.392,241.223 768.3,245.61 767.653,246.383L767.047,247.114L764.561,247.156C763.203,247.198 761.803,247.219 761.448,247.24C761.072,247.24 760.445,247.01 759.881,246.634C759.38,246.3 758.419,245.819 757.771,245.547C756.455,245.004 756.351,244.879 756.957,244.587C757.395,244.378 759.484,241.725 759.484,241.39C759.484,241.265 759.881,240.534 760.383,239.761C762.054,237.15 762.284,236.377 762.284,233.536C762.305,232.157 762.263,230.465 762.221,229.754C762.138,228.585 762.179,228.397 763.057,226.851C764.31,224.595 764.435,224.177 763.621,225.096C763.245,225.493 762.827,226.015 762.681,226.245C762.451,226.621 762.409,226.6 761.72,225.89C760.989,225.159 760.592,224.992 758.127,224.448C756.999,224.198 756.852,224.031 753.99,220.103C753.092,218.871 751.964,216.928 751.964,216.615C751.964,216.552 752.925,216.489 754.116,216.489C755.286,216.468 757.145,216.385 758.231,216.301C760.404,216.134 761.636,216.197 761.741,216.468C761.887,216.949 764.039,219.79 765.083,220.918C765.71,221.607 766.859,222.547 767.632,223.007C769.428,224.072 772.603,225.2 775.089,225.702C776.865,226.036 777.22,226.057 779.372,225.785C782.61,225.368 786.307,225.221 787.686,225.43Z"></path>
                    </g>
                    <g transform="matrix(44.6351,-1.81935e-31,-1.81935e-31,-44.6351,327.296,16794.9)">
                        <path style="fill:rgb(115,255,164);" d="M752.309,212.509C752.309,212.509 759.948,212.512 761.934,212.622C762.139,212.737 767.807,221.97 778.42,221.751C789.032,221.533 790.326,222.214 791.652,222.692C791.867,222.619 792.287,221.091 792.287,221.091L790.937,220.456L782.97,220.585L778.891,220.994L771.176,218.654L768.472,217.073L767.062,215.517L763.116,210.297L755.683,210.761C755.683,210.761 752.039,210.628 751.665,210.82C751.29,211.011 752.309,212.509 752.309,212.509Z"></path>
                    </g>
                    <g>
                        <path style="fill:rgb(254,104,146);fill-rule:nonzero;" d="M35632,8250C35697,8122 35693,7977 35623,7848C35597,7801 35563,7772 35508,7751C35466,7735 35435,7767 35409,7852C35389,7916 35388,7938 35393,8071C35400,8263 35426,8326 35506,8349C35554,8363 35590,8335 35632,8250Z"></path>
                        <g transform="matrix(47.8693,-1.95118e-31,-1.95118e-31,-47.8693,-2086.01,17734.2)">
                            <path style="fill:rgb(224,82,121);fill-rule:nonzero;" d="M781.425,203.807C781.271,202.181 781.379,200.41 781.816,199.004C782.067,198.148 783.09,196.393 783.237,196.539C783.299,196.581 783.153,197.145 782.923,197.751C782.251,199.558 782.009,201.485 782.186,203.678L782.186,203.678C782.199,203.849 782.216,204.04 782.234,204.206C782.38,205.564 782.631,206.671 782.881,207.172C783.404,208.175 783.425,208.53 782.902,208.07C782.129,207.364 781.603,205.683 781.425,203.807Z"></path>
                        </g>
                        <path style="fill:rgb(224,82,121);fill-rule:nonzero;" d="M35339,8470C35388,8355 35386,8362 35364,8339L35343,8318L35299,8405C35219,8562 35153,8625 35026,8666C34952,8689 34791,8695 34705,8677C34577,8650 34520,8622 34458,8558C34381,8480 34355,8424 34330,8289C34319,8227 34307,8174 34304,8171C34290,8158 34313,8358 34335,8441L34358,8529L34339,8597C34317.8,8672 34305.2,8830.2 34314.2,8873.4C34315.4,8879.1 34317,8882.8 34319,8884C34342,8899 34490,8828 34550,8773C34606,8721 34608,8721 34636,8735C34681,8757 34817,8770 34891,8760C34946.5,8751.9 34978.7,8747.9 35004.5,8751.8C35036.4,8756.6 35058.4,8773.5 35102,8810C35181,8877 35279,8930 35321,8930C35343,8930 35351,8924 35356,8904C35357.2,8899.7 35358,8894.4 35358.6,8888.4C35362.8,8842 35350.2,8747.2 35329,8665C35318,8621 35306,8574 35303,8561C35300,8548 35301,8535 35306,8531C35311,8528 35326,8500 35339,8470Z"></path>
                        <g transform="matrix(44.6351,-1.81935e-31,-1.81935e-31,-44.6351,327.296,16794.9)">
                            <path style="fill:rgb(103,225,146);" d="M779.302,180.906C779.302,180.906 781.2,179.353 783.021,178.669C783.264,178.774 783.003,182.27 782.316,183.091C782.439,183.335 780.64,181.536 779.302,180.906ZM762.849,179.909C762.849,179.909 763.116,182.643 763.465,183.631C763.571,183.814 765.125,182.271 766.052,181.809C766.029,181.785 764.709,180.462 762.849,179.909Z"></path>
                        </g>
                        <g transform="matrix(47.8693,-1.95118e-31,-1.95118e-31,-47.8693,-2086.01,17734.2)">
                            <path style="fill:rgb(254,104,146);fill-rule:nonzero;" d="M761.49,210.055C762.096,210.953 762.534,211.726 762.472,211.768C762.326,211.914 761.469,211.538 760.487,210.912C759.61,210.347 757.98,207.882 757.625,206.587C757.145,204.812 757.5,202.681 758.44,201.678C759.192,200.884 759.317,200.884 759.025,201.699C758.461,203.328 759.652,207.36 761.49,210.055Z"></path>
                        </g>
                        <g transform="matrix(47.8693,-1.95118e-31,-1.95118e-31,-47.8693,-2086.01,17734.2)">
                            <path style="fill:rgb(224,82,121);fill-rule:nonzero;" d="M764.456,210.703L765.605,211.914L764.937,211.914C764.361,211.914 763.477,211.279 762.648,210.336C762.274,209.912 761.912,209.425 761.594,208.906C761.223,208.287 760.893,207.594 760.615,206.882C759.675,204.472 759.339,201.845 760.048,201.135C760.383,200.822 760.445,200.968 761.177,203.809C761.594,205.459 762.242,207.423 762.618,208.154C762.994,208.885 763.809,210.034 764.456,210.703Z"></path>
                        </g>
                        <g transform="matrix(47.8693,-1.95118e-31,-1.95118e-31,-47.8693,-2086.01,17734.2)">
                            <path style="fill:rgb(224,82,121);fill-opacity:0.52;" d="M783.022,207.004C783.022,207.004 785.381,208.497 786.959,205.142C788.537,201.788 788.422,198.444 787.139,196.453C787.321,196.405 790.001,199.879 788.983,203.71C787.89,207.825 786.609,208.828 785.301,208.838C783.994,208.848 783.022,207.004 783.022,207.004ZM757.165,204.516C757.165,204.516 759.555,210.759 762.246,210.844C763.179,212.406 762.372,212.463 762.372,212.463C762.372,212.463 757.239,210.744 757.165,204.516ZM780.999,195.144C780.999,195.144 781.679,194.122 781.794,192.9C782.44,193.521 783.155,195.666 783.155,195.666L781.888,196.946L780.999,195.144ZM760.422,184.774C760.422,184.774 762.042,185.617 763.376,186.617C763.985,187.073 765.453,188.379 765.6,188.725C765.643,188.827 767.218,187.81 767.218,187.81C767.218,187.81 761.9,184.081 760.422,184.774ZM782.067,183.946C782.067,183.946 781.655,189.275 780.077,191.179C780.019,191.249 781.389,192.232 781.389,192.232C781.389,192.232 783.426,185.747 782.067,183.946ZM761.066,192.882C761.066,192.882 760.276,196.917 761.19,196.733C761.497,198.168 760.572,199.837 760.572,199.837L759.831,200.165L760.379,194.33L761.066,192.882Z"></path>
                        </g>
                    </g>
                    <g transform="matrix(47.8693,-1.95118e-31,-1.95118e-31,-47.8693,-2086.01,17734.2)">
                        <path style="fill:rgb(103,225,146);fill-rule:nonzero;" d="M783.153,219.435C783.425,219.435 783.257,219.644 782.631,220.124C781.524,220.981 780.291,222.547 779.602,223.968C779.247,224.741 778.933,225.117 778.578,225.2C778.286,225.284 778.014,225.305 777.972,225.263C777.951,225.221 778.16,224.615 778.474,223.926C779.435,221.837 781.921,219.456 783.153,219.435ZM770.118,217.972C770.41,217.972 770.556,218.056 770.452,218.14C770.326,218.244 769.616,218.808 768.822,219.414C768.049,220.02 767.276,220.709 767.109,220.96L766.817,221.378L765.981,220.375L766.524,219.957C767.715,219.017 769.616,217.972 770.118,217.972ZM779.226,215.862C779.455,215.507 779.748,215.674 779.748,216.155C779.748,217.116 777.868,218.307 775.988,218.495C774.212,218.704 771.016,217.45 771.643,216.823C771.705,216.761 772.248,216.844 772.833,217.053C774.421,217.575 776.823,217.367 778.119,216.635C778.662,216.322 779.163,215.967 779.226,215.862Z"></path>
                        <clipPath id="_clip2">
                            <path clip-rule="nonzero" d="M783.153,219.435C783.425,219.435 783.257,219.644 782.631,220.124C781.524,220.981 780.291,222.547 779.602,223.968C779.247,224.741 778.933,225.117 778.578,225.2C778.286,225.284 778.014,225.305 777.972,225.263C777.951,225.221 778.16,224.615 778.474,223.926C779.435,221.837 781.921,219.456 783.153,219.435ZM770.118,217.972C770.41,217.972 770.556,218.056 770.452,218.14C770.326,218.244 769.616,218.808 768.822,219.414C768.049,220.02 767.276,220.709 767.109,220.96L766.817,221.378L765.981,220.375L766.524,219.957C767.715,219.017 769.616,217.972 770.118,217.972ZM779.226,215.862C779.455,215.507 779.748,215.674 779.748,216.155C779.748,217.116 777.868,218.307 775.988,218.495C774.212,218.704 771.016,217.45 771.643,216.823C771.705,216.761 772.248,216.844 772.833,217.053C774.421,217.575 776.823,217.367 778.119,216.635C778.662,216.322 779.163,215.967 779.226,215.862Z"></path>
                        </clipPath>
                        <g clip-path="url(#_clip2)">
                            <path style="fill:rgb(54,196,135);" d="M776.504,216.823C776.504,216.823 776.696,216.847 776.696,218.495C776.671,218.535 779.101,218.308 779.606,217.166C780.11,216.024 779.823,215.585 779.606,215.409C779.389,215.233 777.53,216.783 776.504,216.823Z"></path>
                            <path style="fill:rgb(54,196,135);" d="M779.49,221.888C779.49,221.888 782.788,218.842 782.881,220.568C782.911,220.587 783.881,219.41 783.881,219.41L782.881,219.067C782.881,219.067 780.501,220.094 779.49,221.888ZM767.629,219.067C767.629,219.067 769.728,218.174 769.289,219.41C769.274,219.53 770.827,217.946 770.827,217.946L769.925,217.421L767.629,219.067ZM777.785,224.365C777.709,224.368 778.52,225.079 779.625,224.249C779.742,224.207 779.652,225.153 779.49,225.197C779.327,225.24 777.256,225.656 777.256,225.656C777.256,225.656 777.862,224.362 777.785,224.365ZM766.147,220.054C766.147,220.054 766.766,220.904 767.236,221.21C767.236,221.275 766.815,221.726 766.815,221.726L765.502,220.419L766.147,220.054Z"></path>
                        </g>
                    </g>
                    <g transform="matrix(47.8693,-1.95118e-31,-1.95118e-31,-47.8693,-2086.01,17734.2)">
                        <path style="fill:rgb(253,198,103);fill-rule:nonzero;" d="M759.81,194.189C760.086,193.825 760.111,194.057 759.881,194.868C759.568,196.017 758.273,197.563 756.058,199.443C754.345,200.926 751.692,202.723 751.233,202.723C751.128,202.723 750.648,202.911 750.147,203.161C749.645,203.391 749.039,203.621 748.789,203.663C748.517,203.704 747.786,203.83 747.159,203.934L746.01,204.143L746.95,204.164C748.329,204.185 750.899,203.495 752.632,202.618C754.429,201.699 755.265,201.114 756.602,199.84C758.106,198.398 758.043,198.941 756.518,200.466C754.972,202.033 753.907,202.806 751.609,203.955C748.58,205.48 746.282,205.793 743.378,205.02C742.77,204.864 742.217,204.695 741.709,204.509C740.382,204.024 739.365,203.424 738.49,202.639L737.445,201.699L738.699,202.326C740.767,203.307 742.354,203.621 744.861,203.516C747.339,203.395 749.138,203.009 750.972,202.062C752.279,201.392 753.604,200.435 755.202,199.088C756.831,197.709 758.941,195.495 759.631,194.45C759.7,194.343 759.758,194.256 759.81,194.189ZM759.965,192.382C760.738,191.839 760.633,192.424 759.756,193.385C759.618,193.541 759.453,193.731 759.278,193.938C758.889,194.394 758.448,194.918 758.147,195.307C756.518,197.375 753.635,199.359 751.024,200.195C749.449,200.707 747.203,201.047 745.912,200.964C745.78,200.955 745.659,200.943 745.551,200.926C744.485,200.78 740.934,199.526 739.493,198.795C737.821,197.939 734.542,195.119 733.413,193.552C732.808,192.737 732.265,192.069 732.202,192.069C732.139,192.069 732.453,192.758 732.891,193.573C733.601,194.91 733.978,195.327 735.983,196.936C738.594,199.046 739.534,199.568 742.459,200.592C743.846,201.07 744.642,201.256 745.885,201.352C746.159,201.373 746.455,201.392 746.783,201.406C748.935,201.511 750.147,201.323 752.298,200.487C753.092,200.195 752.298,200.863 751.066,201.553C750.974,201.603 750.882,201.653 750.788,201.701C749.382,202.426 747.7,202.86 745.467,203.057C741.373,203.412 736.505,201.302 734.291,198.231C731.888,194.826 730.113,190.293 729.883,186.888C729.82,185.948 729.799,185.175 729.862,185.175C729.925,185.175 730.175,185.801 730.447,186.574C730.687,187.289 730.986,188.012 731.333,188.728C732.373,190.876 733.856,192.967 735.565,194.659C736.944,196.017 739.618,197.792 741.937,198.858C743.524,199.589 743.921,199.693 745.718,199.756C750.752,199.965 754.951,198.168 758.022,194.471C758.124,194.35 758.227,194.231 758.329,194.114C759.042,193.286 759.727,192.547 759.965,192.382ZM768.509,196.059C769.909,196.581 770.013,196.685 769.658,197.166C769.428,197.479 769.324,197.479 768.572,197.228C768.112,197.061 766.942,196.455 765.96,195.871L764.185,194.805L764.039,196.309C763.809,198.377 763.349,199.61 762.409,200.675L761.615,201.574L761.469,200.989C761.344,200.487 761.427,200.278 761.949,199.735C762.827,198.837 763.245,197.563 763.391,195.265C763.454,194.199 763.537,193.322 763.558,193.322C763.587,193.322 763.99,193.568 764.573,193.926C764.837,194.089 765.139,194.275 765.459,194.471C766.462,195.098 767.841,195.829 768.509,196.059ZM762.764,193.74C762.827,193.74 762.827,194.471 762.743,195.348C762.681,196.247 762.514,197.333 762.409,197.751C762.179,198.565 761.49,199.568 761.281,199.359C760.968,199.067 762.388,193.74 762.764,193.74ZM779.539,196.999C780.772,196.623 780.792,196.623 780.792,196.957C780.792,197.124 780.354,197.396 779.748,197.604C779.673,197.63 779.598,197.655 779.52,197.678C777.375,198.344 774.617,198.438 774.86,197.813C774.922,197.646 775.612,197.521 776.782,197.437C777.784,197.375 779.017,197.166 779.539,196.999ZM772.666,197.291C772.896,197.291 772.896,197.521 772.666,197.876C772.562,198.043 772.311,198.106 771.956,198.022C771.475,197.897 771.455,197.834 771.663,197.479C771.81,197.249 772.039,197.124 772.186,197.187C772.353,197.249 772.562,197.291 772.666,197.291ZM806.843,175.252C807.615,179.702 806.258,187.849 804.273,190.669C803.876,191.212 803.563,191.713 803.563,191.818C803.563,192.027 801.119,194.554 800.116,195.39C799.656,195.766 798.528,196.476 797.609,196.978C795.98,197.855 795.875,197.897 793.64,198.001C792.031,198.064 791.697,198.043 792.491,197.939C794.329,197.667 795.416,197.312 796.878,196.518C798.236,195.787 800.429,193.865 800.429,193.406C800.429,193.28 800.575,193.05 800.763,192.883C801.231,192.509 802.355,190.119 803.636,186.856C803.784,186.483 803.935,186.094 804.085,185.697C804.712,184.047 805.234,180.474 805.234,177.905C805.213,174.312 804.273,169.444 803.166,167.272C802.936,166.833 802.56,166.018 802.33,165.475C801.536,163.637 800.199,161.548 798.946,160.253C798.278,159.543 797.714,158.895 797.714,158.811C797.714,158.749 796.878,157.997 795.833,157.182C794.81,156.367 793.953,155.657 793.953,155.594C793.953,155.538 794.191,155.651 794.551,155.862C795.119,156.194 795.986,156.77 796.69,157.307C798.466,158.665 801.432,162.008 802.894,164.305C803.605,165.434 804.189,166.499 804.189,166.666C804.189,166.812 804.44,167.502 804.733,168.17C805.526,169.967 806.446,173.1 806.843,175.252ZM789.086,196.852C788.48,196.623 787.77,196.33 787.498,196.226C786.621,195.871 783.947,193.51 784.072,193.197C784.156,192.967 784.281,192.967 784.741,193.301C785.827,194.074 787.519,194.805 788.981,195.139C789.525,195.263 790.003,195.332 790.486,195.332L790.492,195.332C791.545,195.33 792.609,195.006 794.371,194.262C796.251,193.489 797.505,192.653 798.925,191.275C799.264,190.945 799.546,190.681 799.771,190.483C800.431,189.896 800.607,189.854 800.331,190.257C800.082,190.623 799.466,191.356 798.507,192.382C796.494,194.548 793.398,195.837 790.494,195.848L790.486,195.848C789.778,195.849 789.083,195.776 788.417,195.62C787.352,195.369 787.268,195.474 788.188,195.912C788.507,196.063 788.854,196.178 789.222,196.255C790.396,196.514 791.795,196.416 793.243,195.954C796.249,194.989 798.56,193.234 800.5,190.37C801.125,189.453 801.71,188.419 802.268,187.264C803.082,185.551 803.437,184.485 803.855,182.438C804.24,180.581 804.423,178.716 804.388,177.291L804.388,177.281C804.366,176.467 804.272,175.798 804.106,175.356C803.96,174.959 803.563,173.915 803.249,173.058C801.892,169.319 800.179,166.52 797.651,163.888C797.083,163.292 796.427,162.697 795.764,162.164C794.916,161.479 794.06,160.896 793.368,160.545C792.178,159.939 791.091,159.271 791.3,159.271C791.311,159.271 791.329,159.275 791.357,159.283C791.547,159.344 792.119,159.607 792.742,159.919C794.872,161.005 797.943,163.115 799.385,164.535C800.868,165.956 803.061,169.068 803.625,170.489C804.359,172.365 804.797,174.872 804.854,177.278L804.854,177.287C804.875,178.04 804.856,178.781 804.795,179.493C804.522,182.743 804.118,184.838 803.381,186.756C803.331,186.886 803.281,187.011 803.229,187.138C801.14,192.34 799.447,194.617 796.669,196.038C794.016,197.375 791.133,197.688 789.086,196.852ZM779.33,195.411C780.166,195.139 780.416,195.181 780.333,195.557C780.228,196.142 778.787,196.685 777.095,196.811C776.259,196.873 775.57,196.873 775.57,196.811C775.57,196.748 775.674,196.435 775.821,196.142C776.029,195.662 776.176,195.62 777.429,195.599C778.181,195.578 779.038,195.495 779.33,195.411ZM768.342,194.053C770.682,194.951 770.932,195.098 770.744,195.453C770.473,195.933 770.201,195.933 768.634,195.327C767.164,194.784 765.933,194.195 765.07,193.654C764.047,193.011 763.539,192.432 763.767,192.069C763.899,191.864 763.949,191.803 764.281,192.012C764.423,192.102 764.619,192.244 764.895,192.445C765.355,192.779 766.9,193.51 768.342,194.053ZM783.383,194.68L783.508,195.307L783.216,194.784C783.049,194.492 782.965,194.199 783.028,194.095C783.174,193.865 783.216,193.949 783.383,194.68ZM779.664,194.116C779.915,194.492 779.873,194.534 779.142,194.763C777.972,195.098 776.259,195.056 776.113,194.68C776.034,194.452 775.76,194.354 775.453,194.381C775.2,194.404 774.922,194.513 774.713,194.701C774.212,195.16 773.272,194.931 773.272,194.346C773.272,194.032 773.105,193.844 772.829,193.802L772.908,193.337C774.003,193.523 775.175,193.625 776.489,193.656C779.059,193.698 779.393,193.761 779.664,194.116ZM790.611,194.931C790.611,195.098 788.48,194.763 787.791,194.471C787.436,194.325 786.516,193.782 785.743,193.238C784.95,192.716 784.093,192.215 783.822,192.152C783.237,192.006 782.944,191.442 783.466,191.442C783.654,191.442 784.302,191.672 784.887,191.943C785.472,192.215 786.495,192.8 787.185,193.259C787.853,193.719 788.919,194.262 789.525,194.471C790.109,194.659 790.611,194.868 790.611,194.931ZM803.249,175.565C803.73,177.383 803.793,178.03 803.709,179.326C803.458,182.501 802.393,186.136 801.16,188.12C800.922,188.486 800.141,189.38 799.32,190.214C799.203,190.333 799.084,190.45 798.967,190.564C797.609,191.922 796.899,192.465 795.353,193.218C792.846,194.471 791.697,194.596 789.65,193.886C788.814,193.614 787.331,192.821 786.328,192.152C784.97,191.233 784.26,190.899 783.55,190.815C782.861,190.752 782.568,190.606 782.568,190.397C782.568,190.147 782.798,190.105 783.717,190.168C785.012,190.251 786.683,190.92 788.104,191.943C789.838,193.197 790.36,193.385 791.969,193.343C793.201,193.322 793.661,193.197 794.998,192.528C795.447,192.305 795.865,192.069 796.253,191.814C798.445,190.372 799.719,188.342 800.784,184.757C801.328,182.94 801.369,182.501 801.369,179.43C801.348,175.419 800.889,173.372 799.635,171.638C799.218,171.053 798.424,169.883 797.881,169.027C796.648,167.084 794.893,164.974 794.371,164.807C794.162,164.744 793.285,164.222 792.449,163.679C790.109,162.133 788.167,161.381 785.096,160.796C779.309,159.71 773.899,160.691 769.031,163.679C768.235,164.174 768.003,164.237 768.235,164.011C768.405,163.848 768.822,163.53 769.449,163.115C770.807,162.216 775.925,159.919 777.722,159.396C779.56,158.853 781.043,158.707 784.26,158.665C786.391,158.644 787.498,158.728 788.334,158.978C789.704,159.39 794.049,161.527 795.499,162.498C795.597,162.563 795.681,162.622 795.75,162.676C797.505,164.034 800.659,168.609 801.933,171.638C802.33,172.599 802.915,174.354 803.249,175.565ZM772.908,193.337L772.829,193.802C772.591,193.767 772.273,193.838 771.914,194.032C771.475,194.283 771.058,194.366 770.744,194.262C769.762,193.97 766.504,192.653 765.48,192.131L764.435,191.609L765.041,191.212C765.375,191.003 765.772,190.815 765.919,190.815C766.065,190.815 766.942,191.191 767.882,191.672C769.531,192.503 771.114,193.034 772.908,193.337ZM782.359,192.737C782.568,192.925 782.693,193.176 782.631,193.322C782.589,193.468 782.422,193.301 782.276,192.988C782.025,192.424 782.046,192.403 782.359,192.737ZM777.158,192.069C778.202,192.069 778.975,192.486 778.62,192.862C778.536,192.946 777.45,192.988 776.238,192.988C773.585,192.946 770.661,192.298 768.258,191.17L766.692,190.46L767.423,190.23C767.82,190.126 768.217,190 768.3,190C768.363,189.98 769.177,190.272 770.076,190.627C771.81,191.337 775.382,192.048 777.158,192.069ZM766.42,136.035C766.865,138.201 766.921,141.573 766.504,143.478C766.044,145.546 765.208,147.635 763.767,150.393C762.163,153.449 760.074,155.876 757.072,158.047C755.501,159.183 753.679,160.249 751.546,161.297C748.684,162.718 747.514,163.449 744.569,165.663C740.621,168.63 738.845,170.301 737.048,172.703C734.918,175.565 733.789,178.657 733.372,182.835C733.244,184.101 733.253,185.34 733.407,186.585C733.604,188.175 734.038,189.775 734.73,191.463C735.022,192.173 735.231,192.8 735.189,192.841C735.147,192.862 734.855,192.633 734.562,192.319C734.04,191.776 733.831,191.212 732.849,187.786C732.348,186.031 732.432,180.098 732.975,179.409C733.079,179.284 733.393,178.469 733.685,177.571C734.374,175.461 735.043,174.145 736.484,172.139C738.156,169.8 739.493,168.379 741.414,166.959C743.148,165.684 743.629,165.329 744.339,164.786C744.569,164.598 744.297,164.723 743.712,165.037C739.012,167.627 734.521,172.933 732.829,177.947C731.617,181.456 731.554,186.261 732.661,189.457C732.724,189.687 732.536,189.52 732.244,189.081C732.12,188.91 731.997,188.701 731.876,188.461C730.89,186.508 730.029,182.476 730.029,179.555C730.029,178.281 731.074,174.918 732.139,172.808C734.941,167.226 738.753,163.614 745.72,160.142C746.443,159.781 747.201,159.421 747.995,159.062C755.118,155.845 757.228,154.612 759.672,152.168C759.848,151.997 760.019,151.817 760.186,151.633C760.909,150.833 761.548,149.912 762.158,148.826C763.642,146.131 765.334,141.786 765.584,139.968C765.772,138.631 765.668,134.537 765.417,133.158L765.334,132.636L765.522,133.158C765.626,133.451 765.919,134.328 766.19,135.143C766.276,135.406 766.351,135.707 766.42,136.035ZM777.137,191.108C777.534,191.4 777.492,191.421 776.51,191.442C775.403,191.442 771.789,190.648 770.556,190.126L769.825,189.812L770.452,189.708C771.496,189.541 773.293,189.771 775.048,190.293C775.967,190.564 776.907,190.94 777.137,191.108ZM734.124,186.7C734.186,186.762 734.207,186.95 734.145,187.097C734.082,187.264 734.019,187.201 734.019,186.971C733.998,186.742 734.061,186.616 734.124,186.7ZM775.152,186.846C775.152,186.95 774.964,187.055 774.755,187.055C774.525,187.055 774.275,186.95 774.212,186.846C774.128,186.721 774.316,186.637 774.609,186.637C774.901,186.637 775.152,186.721 775.152,186.846ZM748.977,163.825C751.651,162.321 751.546,162.363 751.546,162.488C751.546,162.551 749.979,163.721 748.058,165.12C743.712,168.275 741.206,170.176 740.286,171.032C739.641,171.653 738.429,173.201 737.439,174.615C736.76,175.582 736.184,176.484 735.962,176.986C735.022,179.054 734.186,182.292 734.019,184.444L733.852,186.533L733.81,184.82C733.789,182.793 734.166,180.621 735.064,177.884C735.941,175.168 736.923,173.455 738.678,171.617C740.245,170.008 743.817,167.021 744.84,166.499C745.154,166.332 745.676,165.977 745.968,165.705C746.261,165.434 747.619,164.598 748.977,163.825ZM785.493,161.464C787.373,161.861 789.838,162.613 789.733,162.739C789.671,162.78 789.128,162.739 788.522,162.613C785.221,161.987 778.745,162.885 774.191,164.598C772.102,165.392 768.781,167.543 767.465,168.985L766.316,170.238L766.88,169.173C768.467,166.206 773.606,162.3 777.304,161.255C778.662,160.859 783.32,160.984 785.493,161.464ZM767.402,164.64C767.673,164.305 767.841,164.201 767.841,164.368C767.841,164.41 767.673,164.577 767.485,164.723C767.151,164.995 767.13,164.974 767.402,164.64ZM758.676,152.001L758.691,152.314L757.897,152.962C757.458,153.338 757.04,153.631 756.957,153.631C756.894,153.631 756.999,153.129 757.207,152.523C757.475,151.763 757.604,150.758 757.594,149.726C757.588,148.744 757.452,147.74 757.187,146.904C756.873,145.839 756.852,145.671 757.124,146.006C757.291,146.235 757.688,146.946 757.98,147.572C758.398,148.45 758.544,149.16 758.607,150.518L758.676,152.001Z"></path>
                        <clipPath id="_clip3">
                            <path clip-rule="nonzero" d="M759.81,194.189C760.086,193.825 760.111,194.057 759.881,194.868C759.568,196.017 758.273,197.563 756.058,199.443C754.345,200.926 751.692,202.723 751.233,202.723C751.128,202.723 750.648,202.911 750.147,203.161C749.645,203.391 749.039,203.621 748.789,203.663C748.517,203.704 747.786,203.83 747.159,203.934L746.01,204.143L746.95,204.164C748.329,204.185 750.899,203.495 752.632,202.618C754.429,201.699 755.265,201.114 756.602,199.84C758.106,198.398 758.043,198.941 756.518,200.466C754.972,202.033 753.907,202.806 751.609,203.955C748.58,205.48 746.282,205.793 743.378,205.02C742.77,204.864 742.217,204.695 741.709,204.509C740.382,204.024 739.365,203.424 738.49,202.639L737.445,201.699L738.699,202.326C740.767,203.307 742.354,203.621 744.861,203.516C747.339,203.395 749.138,203.009 750.972,202.062C752.279,201.392 753.604,200.435 755.202,199.088C756.831,197.709 758.941,195.495 759.631,194.45C759.7,194.343 759.758,194.256 759.81,194.189ZM759.965,192.382C760.738,191.839 760.633,192.424 759.756,193.385C759.618,193.541 759.453,193.731 759.278,193.938C758.889,194.394 758.448,194.918 758.147,195.307C756.518,197.375 753.635,199.359 751.024,200.195C749.449,200.707 747.203,201.047 745.912,200.964C745.78,200.955 745.659,200.943 745.551,200.926C744.485,200.78 740.934,199.526 739.493,198.795C737.821,197.939 734.542,195.119 733.413,193.552C732.808,192.737 732.265,192.069 732.202,192.069C732.139,192.069 732.453,192.758 732.891,193.573C733.601,194.91 733.978,195.327 735.983,196.936C738.594,199.046 739.534,199.568 742.459,200.592C743.846,201.07 744.642,201.256 745.885,201.352C746.159,201.373 746.455,201.392 746.783,201.406C748.935,201.511 750.147,201.323 752.298,200.487C753.092,200.195 752.298,200.863 751.066,201.553C750.974,201.603 750.882,201.653 750.788,201.701C749.382,202.426 747.7,202.86 745.467,203.057C741.373,203.412 736.505,201.302 734.291,198.231C731.888,194.826 730.113,190.293 729.883,186.888C729.82,185.948 729.799,185.175 729.862,185.175C729.925,185.175 730.175,185.801 730.447,186.574C730.687,187.289 730.986,188.012 731.333,188.728C732.373,190.876 733.856,192.967 735.565,194.659C736.944,196.017 739.618,197.792 741.937,198.858C743.524,199.589 743.921,199.693 745.718,199.756C750.752,199.965 754.951,198.168 758.022,194.471C758.124,194.35 758.227,194.231 758.329,194.114C759.042,193.286 759.727,192.547 759.965,192.382ZM768.509,196.059C769.909,196.581 770.013,196.685 769.658,197.166C769.428,197.479 769.324,197.479 768.572,197.228C768.112,197.061 766.942,196.455 765.96,195.871L764.185,194.805L764.039,196.309C763.809,198.377 763.349,199.61 762.409,200.675L761.615,201.574L761.469,200.989C761.344,200.487 761.427,200.278 761.949,199.735C762.827,198.837 763.245,197.563 763.391,195.265C763.454,194.199 763.537,193.322 763.558,193.322C763.587,193.322 763.99,193.568 764.573,193.926C764.837,194.089 765.139,194.275 765.459,194.471C766.462,195.098 767.841,195.829 768.509,196.059ZM762.764,193.74C762.827,193.74 762.827,194.471 762.743,195.348C762.681,196.247 762.514,197.333 762.409,197.751C762.179,198.565 761.49,199.568 761.281,199.359C760.968,199.067 762.388,193.74 762.764,193.74ZM779.539,196.999C780.772,196.623 780.792,196.623 780.792,196.957C780.792,197.124 780.354,197.396 779.748,197.604C779.673,197.63 779.598,197.655 779.52,197.678C777.375,198.344 774.617,198.438 774.86,197.813C774.922,197.646 775.612,197.521 776.782,197.437C777.784,197.375 779.017,197.166 779.539,196.999ZM772.666,197.291C772.896,197.291 772.896,197.521 772.666,197.876C772.562,198.043 772.311,198.106 771.956,198.022C771.475,197.897 771.455,197.834 771.663,197.479C771.81,197.249 772.039,197.124 772.186,197.187C772.353,197.249 772.562,197.291 772.666,197.291ZM806.843,175.252C807.615,179.702 806.258,187.849 804.273,190.669C803.876,191.212 803.563,191.713 803.563,191.818C803.563,192.027 801.119,194.554 800.116,195.39C799.656,195.766 798.528,196.476 797.609,196.978C795.98,197.855 795.875,197.897 793.64,198.001C792.031,198.064 791.697,198.043 792.491,197.939C794.329,197.667 795.416,197.312 796.878,196.518C798.236,195.787 800.429,193.865 800.429,193.406C800.429,193.28 800.575,193.05 800.763,192.883C801.231,192.509 802.355,190.119 803.636,186.856C803.784,186.483 803.935,186.094 804.085,185.697C804.712,184.047 805.234,180.474 805.234,177.905C805.213,174.312 804.273,169.444 803.166,167.272C802.936,166.833 802.56,166.018 802.33,165.475C801.536,163.637 800.199,161.548 798.946,160.253C798.278,159.543 797.714,158.895 797.714,158.811C797.714,158.749 796.878,157.997 795.833,157.182C794.81,156.367 793.953,155.657 793.953,155.594C793.953,155.538 794.191,155.651 794.551,155.862C795.119,156.194 795.986,156.77 796.69,157.307C798.466,158.665 801.432,162.008 802.894,164.305C803.605,165.434 804.189,166.499 804.189,166.666C804.189,166.812 804.44,167.502 804.733,168.17C805.526,169.967 806.446,173.1 806.843,175.252ZM789.086,196.852C788.48,196.623 787.77,196.33 787.498,196.226C786.621,195.871 783.947,193.51 784.072,193.197C784.156,192.967 784.281,192.967 784.741,193.301C785.827,194.074 787.519,194.805 788.981,195.139C789.525,195.263 790.003,195.332 790.486,195.332L790.492,195.332C791.545,195.33 792.609,195.006 794.371,194.262C796.251,193.489 797.505,192.653 798.925,191.275C799.264,190.945 799.546,190.681 799.771,190.483C800.431,189.896 800.607,189.854 800.331,190.257C800.082,190.623 799.466,191.356 798.507,192.382C796.494,194.548 793.398,195.837 790.494,195.848L790.486,195.848C789.778,195.849 789.083,195.776 788.417,195.62C787.352,195.369 787.268,195.474 788.188,195.912C788.507,196.063 788.854,196.178 789.222,196.255C790.396,196.514 791.795,196.416 793.243,195.954C796.249,194.989 798.56,193.234 800.5,190.37C801.125,189.453 801.71,188.419 802.268,187.264C803.082,185.551 803.437,184.485 803.855,182.438C804.24,180.581 804.423,178.716 804.388,177.291L804.388,177.281C804.366,176.467 804.272,175.798 804.106,175.356C803.96,174.959 803.563,173.915 803.249,173.058C801.892,169.319 800.179,166.52 797.651,163.888C797.083,163.292 796.427,162.697 795.764,162.164C794.916,161.479 794.06,160.896 793.368,160.545C792.178,159.939 791.091,159.271 791.3,159.271C791.311,159.271 791.329,159.275 791.357,159.283C791.547,159.344 792.119,159.607 792.742,159.919C794.872,161.005 797.943,163.115 799.385,164.535C800.868,165.956 803.061,169.068 803.625,170.489C804.359,172.365 804.797,174.872 804.854,177.278L804.854,177.287C804.875,178.04 804.856,178.781 804.795,179.493C804.522,182.743 804.118,184.838 803.381,186.756C803.331,186.886 803.281,187.011 803.229,187.138C801.14,192.34 799.447,194.617 796.669,196.038C794.016,197.375 791.133,197.688 789.086,196.852ZM779.33,195.411C780.166,195.139 780.416,195.181 780.333,195.557C780.228,196.142 778.787,196.685 777.095,196.811C776.259,196.873 775.57,196.873 775.57,196.811C775.57,196.748 775.674,196.435 775.821,196.142C776.029,195.662 776.176,195.62 777.429,195.599C778.181,195.578 779.038,195.495 779.33,195.411ZM768.342,194.053C770.682,194.951 770.932,195.098 770.744,195.453C770.473,195.933 770.201,195.933 768.634,195.327C767.164,194.784 765.933,194.195 765.07,193.654C764.047,193.011 763.539,192.432 763.767,192.069C763.899,191.864 763.949,191.803 764.281,192.012C764.423,192.102 764.619,192.244 764.895,192.445C765.355,192.779 766.9,193.51 768.342,194.053ZM783.383,194.68L783.508,195.307L783.216,194.784C783.049,194.492 782.965,194.199 783.028,194.095C783.174,193.865 783.216,193.949 783.383,194.68ZM779.664,194.116C779.915,194.492 779.873,194.534 779.142,194.763C777.972,195.098 776.259,195.056 776.113,194.68C776.034,194.452 775.76,194.354 775.453,194.381C775.2,194.404 774.922,194.513 774.713,194.701C774.212,195.16 773.272,194.931 773.272,194.346C773.272,194.032 773.105,193.844 772.829,193.802L772.908,193.337C774.003,193.523 775.175,193.625 776.489,193.656C779.059,193.698 779.393,193.761 779.664,194.116ZM790.611,194.931C790.611,195.098 788.48,194.763 787.791,194.471C787.436,194.325 786.516,193.782 785.743,193.238C784.95,192.716 784.093,192.215 783.822,192.152C783.237,192.006 782.944,191.442 783.466,191.442C783.654,191.442 784.302,191.672 784.887,191.943C785.472,192.215 786.495,192.8 787.185,193.259C787.853,193.719 788.919,194.262 789.525,194.471C790.109,194.659 790.611,194.868 790.611,194.931ZM803.249,175.565C803.73,177.383 803.793,178.03 803.709,179.326C803.458,182.501 802.393,186.136 801.16,188.12C800.922,188.486 800.141,189.38 799.32,190.214C799.203,190.333 799.084,190.45 798.967,190.564C797.609,191.922 796.899,192.465 795.353,193.218C792.846,194.471 791.697,194.596 789.65,193.886C788.814,193.614 787.331,192.821 786.328,192.152C784.97,191.233 784.26,190.899 783.55,190.815C782.861,190.752 782.568,190.606 782.568,190.397C782.568,190.147 782.798,190.105 783.717,190.168C785.012,190.251 786.683,190.92 788.104,191.943C789.838,193.197 790.36,193.385 791.969,193.343C793.201,193.322 793.661,193.197 794.998,192.528C795.447,192.305 795.865,192.069 796.253,191.814C798.445,190.372 799.719,188.342 800.784,184.757C801.328,182.94 801.369,182.501 801.369,179.43C801.348,175.419 800.889,173.372 799.635,171.638C799.218,171.053 798.424,169.883 797.881,169.027C796.648,167.084 794.893,164.974 794.371,164.807C794.162,164.744 793.285,164.222 792.449,163.679C790.109,162.133 788.167,161.381 785.096,160.796C779.309,159.71 773.899,160.691 769.031,163.679C768.235,164.174 768.003,164.237 768.235,164.011C768.405,163.848 768.822,163.53 769.449,163.115C770.807,162.216 775.925,159.919 777.722,159.396C779.56,158.853 781.043,158.707 784.26,158.665C786.391,158.644 787.498,158.728 788.334,158.978C789.704,159.39 794.049,161.527 795.499,162.498C795.597,162.563 795.681,162.622 795.75,162.676C797.505,164.034 800.659,168.609 801.933,171.638C802.33,172.599 802.915,174.354 803.249,175.565ZM772.908,193.337L772.829,193.802C772.591,193.767 772.273,193.838 771.914,194.032C771.475,194.283 771.058,194.366 770.744,194.262C769.762,193.97 766.504,192.653 765.48,192.131L764.435,191.609L765.041,191.212C765.375,191.003 765.772,190.815 765.919,190.815C766.065,190.815 766.942,191.191 767.882,191.672C769.531,192.503 771.114,193.034 772.908,193.337ZM782.359,192.737C782.568,192.925 782.693,193.176 782.631,193.322C782.589,193.468 782.422,193.301 782.276,192.988C782.025,192.424 782.046,192.403 782.359,192.737ZM777.158,192.069C778.202,192.069 778.975,192.486 778.62,192.862C778.536,192.946 777.45,192.988 776.238,192.988C773.585,192.946 770.661,192.298 768.258,191.17L766.692,190.46L767.423,190.23C767.82,190.126 768.217,190 768.3,190C768.363,189.98 769.177,190.272 770.076,190.627C771.81,191.337 775.382,192.048 777.158,192.069ZM766.42,136.035C766.865,138.201 766.921,141.573 766.504,143.478C766.044,145.546 765.208,147.635 763.767,150.393C762.163,153.449 760.074,155.876 757.072,158.047C755.501,159.183 753.679,160.249 751.546,161.297C748.684,162.718 747.514,163.449 744.569,165.663C740.621,168.63 738.845,170.301 737.048,172.703C734.918,175.565 733.789,178.657 733.372,182.835C733.244,184.101 733.253,185.34 733.407,186.585C733.604,188.175 734.038,189.775 734.73,191.463C735.022,192.173 735.231,192.8 735.189,192.841C735.147,192.862 734.855,192.633 734.562,192.319C734.04,191.776 733.831,191.212 732.849,187.786C732.348,186.031 732.432,180.098 732.975,179.409C733.079,179.284 733.393,178.469 733.685,177.571C734.374,175.461 735.043,174.145 736.484,172.139C738.156,169.8 739.493,168.379 741.414,166.959C743.148,165.684 743.629,165.329 744.339,164.786C744.569,164.598 744.297,164.723 743.712,165.037C739.012,167.627 734.521,172.933 732.829,177.947C731.617,181.456 731.554,186.261 732.661,189.457C732.724,189.687 732.536,189.52 732.244,189.081C732.12,188.91 731.997,188.701 731.876,188.461C730.89,186.508 730.029,182.476 730.029,179.555C730.029,178.281 731.074,174.918 732.139,172.808C734.941,167.226 738.753,163.614 745.72,160.142C746.443,159.781 747.201,159.421 747.995,159.062C755.118,155.845 757.228,154.612 759.672,152.168C759.848,151.997 760.019,151.817 760.186,151.633C760.909,150.833 761.548,149.912 762.158,148.826C763.642,146.131 765.334,141.786 765.584,139.968C765.772,138.631 765.668,134.537 765.417,133.158L765.334,132.636L765.522,133.158C765.626,133.451 765.919,134.328 766.19,135.143C766.276,135.406 766.351,135.707 766.42,136.035ZM777.137,191.108C777.534,191.4 777.492,191.421 776.51,191.442C775.403,191.442 771.789,190.648 770.556,190.126L769.825,189.812L770.452,189.708C771.496,189.541 773.293,189.771 775.048,190.293C775.967,190.564 776.907,190.94 777.137,191.108ZM734.124,186.7C734.186,186.762 734.207,186.95 734.145,187.097C734.082,187.264 734.019,187.201 734.019,186.971C733.998,186.742 734.061,186.616 734.124,186.7ZM775.152,186.846C775.152,186.95 774.964,187.055 774.755,187.055C774.525,187.055 774.275,186.95 774.212,186.846C774.128,186.721 774.316,186.637 774.609,186.637C774.901,186.637 775.152,186.721 775.152,186.846ZM748.977,163.825C751.651,162.321 751.546,162.363 751.546,162.488C751.546,162.551 749.979,163.721 748.058,165.12C743.712,168.275 741.206,170.176 740.286,171.032C739.641,171.653 738.429,173.201 737.439,174.615C736.76,175.582 736.184,176.484 735.962,176.986C735.022,179.054 734.186,182.292 734.019,184.444L733.852,186.533L733.81,184.82C733.789,182.793 734.166,180.621 735.064,177.884C735.941,175.168 736.923,173.455 738.678,171.617C740.245,170.008 743.817,167.021 744.84,166.499C745.154,166.332 745.676,165.977 745.968,165.705C746.261,165.434 747.619,164.598 748.977,163.825ZM785.493,161.464C787.373,161.861 789.838,162.613 789.733,162.739C789.671,162.78 789.128,162.739 788.522,162.613C785.221,161.987 778.745,162.885 774.191,164.598C772.102,165.392 768.781,167.543 767.465,168.985L766.316,170.238L766.88,169.173C768.467,166.206 773.606,162.3 777.304,161.255C778.662,160.859 783.32,160.984 785.493,161.464ZM767.402,164.64C767.673,164.305 767.841,164.201 767.841,164.368C767.841,164.41 767.673,164.577 767.485,164.723C767.151,164.995 767.13,164.974 767.402,164.64ZM758.676,152.001L758.691,152.314L757.897,152.962C757.458,153.338 757.04,153.631 756.957,153.631C756.894,153.631 756.999,153.129 757.207,152.523C757.475,151.763 757.604,150.758 757.594,149.726C757.588,148.744 757.452,147.74 757.187,146.904C756.873,145.839 756.852,145.671 757.124,146.006C757.291,146.235 757.688,146.946 757.98,147.572C758.398,148.45 758.544,149.16 758.607,150.518L758.676,152.001Z"></path>
                        </clipPath>
                        <g clip-path="url(#_clip3)">
                            <path style="fill:rgb(241,169,83);" d="M773.693,197.813C773.693,197.813 778.322,195.359 779.142,190.815C779.962,186.271 782.151,195.856 782.212,196.609C782.273,197.361 781.364,198.891 777.508,198.528C773.652,198.166 773.693,197.813 773.693,197.813Z"></path>
                            <path style="fill:rgb(241,169,83);" d="M764.389,195.329C764.389,195.329 762.973,193.168 763.822,191.586C763.85,191.494 767.039,190.013 767.039,190.013C767.039,190.013 763.865,191.756 766.705,196.594C766.813,196.589 764.389,195.329 764.389,195.329Z"></path>
                            <path style="fill:rgb(241,169,83);" d="M761.664,195.329C761.664,195.329 761.424,198.824 763.53,199.32C763.554,199.279 762.224,201.546 761.128,202.079C761.109,202.214 760.277,197.733 761.664,195.329Z"></path>
                            <path style="fill:rgb(241,169,83);" d="M760.134,191.953C760.134,191.953 756.78,201.156 751.253,204.661C751.19,204.703 757.062,202.087 760.134,196.661C760.371,196.535 761.858,190.122 760.134,191.953Z"></path>
                            <path style="fill:rgb(241,169,83);" d="M784.258,193.871C784.258,193.871 787.879,196.659 791.066,196.07C794.253,195.481 797.004,194.3 798.296,192.892C799.589,191.485 801.917,188.661 802.47,185.85C803.022,183.038 805.422,179.859 802.988,173.256C800.555,166.653 795.22,160.88 791.066,159.331C791.095,159.229 796.633,160.739 800.327,164.932C804.021,169.125 804.425,171.704 804.773,173.847C805.12,175.99 805.168,184.144 802.988,188.198C800.809,192.253 800.435,196.004 791.723,198.018C789.787,198.465 785.812,195.607 784.258,193.871Z"></path>
                            <path style="fill:rgb(241,169,83);" d="M781.78,191.953L781.92,194.142L783.164,195.887L783.966,194.142C783.966,194.142 783.482,194.408 785.691,195.075C787.9,195.743 792.711,195.285 794.873,192.511C794.863,192.639 792.37,193.949 789.501,192.511C786.632,191.073 784.297,189.007 781.92,189.924C779.543,190.841 781.78,191.953 781.78,191.953Z"></path>
                            <path style="fill:rgb(241,169,83);" d="M735.969,200.617C735.969,200.617 739.506,203.96 744.898,203.305C750.289,202.65 752.89,200.868 753.806,199.605C753.987,199.582 748.077,201.955 744.898,201.189C741.718,200.423 735.524,196.904 733.621,193.873C731.718,190.843 731.251,192.316 731.251,192.316C731.251,192.316 732.533,197.747 735.969,200.617Z"></path>
                        </g>
                    </g>
                    <g transform="matrix(47.8693,-1.95118e-31,-1.95118e-31,-47.8693,-2086.01,17734.2)">
                        <path style="fill:rgb(253,198,103);" d="M772.908,195.39C772.908,195.39 772.278,196.335 772.359,196.518C772.44,196.701 773.14,196.793 773.262,196.672C773.384,196.55 773.806,195.746 773.821,195.636C773.837,195.526 773.207,195.156 772.908,195.39Z"></path>
                    </g>
                    <path style="fill:rgb(254,104,146);fill-rule:nonzero;" d="M35035.5,8400.6C35043.1,8392.7 35035.4,8360.1 35014,8323C35004.2,8306.2 34994,8290.2 34984,8275.5C34953.9,8231.5 34925,8200 34913,8200C34902,8200 34902,8205 34913,8233C34923.7,8257.8 34949.9,8301.8 34974.1,8338.3C34993,8366.6 35010.7,8390.4 35019,8397C35027,8403 35032.5,8403.8 35035.5,8400.6Z"></path>
                    <path style="fill:rgb(254,104,146);fill-rule:nonzero;" d="M34873,8422C34895,8436 34902,8430 34896,8403C34893.3,8392.4 34886.7,8378.3 34877.9,8362.5C34846.3,8306.4 34785.6,8230.8 34768,8230.8C34766.8,8230.8 34765.8,8231.2 34765,8232C34756.5,8239.8 34799.9,8322.4 34836,8376.6C34851,8399.1 34864.8,8416.7 34873,8422Z"></path>
                    <path style="fill:rgb(253,198,103);fill-rule:nonzero;" d="M35445,7496C35445,7474 35431,7467 35411,7479C35392,7491 35405,7522 35427,7518C35437,7516 35445,7506 35445,7496Z"></path>
                </g>
                <g>
                    <path style="fill:rgb(255,222,222);fill-rule:nonzero;" d="M34019,7097C34047,7065 34070,7037 34070,7035C34070,7033 33961,7034 33828,7036C33565,7041 33396,7056 33375,7077C33353,7099 33332,7093 33196,7026C33118,6987 33012,6945 32934,6922C32786,6877 32616,6816 32584,6795C32564,6782 32555,6787 32469,6851C32417,6889 32371,6920 32366,6920C32339,6920 32584,7063 32710,7120C33129,7312 33167,7323 33491,7339C33581,7343 33703,7348 33762,7349L33868,7350L33879,7318C33898,7264 33965,7159 34019,7097Z"></path>
                    <path style="fill:rgb(255,222,222);fill-rule:nonzero;" d="M35690,7005L35690,6968L35648,6976C35582,6987 35393,6984 35321,6971C35287,6964 35256,6961 35253,6963C35245,6972 35301,7071 35337,7111C35377,7155 35413,7177 35475,7195C35522,7209 35556,7202 35603,7166C35647,7132 35690,7053 35690,7005Z"></path>
                    <path style="fill:rgb(255,222,222);fill-rule:nonzero;" d="M35342,7250C35348,7250 35335,7237 35313,7221C35255,7179 35189,7099 35151,7023C35132,6986 35116,6954 35115,6952C35110,6945 34945,6981 34875,7005C34809,7027 34667,7091 34651,7106C34649,7108 34659,7128 34675,7149C34704,7192 34791,7263 34827,7274C34840,7278 34882,7272 34927,7259C34995,7240 35012,7239 35070,7249C35106,7255 35160,7272 35190,7288L35245,7316L35288,7283C35312,7265 35336,7250 35342,7250Z"></path>
                    <path style="fill:rgb(255,222,222);fill-rule:nonzero;" d="M35310,8266C35310,8265 35303,8227 35295,8180C35276,8070 35276,7949 35296,7857C35312,7786 35312,7783 35291,7742C35248,7657 35099,7566 34961,7540C34883,7525 34832,7528 34746,7549C34572,7592 34474,7690 34411,7883C34364.5,8026.8 34357.3,8040.4 34387.7,8071.4C34393.2,8077.1 34400,8083.3 34408,8091C34461,8143 34508,8237 34517,8308C34520,8337 34527,8357 34532,8354C34537,8351 34564,8333 34593,8314C34621,8296 34665,8273 34691,8265C34729,8252 34737,8246 34733,8230C34726.2,8206 34747.1,8196.7 34777.1,8207.7C34782.2,8209.5 34787.5,8212 34793,8215C34836,8238 34873,8232 34880,8200C34888,8167 34916,8163 34948,8192C34972,8212 34982,8215 35033,8210L35091,8205L35038,8165C34960,8106 34933,8077 34938,8057C34941,8040 34952,8039 35049,8042C35165,8045 35202,8058 35178,8088C35168,8099 35151,8101 35092,8096C35006,8088 35006,8092 35090,8151C35123,8174 35150,8198 35150,8204C35150,8210 35186,8226 35230,8241C35232.8,8241.9 35235.5,8242.7 35238.1,8243.6C35278.4,8256.3 35310,8266 35310,8266ZM35083,7729C35133,7781 35150,7822 35150,7892C35150,7937 35117,8031 35101,8029C35098,8029 35064,8011 35026,7990C34972.6,7960.2 34929.6,7941.8 34884.6,7931.2C34849.6,7922.9 34813.3,7919.4 34770,7919C34723,7919 34673,7916 34658,7914C34634,7909 34632,7906 34637,7872C34649,7788 34663,7755 34704,7714C34755,7663 34810,7645 34898,7653C34905.7,7653.8 34912.9,7654.6 34919.9,7655.5C35002,7665.6 35037.8,7682 35083,7729ZM34721,8003L34701,8024C34684,8041 34665,8045 34588,8048C34537,8049 34489,8047 34482,8042C34459,8026 34490,8013 34569,8005L34644,7998L34614,7976C34549,7929 34520,7896 34530,7880C34541,7863 34533,7859 34644,7944L34721,8003Z"></path>
                    <path style="fill:rgb(255,222,222);fill-rule:nonzero;" d="M35181,7474C35191,7437 35190,7426 35179,7416C35152,7391 35049,7357 35003,7358C34958,7359 34864,7385 34856,7398C34854,7402 34850,7426 34846,7451L34839,7497L34922,7503C34968,7506 35019,7514 35035,7522C35052,7530 35085,7546 35110,7558C35169,7585 35170,7585 35170,7549C35170,7533 35175,7499 35181,7474Z"></path>
                    <path style="fill:rgb(239,153,151);fill-rule:nonzero;" d="M35104,7972C35109,7963 35113,7926 35112,7890C35111,7811 35101,7784 35060,7736C35029.4,7701.6 34974.5,7679.7 34917.6,7672.6C34857.1,7665.2 34794.2,7674.6 34756,7704C34712,7737 34679,7790 34673,7839L34668,7877L34766,7889C34805,7893.9 34847.8,7902 34889.1,7911.9C34958.1,7928.3 35023.1,7949.6 35060,7969C35092,7987 35096,7987 35104,7972Z"></path>
                    <g transform="matrix(47.8693,-1.95118e-31,-1.95118e-31,-47.8693,-2086.01,17734.2)">
                        <path style="fill:rgb(148,89,123);" d="M771.614,205.998C771.614,205.998 769.418,206.706 769.147,209.835C769.124,209.838 768.138,208.649 767.671,207.46C767.351,206.645 767.488,205.685 767.488,205.685L771.005,205.216L771.614,205.998Z"></path>
                    </g>
                    <g transform="matrix(47.8693,-1.95118e-31,-1.95118e-31,-47.8693,-2086.01,17734.2)">
                        <path style="fill:white;" d="M767.678,206.498C767.678,206.498 773.278,207.354 777.169,204.258C777.194,204.179 776.833,203.152 776.833,203.152C776.833,203.152 774.196,204.827 772.841,205.055C771.486,205.283 767.698,205.688 767.698,205.688L767.678,206.498Z"></path>
                    </g>
                    <path style="fill:rgb(255,222,222);fill-rule:nonzero;" d="M34729,7328L34668,7281C34634,7256 34599,7229 34589,7222C34565,7204 34558,7209 34488,7303C34419,7396 34421,7402 34525,7397C34568,7395 34606,7385 34657,7361L34729,7328Z"></path>
                    <g transform="matrix(47.8693,-1.95118e-31,-1.95118e-31,-47.8693,-2086.01,17734.2)">
                        <path style="fill:rgb(254,193,191);" d="M725.564,256.285C725.564,256.285 736.112,260.274 736.203,274.575C736.075,274.358 742.802,275.273 742.802,275.273L737.505,265.774L741.545,264.14L738.723,258.552L734.193,259.765L727.645,256.285L725.564,256.285ZM726.3,273.356C726.3,273.356 735.246,273.557 737.505,278.976C737.558,279.305 742.219,277.854 742.219,277.854L740.291,275.273L730.804,274.087L726.3,273.356ZM724.129,304.599C724.129,304.599 724.823,301.946 723.71,296.83C723.334,295.102 722.031,290.192 721.143,288.45C721.21,288.41 722.755,289.838 724.129,292.573C725.547,295.393 726.817,299.567 728.408,302.521C730.396,306.216 732.072,308.379 732.072,308.379C732.072,308.379 729.444,310.453 729.196,310.421C728.948,310.39 724.418,304.75 724.129,304.599ZM677.591,282.239C677.591,282.239 685.645,282.363 687.049,289.638C687.056,289.852 684.584,291.941 684.584,291.941C684.584,291.941 680.74,284.797 676.616,283.684C676.574,283.71 677.591,282.239 677.591,282.239ZM773.79,237.885C773.79,237.885 777.65,234.79 783.104,236.595C783.045,236.604 783.104,235.6 783.104,235.6C783.104,235.6 777.607,233.821 775.815,234.468C775.514,234.698 773.79,237.885 773.79,237.885ZM770.449,223.795C770.449,223.795 774.596,224.455 778.022,224.197C778.143,224.188 777.729,225.411 777.849,225.4C778.266,225.359 778.669,225.344 779.049,225.27C779.126,225.256 779.736,223.967 779.811,223.95C780.41,223.82 780.945,223.641 781.376,223.401C781.297,223.423 781.045,223.811 780.836,225.077C780.74,225.204 775.327,226.309 770.449,223.795ZM771.032,214.439C771.032,214.439 776.117,216.6 779.049,215.332C778.969,215.404 778.723,211.52 778.723,211.52C778.723,211.52 773.296,213.811 772.555,213.594C771.813,213.377 770.449,213.594 770.449,213.594L771.032,214.439ZM752.779,219.882C752.779,219.882 748.827,222.732 740.291,221.789C740.012,221.82 740.29,223.231 739.592,223.401C738.894,223.572 754.845,224.307 756.056,224.197C756.202,224.24 752.779,219.882 752.779,219.882ZM722.164,223.95C722.164,223.95 730.007,226.221 735.048,225.077C735.119,225.207 723.881,229.036 723.71,229.085C723.538,229.135 719.023,226.135 719.023,226.135L722.164,223.95ZM740.835,251.444C740.835,251.444 739.84,256.743 735.779,259.279C735.779,259.491 739.563,258.334 742.802,255.595C743.358,255.663 747.05,249.826 746.577,249.479C746.105,249.132 743.468,248.459 743.468,248.459L741.545,250.533L740.835,251.444ZM708.312,227.736C708.312,227.736 704.309,235.705 705.622,239.946C705.631,239.989 701.48,238.455 702.205,237.327C702.93,236.2 702.811,235.6 702.811,235.6L702.811,234.968C702.282,234.156 704.029,234.309 704.364,233.616L704.364,231.577L704.977,230.443L706.356,229.732L705.622,228.588L706.663,227.128L708.312,227.736ZM761.491,203.294C761.491,203.294 764.93,200.209 765.001,196.386C765.014,196.494 770.029,201.991 781.376,198.18C781.44,197.876 781.178,197.096 781.178,197.096L778.213,198.393L774.587,198.393L772.829,199.306L771.672,198.18L769.812,198.649L767.684,197.096L764.506,195.723L763.321,199.676L761.491,202.378L761.491,203.294ZM781.178,199.045C781.178,199.045 779.187,203.159 780.836,209.083C780.942,209.168 781.54,208.286 781.54,208.286L781.376,206.435C781.376,206.435 781.366,204.506 781.178,204.383C780.99,204.261 781.178,199.045 781.178,199.045Z"></path>
                    </g>
                    <g transform="matrix(43.889,5.79694,5.36829,-40.6437,-149.931,11782.2)">
                        <ellipse style="fill:rgb(253,143,171);" ry="2.273" rx="2.23" cy="204.203" cx="780.74"></ellipse>
                    </g>
                    <g transform="matrix(43.6816,4.05949,3.95582,-42.5661,-418.248,13382.2)">
                        <ellipse style="fill:rgb(253,143,171);" ry="2.273" rx="2.23" cy="204.203" cx="780.74"></ellipse>
                    </g>
                </g>
            </g>
            <g transform="matrix(1.00437,-1.15555e-35,-1.15555e-35,1.00153,-100.041,51.0468)">
                <path style="fill:rgb(84,87,250);fill-rule:nonzero;" d="M36550,9410C36569,9326 36571,9294 36567,9135C36560,8864 36517,8693 36422,8553C36377,8486 36272,8387 36190,8333C36160,8313 36124,8289 36110,8280C36096,8271 36060,8255 36030,8244C35959,8219 35787,8219 35721,8244C35697,8253 35675,8258 35672,8255C35669,8252 35675,8232 35685,8210C35712,8151 35710,7986 35682,7908C35655,7833 35610,7768 35567,7745C35533,7727 35532,7724 35528,7661C35525,7625 35515,7577 35505,7555C35486,7514 35484,7506 35482,7479C35479,7455 35427,7436 35402,7449C35372,7465 35367,7494 35385,7530C35400,7559 35405,7561 35434,7556C35466,7550 35467,7551 35483,7601C35501,7656 35504,7688 35492,7706C35488,7712 35452,7720 35412,7724L35339,7731L35277,7666C35234,7620 35214,7591 35212,7570C35206,7518 35220,7463 35246,7435C35259,7421 35270,7397 35270,7382C35270,7318 35333,7275 35457,7254C35634,7224 35684,7192 35715,7089C35732,7028 35723,6944 35689,6857C35653,6765 35516,6508 35486,6476C35470,6459 35433,6406 35403,6358C35300,6191 35149,5991 34995,5815C34956,5771 34919,5722 34912,5706C34905,5690 34872,5640 34840,5595C34773,5502 34740,5428 34740,5370C34740,5347 34735,5330 34729,5330C34723,5330 34721,5323 34724,5314C34726.5,5306.6 34734.9,5250.6 34743.9,5180.7L34717.6,5177.4C34715.9,5190.4 34714.7,5198.3 34714,5199C34709.4,5204.3 34704.2,5175.8 34690.4,5057.2L34661.1,5061.4C34664.5,5091 34667.9,5123.9 34671,5155C34677,5227 34684,5289 34687,5293C34690,5297 34694,5339 34697,5385L34702,5469L34659,5514C34611,5566 34619,5565 34440,5544C34377,5537 34253,5526 34165,5521C34077,5515 33889,5493 33747,5470C33605,5448 33474,5430 33455,5430C33421,5430 33286,5365 33294,5352C33295.4,5349.1 33320.1,5304.9 33354.7,5243.5L33330,5229C33296,5290 33265,5340 33260,5340C33233,5340 33177,5303 33125,5251C33064,5188 33027,5170 32960,5170C32954,5170 32946.3,5171.2 32937.4,5173.5L32937.6,5202.1C32942.1,5202 32947.9,5202 32955,5202C33012,5201 33060,5221 33088,5258L33113,5290L33096,5290L33096,5320C33144,5320 33279,5384 33399,5464C33452,5499 33519,5539 33548,5554L33600,5580L33737,5569C34019,5546 34399,5566 34699,5621L34763,5633L34894,5764C34992,5862 35057,5939 35151,6070C35345,6339 35412,6443 35398,6451C35391,6455 35353,6465 35313,6474C35273,6483 35198,6490 35146,6490L35052,6490L35017,6428C34998,6393 34970,6340 34955,6310C34929,6258 34799,6060 34710,5938L34669,5881L34700,5865C34743,5843 34733,5837 34672,5851C34594,5867 34403,5857 34140,5823C33864,5786 33614,5772 33580,5790C33567,5797 33545,5806 33529,5810C33505,5817 33499,5814 33477,5781C33464,5761 33436,5736 33416,5725C33390,5711 33380,5700 33384,5688C33386,5678 33384,5670 33380,5670C33376,5670 33305,5714 33223,5769C33059,5878.7 32966.4,5930 32917,5938.7L32920.9,5966.6C32934.6,5964.6 32949.5,5960.4 32965,5954C32985,5946 33003,5940 33005,5942C33016,5957 33110,6124 33110,6129C33110,6150 32530,6593 32373,6692C32323,6724 32280,6750 32278,6750C32276,6750 32247,6713 32213,6668C32164,6602 32154,6582 32161,6567C32176,6540 32163,6513 32130,6502C32115,6496 32100,6494 32097,6496C32095,6498 32088,6495 32082,6487C32074,6477 32070.7,6479.74 32112.7,6446.74C32161.7,6408.74 32161.5,6395.55 32158.5,6366.55C32123.6,6325.04 32101.8,6317.82 32049.9,6340.1L31974.5,6378.62L32029,6329C32053,6307 32059.9,6288.95 32054.3,6275.82C32046.9,6258.32 32034.2,6245.32 32011,6245.4L32011.8,6270.8C32026.6,6270.8 32030,6274.8 32030,6284C32030,6303 31930,6378 31816,6446C31771,6472 31723,6501 31708,6512C31693,6522 31679.5,6530.24 31675.5,6529.24C31671.5,6529.24 31650,6525 31631,6523C31625.8,6522.4 31611,6519.16 31616.4,6520.5L31611.1,6540.9C31618.5,6542.7 31618.5,6547.5 31614,6558C31600,6588 31605,6655 31623,6684C31633,6699 31657,6718 31676,6726C31695,6734 31710,6745 31710,6751C31710,6764.71 31681,6770.87 31693.9,6811.58C31700.2,6831.49 31722.5,6859.02 31740.7,6863.22C31755.7,6871.22 31800,6857 31803,6854C31806,6851 31826,6875 31849,6908C31910,6994 32012,7060 32084,7060C32133,7059 32209,7028 32279,6981C32322,6951 32345,6941 32348,6949C32356,6973 32532,7080 32686,7155C32844,7232 33105,7340 33175,7359C33197,7364 33287,7372 33375,7375C33463,7378 33628,7388 33743,7397C33857,7405 33963,7410 33978,7407C33993,7404 34075,7408 34160,7415C34245,7422 34371,7431 34440,7435C34581,7442 34620,7434 34723,7374C34755,7355 34787,7340 34794,7340C34815,7340 34819,7388 34803,7445C34788,7496 34787,7497 34737,7510C34708,7517 34665,7533 34640,7545C34594,7568 34588,7568 34525,7538C34476,7516 34405,7534 34318,7593C34215,7662 34140,7808 34140,7939C34140,8021 34163,8073 34224,8135C34265,8175 34270,8186 34269,8223C34269,8259 34267,8263 34257,8246C34102,8002 33753,7818 33558,7876C33494.6,7895.1 33448.1,7909.9 33411.2,7923L33419.1,7944.5C33443.4,7935.6 33469.9,7927.5 33499,7920C33638,7883 33748,7898 33893,7971C34003,8026 34054,8063 34128,8138C34201,8211 34204,8237 34132,8168C34068,8107 34028,8079 33942,8035C33859,7993 33736,7960 33670,7961L33625,7962L33680,7972C33710,7977 33745,7983 33758,7985C33770,7987 33799,7998 33823,8009C33847,8021 33870,8030 33875,8030C33897,8030 34024,8116 34106,8187C34212,8277 34274,8351 34289,8406C34300,8444.8 34298.8,8455.9 34285.6,8438.5L34260.1,8450.5C34268.5,8460.4 34276.4,8469.5 34283,8477C34325,8523 34330,8551 34293,8525C34281.6,8517.1 34248.8,8481.7 34214.7,8442.1L34189.6,8456.6C34191.4,8458.7 34193.2,8460.9 34195,8463C34224,8498 34260,8536 34275,8548C34301,8569 34301,8571 34291,8620C34275.4,8694.1 34278,8813.7 34293.3,8876.2L34314.2,8873.4C34305.2,8830.2 34317.8,8672 34339,8597L34358,8529L34335,8441C34313,8358 34290,8158 34304,8171C34307,8174 34319,8227 34330,8289C34355,8424 34381,8480 34458,8558C34520,8622 34577,8650 34705,8677C34791,8695 34952,8689 35026,8666C35153,8625 35219,8562 35299,8405L35343,8318L35364,8339C35386,8362 35388,8355 35339,8470C35326,8500 35311,8528 35306,8531C35301,8535 35300,8548 35303,8561C35306,8574 35318,8621 35329,8665C35350.2,8747.2 35362.8,8842 35358.6,8888.4L35387.8,8890.9C35389.9,8865.6 35389.3,8831.7 35387,8786L35382,8673L35435,8667C35494,8661 35554,8633 35666,8560C35755,8502 35793,8493 35875,8509C35932.7,8520.8 35980.5,8538.8 36021.5,8565.6L36030.1,8552.2C36011.5,8540 35991.5,8528.7 35970,8518C35906,8486 35884,8480 35825,8479C35748,8477 35723,8486 35640,8546C35572,8595 35492,8627 35430,8631C35386,8634 35375,8632 35375,8620C35375,8610 35389,8603 35422,8600C35456,8596 35490,8580 35555,8536C35603,8504 35674,8466 35714,8453C35812,8419 35867,8425 35987,8485C36061,8521 36095,8547 36160,8612C36165.6,8617.5 36171.3,8623.1 36176.9,8628.8L36198.5,8615.9C36187.7,8606.4 36174.2,8593.8 36158,8578C36090,8512 36030,8472 35940,8435C35855.5,8399.3 35804.5,8383.8 35754,8383.8C35730.9,8383.8 35708,8387.1 35682,8393C35612,8409 35531,8444 35479,8481C35457,8497 35451,8497 35447,8486C35441,8471 35569,8358 35611,8341C35624,8336 35658,8322 35687,8311C35785,8271 35923,8286 36050,8350C36183,8418 36264,8527 36364,8776C36366.5,8782.1 36368.9,8788.1 36371.3,8794.3L36383.5,8789.5C36322.2,8633.3 36268.4,8518.9 36246,8501C36237,8493 36230,8482 36230,8476C36230,8454 36125,8362 36060,8327C35990,8289 35938,8272 35850,8259C35812,8254 35828,8253 35905,8256C36012,8261 36017,8263 36095,8305C36139,8329 36193,8363 36215,8381C36263,8421 36380,8542 36380,8552C36380,8557 36395,8581 36414,8607C36509,8742 36574,9132 36537,9345C36518,9448 36474,9598 36436,9684C36422,9716 36410,9749 36410,9756C36410,9764 36382,9815 36348,9869C36278,9979 36136,10139 36051,10204C36017.3,10229.7 35975.8,10257.3 35948.6,10273.2L35956.8,10287.1C35992.5,10265.9 36024.8,10245.2 36048,10228C36131,10167 36290,10004 36342,9924C36436,9782 36505,9612 36550,9410ZM35625,8425C35658,8411 35760,8395 35760,8403C35760,8406 35736,8416 35708,8425C35679,8435 35628,8461 35596,8483C35563,8505 35514,8533 35486,8546C35458,8559 35427,8570 35418,8570C35393,8570 35407,8543 35435,8536C35448,8533 35489,8509 35527,8484C35564,8458 35608,8432 35625,8425ZM35690,6968L35690,7005C35690,7053 35647,7132 35603,7166C35556,7202 35522,7209 35475,7195C35413,7177 35377,7155 35337,7111C35301,7071 35245,6972 35253,6963C35256,6961 35287,6964 35321,6971C35393,6984 35582,6987 35648,6976L35690,6968ZM35672,6913C35675,6932 35669,6935 35620,6943C35554,6953 35377,6946 35222,6926C35119,6913 35102,6914 35017,6930C34898,6954 34746,7008 34660,7059C34623,7081 34568,7126 34538,7159C34488,7213 34385,7349 34378,7372C34373,7385 34314,7388 34210,7380C34158,7376 34069,7372 34013,7371C33956,7371 33910,7368 33910,7365C33910,7350 33964,7257 34007,7198C34144,7010 34151,7002 34205,6990C34323,6964 34342,6956 34377,6921C34410,6887 34412,6886 34423,6904C34430,6915 34450,6940 34468,6959C34507,7003 34501,6983 34441,6875C34399,6801 34397,6792 34401,6736C34403,6702 34405,6621 34404,6555C34404,6419 34393,6382 34313,6257C34289,6220 34270,6185 34270,6179C34270,6163 34170,6036 34149,6026C34120,6012 34125,6006 34188,5980C34219,5967 34265,5944 34289,5928C34316,5910 34346,5899 34364,5899C34381,5900 34448,5901 34513,5903L34632,5905L34661,5940C34692,5977 34840,6187 34840,6195C34840,6197 34866,6241 34898,6292C34930,6343 34994,6458 35041,6547C35087,6637 35126,6706 35128,6701C35130,6694 35099,6603 35076,6549C35070,6535 35083,6532 35182,6527C35249,6524 35324,6513 35365,6501C35403,6490 35435,6482 35435,6483C35435,6484 35449,6503 35466,6525C35526,6605 35665,6866 35672,6913ZM35623,7848C35693,7977 35697,8122 35632,8250C35590,8335 35554,8363 35506,8349C35426,8326 35400,8263 35393,8071C35388,7938 35389,7916 35409,7852C35435,7767 35466,7735 35508,7751C35563,7772 35597,7801 35623,7848ZM35483,8386C35486,8389 35484,8401 35477,8411C35461,8437 35452,8435 35458,8405C35462,8380 35471,8374 35483,8386ZM35411,7479C35431,7467 35445,7474 35445,7496C35445,7506 35437,7516 35427,7518C35405,7522 35392,7491 35411,7479ZM35420,8385L35414,8415C35406,8450 35404,8454 35397,8443C35394,8438 35398,8424 35406,8410L35420,8385ZM35391,7774C35416,7752 35415,7769 35390,7817C35378,7841 35366,7894 35359,7959C35358,7968.3 35357.1,7977.4 35356.4,7986.5C35347.9,8091.5 35359.8,8181.5 35392,8268C35403,8297 35410,8324 35407,8326C35400,8333 35351,8249 35339,8208C35318.1,8140.7 35312.9,8055.9 35320.3,7978.1C35328.8,7888.3 35354,7807.8 35391,7774ZM35378,7197C35408,7220 35416,7230 35403,7230C35344,7229 35225,7115 35179,7015C35164,6982 35154,6953 35155,6951C35157,6949 35170,6950 35184,6954C35201,6958 35216,6976 35233,7013C35266,7081 35325,7156 35378,7197ZM35378,8480C35381,8487 35375,8499 35365,8508C35350,8524 35349,8523 35361,8496C35368,8481 35376,8473 35378,8480ZM35313,7221C35335,7237 35348,7250 35342,7250C35336,7250 35312,7265 35288,7283L35245,7316L35190,7288C35160,7272 35106,7255 35070,7249C35012,7239 34995,7240 34927,7259C34882,7272 34840,7278 34827,7274C34791,7263 34704,7192 34675,7149C34659,7128 34649,7108 34651,7106C34667,7091 34809,7027 34875,7005C34945,6981 35110,6945 35115,6952C35116,6954 35132,6986 35151,7023C35189,7099 35255,7179 35313,7221ZM35295,8180C35303,8227 35310,8265 35310,8266C35310,8266 35278.4,8256.3 35238.1,8243.6L35229.1,8271.5C35232.8,8272.6 35236.4,8273.8 35240,8275C35269,8285 35290,8298 35290,8306C35290,8322 35289,8322 35230,8304C35205,8296 35146,8286 35098,8283C35042,8279 35009,8273 35006,8265L34984,8275.5C34994,8290.2 35004.2,8306.2 35014,8323C35035.4,8360.1 35043.1,8392.7 35035.5,8400.6L35034.4,8429.3C35049.1,8430.6 35062.2,8425.9 35066,8415C35073,8397 35155,8395 35211,8411C35246,8422 35248,8424 35236,8442C35223,8459 35207,8462 35084,8464C35021.1,8465.5 34965,8470.4 34912.6,8479.3C34826.7,8493.8 34750.9,8519.2 34672,8559C34627,8582 34585,8600 34578,8600C34571,8600 34552,8591 34536,8581L34507,8562L34508.8,8561.1L34499.6,8542.7C34483.7,8552.7 34481.3,8549.8 34475,8540C34464.1,8522.6 34488.4,8494.9 34537.4,8464.1L34513.6,8451.1C34485.7,8468.2 34466.4,8480 34465,8480C34464,8480 34460,8438 34457,8387C34450,8277 34430,8216 34388,8173C34363,8147 34359,8137 34365,8113L34372,8085L34387.7,8071.4C34357.3,8040.4 34364.5,8026.8 34411,7883C34474,7690 34572,7592 34746,7549C34832,7528 34883,7525 34961,7540C35099,7566 35248,7657 35291,7742C35312,7783 35312,7786 35296,7857C35276,7949 35276,8070 35295,8180ZM35268,8373C35272,8391 35260,8393 35220,8380C35206,8376 35165,8372 35129,8371C35069,8370 35062,8368 35052,8345C35045,8331 35040,8316 35040,8313C35040,8310 35073,8310 35113,8313C35194,8319 35263,8345 35268,8373ZM35240,7387C35240,7410 35226,7418 35215,7401C35212,7396 35188,7379 35162,7364C35100,7329 34985,7319 34909,7344C34881,7354 34855,7358 34852,7355C34822,7325 34975,7265 35060,7275C35150,7284 35240,7341 35240,7387ZM35186,8502C35203,8520 35166,8540 35116,8540C35031,8541 34860,8575 34777,8609C34734,8626 34695,8640 34692,8639C34688,8639 34669,8633 34650,8628L34615,8617L34690,8583C34805,8529 34945,8498 35072,8496C35130,8496 35182,8498 35186,8502ZM35179,7416C35190,7426 35191,7437 35181,7474C35175,7499 35170,7533 35170,7549C35170,7585 35169,7585 35110,7558C35085,7546 35052,7530 35035,7522C35019,7514 34968,7506 34922,7503L34839,7497L34846,7451C34850,7426 34854,7402 34856,7398C34864,7385 34958,7359 35003,7358C35049,7357 35152,7391 35179,7416ZM35085,8570C35132,8571 35134,8572 35115,8586C35104,8594 35059,8612 35015,8625C34931,8650 34845,8661 34795,8653L34765,8648L34800,8633C34859,8608 35032,8570 35085,8570ZM34795,7292C34800,7296 34793,7300 34779,7300C34755,7300 34664,7250 34607,7205L34581,7185L34621,7137L34635,7157C34643,7169 34680,7202 34717,7231C34755,7260 34789,7287 34795,7292ZM34764,5565C34785,5590 34798,5609 34793,5609C34789,5608 34759,5598 34727,5587L34669,5567L34691,5544C34703,5531 34717,5520 34721,5520C34724,5520 34744,5540 34764,5565ZM34668,7281L34729,7328L34657,7361C34606,7385 34568,7395 34525,7397C34421,7402 34419,7396 34488,7303C34558,7209 34565,7204 34589,7222C34599,7229 34634,7256 34668,7281ZM34563,7590L34508,7648C34477,7680 34438,7735 34420,7770C34402,7805 34371,7899 34351,7978C34316,8114 34313,8121 34297,8106C34253,8062 34293,7864 34371,7734C34420,7654 34491,7590 34531,7590L34563,7590ZM34426,8383C34430,8425 34430,8460 34427,8460C34409,8460 34341,8205 34356,8191C34366,8181 34399,8229 34410,8268C34415,8288 34423,8340 34426,8383ZM34413,7597C34416,7599 34395,7636 34366,7679C34278,7808 34221,8001 34248,8079C34262,8118 34256,8118 34220,8080C34175,8032 34158,7930 34181,7845C34198,7783 34276,7665 34318,7638C34365,7608 34406,7590 34413,7597ZM34364,6801C34375,6833 34374,6840 34354,6870C34314,6928 34172,6972 33965,6989C33899,6995 33715,7002 33555,7005C33244,7010 33251,7011 33144,6957C33117,6943 32984,6895 32850,6850C32715,6805 32604,6767 32603,6766C32600,6763 32725,6664 32885,6543C33185,6314 33455,6068 33496,5984C33518,5939 33526,5931 33544,5935C33565,5940 33853,5973 33981,5985C34039,5991 34053,5996 34100,6035C34132,6061 34179,6118 34220,6179C34343,6364 34382,6481 34361,6603C34347,6685 34348,6756 34364,6801ZM34247,5880C34272,5880 34260,5897 34223,5914C34167,5939 34090,5955 34045,5952C34023,5951 33906,5934 33785,5914C33500,5869 33473,5858 33570,5827C33613,5813 33640,5812 33758,5820C33833,5826 33971,5841 34064,5855C34158,5869 34240,5880 34247,5880ZM34070,7035C34070,7037 34047,7065 34019,7097C33965,7159 33898,7264 33879,7318L33868,7350L33762,7349C33703,7348 33581,7343 33491,7339C33167,7323 33129,7312 32710,7120C32584,7063 32339,6920 32366,6920C32371,6920 32417,6889 32469,6851C32555,6787 32564,6782 32584,6795C32616,6816 32786,6877 32934,6922C33012,6945 33118,6987 33196,7026C33332,7093 33353,7099 33375,7077C33396,7056 33565,7041 33828,7036C33961,7034 34070,7033 34070,7035ZM33486,5461C33523,5462 33825,5518 33800,5519C33601,5528 33582,5527 33535,5504C33477,5476 33458,5460 33486,5461ZM33459,5829C33472,5878 33472,5883 33456,5892C33440,5901 33440,5902 33456,5914C33472,5926 33470,5932 33440,5989C33422,6023 33399,6055 33389,6061C33379,6066 33350,6088 33325,6110C33278,6151 33273,6152 33188,6143L33151,6139L33262,6035C33323,5978 33380,5916 33387,5898C33397,5876 33399,5848 33395,5813L33389,5761L33417,5769C33440,5775 33447,5785 33459,5829ZM33349,5782C33365,5834 33366,5863 33352,5896C33345,5913 33294,5968 33240,6018L33141,6110L33117,6068C33031,5916 33033,5927 33085,5898C33096,5892 33148,5859 33200,5825C33324,5743 33335,5740 33349,5782ZM33185,6165C33213,6171 33234,6180 33234,6184C33232,6194 33110,6309 33110,6301C33110,6298 33100,6307 33087,6322C33048,6368 32756,6600 32737,6600C32734,6600 32671,6645 32598,6700C32525,6755 32456,6799 32445,6799C32434,6798 32399,6793 32367,6786L32308,6775L32431,6690C32598,6575 32831,6400 32910,6330C32946,6299 32985,6268 32997,6261C33009,6255 33045,6228 33077,6202L33135,6154L33185,6165ZM32415,6832C32421,6837 32243,6954 32183,6984C32121,7015 32080,7016 32007,6988L31980,6978L32052,6932C32092,6908 32158,6868 32199,6844L32272,6800L32342,6814C32380,6822 32413,6830 32415,6832ZM32195,6698L32249,6768L32133,6846C31991,6940 31947,6951 31903,6903C31887,6886 31870.1,6867.09 31856.7,6850.05L31841.6,6825.98L31934,6757C31980,6727 32043,6681 32075,6654C32107,6628 32135,6611 32137,6617C32139,6623 32165,6659 32195,6698ZM32138.9,6378.25C32137.4,6390.37 32133.8,6391.73 32113.8,6412.73C32089.8,6437.73 31999,6494 31839,6601C31792,6632 31750,6665 31747,6673C31744,6681 31750,6696 31760,6705C31778,6722 31785,6719 31902,6650C32104,6530 32117,6523 32132,6538C32151,6557 32077,6626 31930,6727C31861,6774 31805.8,6825.03 31799.8,6828.03C31790.3,6832.79 31762.6,6844.49 31749.8,6840.48C31735.1,6835.83 31714,6807.86 31713.1,6794.46C31712.4,6782.39 31742.4,6753.63 31738.8,6738.94C31734.8,6721.94 31737.2,6718.5 31731.8,6712C31726.2,6705.5 31719,6703 31708,6702C31693,6700 31671,6687 31660,6673C31638,6644 31633,6590 31653,6590C31660,6590 31711,6562 31765,6529C31879,6459 32077,6343.89 32096,6343.91C32119,6343.95 32140.4,6366.48 32138.9,6378.25ZM32046,6504C32054,6507 32059,6514 32056,6519C32052,6524 31997,6560 31932,6599C31868,6637 31807,6672 31798,6675C31762,6689 31781,6669 31838,6633C31869,6613 31925,6575 31963,6548C32004,6517 32036,6500 32046,6504Z"></path>
                <g transform="matrix(47.8693,-1.95118e-31,-1.95118e-31,-47.8693,-2086.01,17734.2)">
                    <path style="fill:rgb(84,87,250);fill-rule:nonzero;" d="M759.713,268.883C763.881,263.446 767.269,259.174 767.485,259.147C768.091,259.084 766.42,261.57 764.289,263.931C763.83,264.453 762.722,265.769 761.824,266.855C760.947,267.942 760.111,268.945 759.986,269.091C759.959,269.118 759.888,269.208 759.783,269.35C759.407,269.855 758.586,271.008 757.688,272.266C756.56,273.895 754.742,276.465 753.656,277.99C752.57,279.515 751.295,281.312 750.815,282.001L749.938,283.254L751.212,283.756C751.901,284.027 754.011,284.926 755.85,285.761L759.234,287.244L759.652,285.886C759.902,285.134 760.153,284.278 760.216,283.985C760.278,283.693 760.425,283.275 760.529,283.045C760.717,282.586 762.681,275.922 763.558,272.705C764.059,270.866 766.169,264.892 766.274,265.017C766.378,265.142 764.958,270.595 764.122,273.331C762.722,277.927 760.738,284.967 760.738,285.364C760.738,285.657 760.905,285.698 762.054,285.573C764.979,285.26 765.334,285.176 765.334,284.905C765.334,284.236 767.235,267.503 767.402,266.542C767.473,266.212 767.563,265.533 767.655,264.737L768.267,264.825C768.179,265.59 768.072,266.534 767.945,267.691C767.653,270.386 767.235,273.916 767.005,275.525C766.796,277.133 766.545,279.473 766.483,280.747C766.399,282.001 766.295,283.213 766.232,283.442C766.148,283.777 766.211,283.818 766.712,283.693C767.924,283.401 770.87,282.44 771.058,282.293C771.162,282.189 771.141,281.186 770.995,279.87C770.87,278.638 770.619,276.256 770.431,274.585C770.264,272.914 769.95,270.658 769.721,269.571C769.512,268.485 769.219,266.312 769.073,264.766C768.992,263.751 768.9,262.836 768.835,262.314L769.384,262.245C769.426,262.573 769.47,262.914 769.512,263.262C769.742,265.184 770.076,267.315 770.243,268.004C770.41,268.694 770.702,270.574 770.87,272.182C771.058,273.791 771.434,276.507 771.705,278.241C772.457,282.753 772.478,282.586 771.037,283.108C770.368,283.338 769.01,283.777 768.029,284.069C766.274,284.591 766.211,284.633 766.086,285.322C765.919,286.158 765.689,286.221 762.493,286.43L760.362,286.555L760.132,287.349C759.819,288.372 759.505,288.393 757.646,287.453C755.912,286.576 749.812,283.985 749.478,283.985C749.353,283.985 749.248,284.048 749.248,284.132C749.248,284.236 748.956,284.591 748.622,284.967L747.995,285.636L747.055,285.009C746.553,284.675 744.506,283.63 742.522,282.711C738.678,280.935 737.968,280.539 737.968,280.225C737.968,279.849 738.532,280.016 740.809,281.082C742.062,281.667 743.963,282.565 745.008,283.066L746.95,283.965L745.39,281.665L745.902,281.318C745.958,281.399 746.014,281.481 746.073,281.562C747.076,283.004 747.953,284.153 748.037,284.132C748.162,284.09 750.564,281.019 752.549,278.366C754.841,275.285 757.283,272.055 759.514,269.143L759.713,268.883ZM768.488,202.848L768.906,203.287L767.297,204.519C764.979,206.295 765.146,206.211 764.916,205.856C764.707,205.522 765.313,204.832 766.671,203.851L767.297,203.391L765.731,203.245C764.08,203.078 763.433,202.806 763.913,202.472C764.059,202.367 765.062,202.326 766.128,202.347C767.736,202.409 768.133,202.493 768.488,202.848ZM770.749,195.444C770.928,195.095 770.663,194.944 768.342,194.053C766.9,193.51 765.355,192.779 764.895,192.445C764.619,192.244 764.423,192.102 764.281,192.012L764.473,191.628L765.48,192.131C766.504,192.653 769.762,193.97 770.744,194.262C771.058,194.366 771.475,194.283 771.914,194.032C772.273,193.838 772.591,193.767 772.829,193.802C773.105,193.844 773.272,194.032 773.272,194.346C773.272,194.931 774.212,195.16 774.713,194.701C774.922,194.513 775.2,194.404 775.453,194.381L775.476,194.981C775.413,194.914 775.298,194.931 775.131,195.056C774.958,195.194 774.588,195.691 774.193,196.282C773.688,197.045 773.14,197.964 772.917,198.482C772.687,199.067 772.687,199.171 772.917,199.171C773.168,199.171 773.771,198.513 774.4,197.594L774.86,197.813C774.617,198.438 777.375,198.344 779.52,197.678L779.708,198.26C779.654,198.279 779.598,198.296 779.539,198.315C778.62,198.628 777.868,198.962 777.868,199.088C777.868,199.213 777.304,199.714 776.614,200.195C774.86,201.427 774.86,201.511 776.656,201.344C777.889,201.239 778.244,201.281 778.453,201.511C778.954,202.138 778.181,202.409 775.758,202.472C773.732,202.535 773.502,202.514 773.439,202.159C773.335,201.741 773.899,201.135 775.528,199.902L776.635,199.067L775.424,198.962C774.358,198.858 774.149,198.921 773.648,199.338C772.98,199.944 772.395,199.861 772.227,199.171C772.081,198.503 771.308,198.377 770.41,198.858C770.295,198.921 770.184,198.973 770.078,199.01L769.888,198.528C770.255,198.528 771.523,196.949 772.184,195.777C772.367,195.446 772.505,195.152 772.562,194.931C772.687,194.366 772.541,194.241 772.081,194.534C771.91,194.644 771.622,195.012 771.308,195.482C770.554,196.614 769.648,198.34 769.825,198.503C769.842,198.519 769.863,198.528 769.888,198.528L770.078,199.01C769.451,199.24 769.015,199.046 769.157,198.545C769.24,198.21 769.073,198.085 768.279,197.813C767.736,197.646 766.817,197.166 766.232,196.79C765.626,196.393 765.062,196.017 764.958,195.954C764.853,195.891 764.707,196.309 764.644,196.915C764.456,198.398 763.474,200.362 762.367,201.448C762.2,201.609 762.058,201.739 761.943,201.858L761.615,201.574L762.409,200.675C763.349,199.61 763.809,198.377 764.039,196.309L764.185,194.805L765.96,195.871C766.942,196.455 768.112,197.061 768.572,197.228C769.324,197.479 769.428,197.479 769.658,197.166C770.013,196.685 769.909,196.581 768.509,196.059C767.841,195.829 766.462,195.098 765.459,194.471C765.139,194.275 764.837,194.089 764.573,193.926L765.07,193.654C765.933,194.195 767.164,194.784 768.634,195.327C770.201,195.933 770.473,195.933 770.744,195.453L770.749,195.444ZM772.666,197.876C772.896,197.521 772.896,197.291 772.666,197.291C772.562,197.291 772.353,197.249 772.186,197.187C772.039,197.124 771.81,197.249 771.663,197.479C771.455,197.834 771.475,197.897 771.956,198.022C772.311,198.106 772.562,198.043 772.666,197.876ZM773.702,196.253C773.512,196.499 773.174,196.669 772.896,196.581C772.52,196.455 772.478,196.372 772.687,195.912C772.938,195.39 773.69,195.265 773.836,195.724C773.895,195.898 773.83,196.092 773.702,196.253ZM791.358,159.28L791.461,158.981C792.376,159.302 793.293,159.714 794.288,160.232C796.836,161.548 798.57,162.822 800.492,164.807C801.704,166.039 802.038,166.311 801.85,165.851C800.471,162.697 798.131,159.751 794.872,157.14C790.924,153.965 788.814,153.004 785.179,152.67C783.863,152.544 783.717,152.482 784.239,152.335C785.033,152.126 787.916,152.482 789.545,152.983C790.559,153.296 792.867,154.468 794.722,155.571L794.551,155.862C794.191,155.651 793.953,155.538 793.953,155.594C793.953,155.657 794.81,156.367 795.833,157.182C796.878,157.997 797.714,158.749 797.714,158.811C797.714,158.895 798.278,159.543 798.946,160.253C800.199,161.548 801.536,163.637 802.33,165.475C802.56,166.018 802.936,166.833 803.166,167.272C804.273,169.444 805.213,174.312 805.234,177.905C805.234,180.474 804.712,184.047 804.085,185.697C803.935,186.094 803.784,186.483 803.636,186.856L803.381,186.756C804.118,184.838 804.522,182.743 804.795,179.493C804.856,178.778 804.875,178.035 804.854,177.278C804.797,174.872 804.359,172.365 803.625,170.489C803.061,169.068 800.868,165.956 799.385,164.535C797.943,163.115 794.872,161.005 792.742,159.919C792.119,159.607 791.547,159.344 791.357,159.283C791.329,159.275 791.311,159.271 791.3,159.271C791.091,159.271 792.178,159.939 793.368,160.545C794.06,160.896 794.916,161.479 795.764,162.164L795.795,162.189C796.447,162.715 797.091,163.302 797.651,163.888C800.179,166.52 801.892,169.319 803.249,173.058C803.563,173.915 803.96,174.959 804.106,175.356C804.273,175.799 804.367,176.472 804.388,177.291C804.423,178.716 804.24,180.581 803.855,182.438C803.437,184.485 803.082,185.551 802.268,187.264C801.71,188.419 801.125,189.453 800.5,190.37C798.56,193.234 796.249,194.989 793.243,195.954C791.795,196.416 790.396,196.514 789.222,196.255C788.854,196.178 788.507,196.063 788.188,195.912C787.268,195.474 787.352,195.369 788.417,195.62C789.086,195.777 789.784,195.85 790.494,195.848C793.398,195.837 796.494,194.548 798.507,192.382C799.466,191.356 800.082,190.623 800.331,190.257L800.344,190.239C800.601,189.856 800.421,189.905 799.771,190.483L799.32,190.214C800.141,189.38 800.922,188.486 801.16,188.12C802.393,186.136 803.458,182.501 803.709,179.326C803.793,178.03 803.73,177.383 803.249,175.565C802.915,174.354 802.33,172.599 801.933,171.638C800.659,168.609 797.505,164.034 795.75,162.676C795.681,162.622 795.597,162.563 795.499,162.498L795.482,162.487C794.016,161.51 789.699,159.388 788.334,158.978C787.498,158.728 786.391,158.644 784.26,158.665C781.043,158.707 779.56,158.853 777.722,159.396C775.925,159.919 770.807,162.216 769.449,163.115C768.822,163.53 768.405,163.848 768.235,164.011L767.87,163.871C768.221,163.549 768.538,163.282 768.801,163.094C770.159,162.154 774.484,159.939 776.238,159.271C778.307,158.519 780.061,158.206 783.132,158.08C786.736,157.93 789.088,158.149 791.461,158.981L791.358,159.28ZM801.369,179.43C801.369,182.501 801.328,182.94 800.784,184.757C799.719,188.342 798.445,190.372 796.253,191.814L796.074,191.534C797.323,190.717 798.269,189.514 799.113,187.765C800.952,183.9 801.369,180.892 800.659,176.881C800.074,173.602 799.991,173.393 798.257,170.573C796.46,167.627 794.476,165.559 792.763,164.786C790.235,163.679 788.188,163.219 785.388,163.177C779.33,163.073 774.003,164.473 770.661,167.021C769.971,167.543 769.261,168.024 769.094,168.087C768.655,168.254 766.587,170.802 765.772,172.202C765.396,172.808 764.811,174.333 764.477,175.586C763.913,177.633 763.85,178.114 763.913,180.161C763.976,182.459 763.83,183.148 763.579,181.665C762.764,176.756 765.459,169.11 769.24,165.517C770.682,164.159 771.287,163.721 773.418,162.509C774.316,161.987 774.985,161.569 774.901,161.569C774.818,161.569 773.606,162.091 772.186,162.718C768.258,164.473 766.044,166.102 763.809,168.88L763.224,169.612L763.683,168.713C764.26,167.627 766.355,165.258 767.87,163.871L768.235,164.011C768.003,164.237 768.235,164.174 769.031,163.679C773.899,160.691 779.309,159.71 785.096,160.796C788.167,161.381 790.109,162.133 792.449,163.679C793.285,164.222 794.162,164.744 794.371,164.807C794.893,164.974 796.648,167.084 797.881,169.027C798.424,169.883 799.218,171.053 799.635,171.638C800.889,173.372 801.348,175.419 801.369,179.43ZM774.755,187.055L774.828,187.644C774.289,187.725 773.617,187.642 772.457,187.473C770.911,187.264 768.07,187.535 767.13,187.995C766.545,188.287 766.504,188.287 765.334,187.201C764.08,186.052 760.989,184.569 760.508,184.882C760.466,184.907 760.433,184.985 760.408,185.104L759.971,185.045C760.061,184.678 760.17,184.406 760.299,184.277C760.675,183.9 761.803,184.088 763.328,184.82C764.164,185.217 765.167,185.801 765.563,186.136C766.984,187.347 766.88,187.326 768.07,186.971C769.46,186.545 773.097,186.088 774.617,186.09L774.609,186.637C774.316,186.637 774.128,186.721 774.212,186.846C774.275,186.95 774.525,187.055 774.755,187.055ZM782.836,184.738L782.226,184.79C782.213,184.665 782.196,184.554 782.171,184.465C782.067,184.047 781.9,183.921 781.44,183.921C780.563,183.921 778.515,185.029 776.865,186.428C775.954,187.191 775.495,187.544 774.828,187.644L774.755,187.055C774.964,187.055 775.152,186.95 775.152,186.846C775.152,186.721 774.901,186.637 774.609,186.637L774.617,186.09C774.814,186.09 774.972,186.098 775.089,186.115C775.925,186.24 776.05,186.178 777.45,185.07C779.351,183.545 780.563,183.002 781.628,183.19C782.405,183.318 782.744,183.635 782.836,184.738ZM789.733,162.739C789.838,162.613 787.373,161.861 785.493,161.464C783.32,160.984 778.662,160.859 777.304,161.255C773.606,162.3 768.467,166.206 766.88,169.173L766.316,170.238L767.465,168.985C768.781,167.543 772.102,165.392 774.191,164.598C778.745,162.885 785.221,161.987 788.522,162.613C789.128,162.739 789.671,162.78 789.733,162.739ZM767.841,164.368C767.841,164.201 767.673,164.305 767.402,164.64C767.13,164.974 767.151,164.995 767.485,164.723C767.673,164.577 767.841,164.41 767.841,164.368ZM766.414,136.004C766.346,135.688 766.273,135.398 766.19,135.143C765.919,134.328 765.626,133.451 765.522,133.158L765.334,132.636L765.417,133.158C765.668,134.537 765.772,138.631 765.584,139.968C765.334,141.786 763.642,146.131 762.158,148.826C761.548,149.912 760.909,150.833 760.186,151.633L759.819,151.312C761.218,149.954 763.662,144.878 764.728,141.096C765.814,137.294 764.728,130.589 762.597,127.957C760.842,125.742 757.73,125.491 755.599,127.351C755.077,127.81 754.889,127.894 754.889,127.664C754.889,127.246 756.309,126.056 757.207,125.7C758.168,125.345 760.257,125.471 761.26,125.951C763.349,126.954 765.396,130.129 766.524,134.098C766.7,134.706 766.85,135.314 766.974,135.92L766.983,135.966C767.78,139.879 767.503,143.712 766.169,147.029C763.963,152.574 761.914,155.296 757.42,158.538L757.072,158.047C760.074,155.876 762.163,153.449 763.767,150.393C765.208,147.635 766.044,145.546 766.504,143.478C766.921,141.573 766.865,138.201 766.42,136.035L766.414,136.004Z"></path>
                </g>
                <path style="fill:rgb(84,87,250);fill-rule:nonzero;" d="M35150,7892C35150,7822 35133,7781 35083,7729C35037.8,7682 35002,7665.6 34919.9,7655.5L34917.6,7672.6C34974.5,7679.7 35029.4,7701.6 35060,7736C35101,7784 35111,7811 35112,7890C35113,7926 35109,7963 35104,7972C35096,7987 35092,7987 35060,7969C35023.1,7949.6 34958.1,7928.3 34889.1,7911.9L34884.6,7931.2C34929.6,7941.8 34972.6,7960.2 35026,7990C35064,8011 35098,8029 35101,8029C35117,8031 35150,7937 35150,7892Z"></path>
                <path style="fill:rgb(84,87,250);fill-rule:nonzero;" d="M34917.6,7672.6L34919.9,7655.5C34912.9,7654.6 34905.7,7653.8 34898,7653C34810,7645 34755,7663 34704,7714C34663,7755 34649,7788 34637,7872C34632,7906 34634,7909 34658,7914C34673,7916 34723,7919 34770,7919C34813.3,7919.4 34849.6,7922.9 34884.6,7931.2L34889.1,7911.9C34847.8,7902 34805,7893.9 34766,7889L34668,7877L34673,7839C34679,7790 34712,7737 34756,7704C34794.2,7674.6 34857.1,7665.2 34917.6,7672.6Z"></path>
                <g transform="matrix(47.8693,-1.95118e-31,-1.95118e-31,-47.8693,-2086.01,17734.2)">
                    <path style="fill:rgb(84,87,250);fill-rule:nonzero;" d="M730.591,326.833C730.763,326.631 730.859,326.439 730.865,326.267C730.865,326.142 731.324,325.139 731.888,324.032C733.225,321.442 733.413,320.731 733.121,319.52C732.996,318.997 732.766,318.392 732.599,318.204C732.432,318.016 732.348,317.765 732.411,317.66C732.557,317.41 731.763,316.574 731.387,316.574C731.22,316.574 731.074,316.407 731.074,316.177C731.074,315.676 730.635,315.321 729.883,315.195C729.57,315.154 729.152,314.903 728.985,314.652C728.504,313.942 726.06,311.561 725.809,311.561C725.659,311.561 725.663,311.214 725.786,310.696L726.269,310.725L726.875,310.725L726.875,311.352L726.624,311.352L728.003,312.396C728.901,313.086 729.591,313.441 729.987,313.441C730.948,313.441 732.599,312.48 732.954,311.728C733.163,311.268 733.434,311.017 733.789,310.976C734.082,310.934 734.395,310.767 734.479,310.6C734.73,310.14 735.419,310.244 735.774,310.808C736.046,311.205 736.067,311.519 735.92,312.333C735.753,313.336 735.753,313.378 736.338,313.712C736.944,314.046 737.09,314.652 736.693,315.049C736.547,315.195 736.672,315.3 737.111,315.383C738.469,315.655 737.968,317.159 736.484,317.284C736.087,317.326 735.44,317.514 735.022,317.723L734.27,318.078L734.124,319.812C734.019,321.358 733.873,321.818 732.849,323.928C732.171,325.31 731.665,326.259 731.182,326.955C730.478,327.972 729.831,328.444 728.776,328.941C727.209,329.672 726.958,330.132 727.836,330.529C728.922,331.03 730.781,330.842 732.536,330.048C733.434,329.651 734.249,329.317 734.374,329.317C734.688,329.317 737.069,326.706 737.842,325.494C738.076,325.116 738.444,324.517 738.807,323.917L739.263,324.009C739.116,324.247 738.97,324.5 738.824,324.763C736.714,328.586 735.21,329.965 731.659,331.323C730.489,331.761 729.987,331.845 729.152,331.761C728.045,331.615 726.332,330.759 726.123,330.236C725.956,329.777 727.042,328.753 728.128,328.335C729.24,327.93 730.157,327.351 730.591,326.833ZM734.73,317.347C735.294,317.076 735.67,316.825 735.565,316.762C735.314,316.637 733.163,317.452 733.163,317.66C733.163,317.932 733.643,317.848 734.73,317.347ZM733.685,316.783C733.998,316.783 735.941,315.947 735.837,315.864C735.482,315.571 734.604,315.655 733.936,316.031C733.205,316.47 733.1,316.783 733.685,316.783ZM737.236,316.282C737.236,315.822 736.944,315.676 736.526,315.927C736.129,316.177 736.401,316.825 736.86,316.741C737.069,316.7 737.236,316.491 737.236,316.282ZM734.103,315.237C734.333,315.07 734.458,314.903 734.395,314.903C734.333,314.903 734.228,314.966 734.145,315.028C734.082,315.091 733.434,315.383 732.703,315.655C731.951,315.927 731.596,316.135 731.868,316.135C732.411,316.156 733.497,315.718 734.103,315.237ZM734.73,314.13C735.001,313.733 735.001,313.67 734.709,313.566C734.521,313.503 734.374,313.441 734.354,313.462C734.333,313.462 733.643,313.838 732.829,314.255C731.659,314.882 731.408,315.091 731.659,315.258C732.097,315.53 734.333,314.715 734.73,314.13ZM736.192,314.59C736.192,314.067 735.607,313.942 735.252,314.381C735.064,314.61 735.043,314.778 735.189,314.924C735.544,315.279 736.192,315.049 736.192,314.59ZM732.933,313.482C733.769,312.793 733.56,312.438 732.703,313.065C732.39,313.274 731.638,313.65 731.032,313.858C730.071,314.193 729.444,314.694 729.967,314.694C730.614,314.694 732.327,313.984 732.933,313.482ZM735.419,311.978C735.482,311.122 735.273,310.558 734.98,310.85C734.897,310.934 734.834,311.226 734.834,311.498C734.834,311.999 734.542,312.145 734.312,311.769C734.124,311.456 733.33,311.519 733.413,311.811C733.539,312.166 734.855,313.044 735.126,312.96C735.252,312.918 735.377,312.48 735.419,311.978ZM736.735,254.948C737.111,254.948 737.445,255.491 737.153,255.658C736.965,255.784 734.897,254.76 733.748,253.945C733.246,253.59 731.784,252.629 730.468,251.815C728.63,250.666 727.919,250.352 727.439,250.394C726.958,250.436 726.77,250.582 726.729,250.895C726.624,251.564 728.212,252.796 731.972,255.032C734.959,256.807 735.899,257.664 734.897,257.664C734.521,257.664 731.345,256.494 730.969,256.201C730.489,255.846 727.502,254.739 727.021,254.739C725.567,254.739 727.044,255.771 731.966,258.224L731.966,258.226L731.74,258.677C731.379,258.495 730.973,258.293 730.552,258.082C729.068,257.35 727.773,256.703 727.69,256.661C727.627,256.636 727.579,256.649 727.552,256.69L727.084,256.431L726.478,255.805C726.123,255.47 725.851,255.032 725.851,254.865C725.851,254.321 726.708,254.05 727.585,254.28C728.212,254.447 728.358,254.426 728.462,254.154C728.546,253.924 728.421,253.695 728.107,253.486C727.167,252.901 725.851,251.439 725.851,251.021C725.851,250.561 726.582,249.726 726.979,249.726C727.105,249.726 726.938,249.475 726.603,249.182C726.102,248.702 726.018,248.514 726.123,247.783C726.185,247.323 726.353,246.864 726.52,246.759C726.639,246.676 726.892,246.642 727.203,246.653L727.197,247.014C727.015,247.014 726.921,247.114 726.77,247.323C726.165,248.159 726.457,248.514 729.256,250.31C730.259,250.958 732.265,252.274 733.727,253.214C735.189,254.175 736.526,254.948 736.735,254.948ZM733.518,256.557C733.56,256.515 732.808,256.013 731.868,255.47C730.907,254.927 729.925,254.342 729.695,254.175C729.298,253.924 729.235,253.924 729.11,254.217C729.047,254.405 728.985,254.593 728.985,254.656C728.985,254.865 733.351,256.703 733.518,256.557ZM738.302,252.755C739.075,253.214 739.179,253.444 738.72,253.611C738.552,253.674 737.821,253.319 737.09,252.796C736.359,252.295 735.314,251.606 734.73,251.292C734.166,250.958 733.079,250.269 732.348,249.746C731.596,249.224 730.886,248.785 730.76,248.765C730.656,248.744 730.113,248.451 729.611,248.117C729.089,247.762 728.316,247.344 727.878,247.198C727.543,247.077 727.343,247.014 727.197,247.014L727.203,246.653C727.823,246.667 728.673,246.843 729.173,247.093C729.737,247.386 729.758,247.386 729.674,246.926C729.509,246.089 730.249,245.664 731.301,245.827L731.22,246.41C731.113,246.391 731.015,246.383 730.928,246.383C729.444,246.383 730.552,247.762 733.664,249.746C734.583,250.352 735.858,251.167 736.484,251.585C737.09,252.003 737.905,252.525 738.302,252.755ZM708.617,240.158C708.742,240.638 708.679,240.764 708.241,240.973C707.593,241.265 705.838,240.805 703.979,239.803C703.114,239.351 702.699,239.211 702.663,239.483L702.066,239.445C702.084,238.971 702.003,238.537 701.869,238.403C701.347,237.881 701.807,236.565 702.517,236.565C702.684,236.565 702.663,236.481 702.496,236.314C701.807,235.625 702.684,233.849 703.728,233.849C703.818,233.849 703.887,233.843 703.939,233.83L704.05,234.256C703.398,234.409 703.081,234.772 703.081,235.374C703.081,235.834 703.394,236.042 705.755,237.191C706.937,237.772 707.852,238.198 708.613,238.516L708.435,238.957L707.572,238.612L708.032,239.113C708.283,239.385 708.554,239.844 708.617,240.158ZM707.593,240.325C708.053,240.325 708.074,240.262 707.886,239.907C707.76,239.677 707.175,239.134 706.57,238.675C704.627,237.233 703.687,236.794 703.039,237.024C702.371,237.254 702.308,237.547 702.83,238.131C703.54,238.988 706.465,240.325 707.593,240.325ZM745.72,160.142C738.753,163.614 734.941,167.226 732.139,172.808C731.074,174.918 730.029,178.281 730.029,179.555C730.029,182.476 730.89,186.508 731.876,188.461L731.333,188.728C730.986,188.012 730.687,187.289 730.447,186.574C730.175,185.801 729.925,185.175 729.862,185.175C729.799,185.175 729.82,185.948 729.883,186.888C730.113,190.293 731.888,194.826 734.291,198.231C736.505,201.302 741.373,203.412 745.467,203.057C747.7,202.86 749.382,202.426 750.788,201.701L750.972,202.062C749.138,203.009 747.339,203.395 744.861,203.516C742.354,203.621 740.767,203.307 738.699,202.326L737.445,201.699L738.49,202.639C739.365,203.424 740.382,204.024 741.709,204.509L741.544,204.958C740.422,204.557 739.731,204.231 739.012,203.809C734.312,201.072 730.175,194.366 729.319,188.058C728.755,183.963 729.11,178.218 730.134,175.127C730.593,173.769 733.184,169.298 734.542,167.502C736.555,164.872 739.856,162.467 745.469,159.643L745.604,159.575C746.999,158.875 748.536,158.152 750.23,157.391C752.8,156.242 753.907,155.615 754.763,154.842C756.349,153.43 757.128,151.742 757.128,149.73L757.128,149.7C757.126,149.072 757.048,148.412 756.894,147.719C756.476,145.88 755.682,144.648 754.533,144.042C753.928,143.729 753.844,143.624 754.178,143.603C754.721,143.603 755.808,144.126 756.727,144.836C758.273,146.047 759.422,148.888 759.213,150.978L759.129,151.98L759.819,151.312L760.186,151.633C760.019,151.817 759.848,151.997 759.672,152.168C757.228,154.612 755.118,155.845 747.995,159.062C747.201,159.421 746.443,159.781 745.72,160.142ZM745.885,201.352C744.642,201.256 743.846,201.07 742.459,200.592C739.534,199.568 738.594,199.046 735.983,196.936C733.978,195.327 733.601,194.91 732.891,193.573C732.453,192.758 732.139,192.069 732.202,192.069C732.265,192.069 732.808,192.737 733.413,193.552C734.542,195.119 737.821,197.939 739.493,198.795C740.934,199.526 744.485,200.78 745.551,200.926C745.659,200.943 745.78,200.955 745.912,200.964C747.203,201.047 749.449,200.707 751.024,200.195C753.635,199.359 756.518,197.375 758.147,195.307C758.448,194.918 758.889,194.394 759.278,193.938L759.81,194.189C759.758,194.256 759.7,194.343 759.631,194.45C758.941,195.495 756.831,197.709 755.202,199.088C753.604,200.435 752.279,201.392 750.972,202.062L750.788,201.701C750.882,201.653 750.974,201.603 751.066,201.553C752.298,200.863 753.092,200.195 752.298,200.487C750.147,201.323 748.935,201.511 746.783,201.406C746.455,201.392 746.159,201.373 745.885,201.352ZM757.805,193.811L758.329,194.114C758.227,194.231 758.124,194.35 758.022,194.471C754.951,198.168 750.752,199.965 745.718,199.756C743.921,199.693 743.524,199.589 741.937,198.858C739.618,197.792 736.944,196.017 735.565,194.659C733.856,192.967 732.373,190.876 731.333,188.728L731.876,188.461C731.997,188.701 732.12,188.91 732.244,189.081C732.536,189.52 732.724,189.687 732.661,189.457C731.554,186.261 731.617,181.456 732.829,177.947C734.521,172.933 739.012,167.627 743.712,165.037C744.297,164.723 744.569,164.598 744.339,164.786C743.629,165.329 743.148,165.684 741.414,166.959C739.493,168.379 738.156,169.8 736.484,172.139C735.043,174.145 734.374,175.461 733.685,177.571C733.393,178.469 733.079,179.284 732.975,179.409C732.432,180.098 732.348,186.031 732.849,187.786C733.831,191.212 734.04,191.776 734.562,192.319C734.855,192.633 735.147,192.862 735.189,192.841C735.231,192.8 735.022,192.173 734.73,191.463C734.038,189.775 733.604,188.175 733.407,186.585L733.852,186.533L734.019,184.444C734.186,182.292 735.022,179.054 735.962,176.986C736.184,176.484 736.76,175.582 737.439,174.615L737.79,174.79C737.213,175.613 736.708,176.403 736.443,176.923C735.231,179.346 734.291,183.775 734.521,185.906C734.73,187.828 735.795,191.922 736.38,193.05C737.278,194.826 740.433,197.437 742.856,198.419C743.754,198.774 744.381,198.858 746.741,198.858C749.75,198.858 751.191,198.607 752.82,197.792C754.318,197.045 756.6,195.217 757.805,193.811ZM734.145,187.097C734.207,186.95 734.186,186.762 734.124,186.7C734.061,186.616 733.998,186.742 734.019,186.971C734.019,187.201 734.082,187.264 734.145,187.097ZM757.072,158.047L757.42,158.538C757.274,158.642 757.128,158.747 756.978,158.853C755.766,159.71 753.928,161.214 752.883,162.216C751.713,163.324 749.77,164.828 747.869,166.102C743.942,168.713 740.997,170.907 740.036,171.951C739.401,172.622 738.536,173.733 737.79,174.79L737.439,174.615C738.429,173.201 739.641,171.653 740.286,171.032C741.206,170.176 743.712,168.275 748.058,165.12C749.979,163.721 751.546,162.551 751.546,162.488C751.546,162.363 751.651,162.321 748.977,163.825C747.619,164.598 746.261,165.434 745.968,165.705C745.676,165.977 745.154,166.332 744.84,166.499C743.817,167.021 740.245,170.008 738.678,171.617C736.923,173.455 735.941,175.168 735.064,177.884C734.166,180.621 733.789,182.793 733.81,184.82L733.852,186.533L733.407,186.585C733.253,185.34 733.244,184.101 733.372,182.835C733.789,178.657 734.918,175.565 737.048,172.703C738.845,170.301 740.621,168.63 744.569,165.663C747.514,163.449 748.684,162.718 751.546,161.297C753.679,160.249 755.501,159.183 757.072,158.047ZM758.607,150.518L758.691,152.314L757.897,152.962C757.458,153.338 757.04,153.631 756.957,153.631C756.894,153.631 756.999,153.129 757.207,152.523C757.471,151.775 757.6,150.789 757.594,149.775L757.594,149.726C757.588,148.744 757.452,147.74 757.187,146.904C756.873,145.839 756.852,145.671 757.124,146.006C757.291,146.235 757.688,146.946 757.98,147.572C758.398,148.45 758.544,149.16 758.607,150.518Z"></path>
                </g>
            </g>
            <g transform="matrix(48.0783,-1.9597e-31,-1.95417e-31,-47.9426,-2195.16,17812.4)">
                <path style="fill:rgb(253,198,103);" d="M772.872,195.435C772.872,195.435 773.943,195.117 773.777,195.871C773.63,196.538 773.254,196.725 773.017,196.746C772.779,196.767 772.362,196.394 772.362,196.394C772.362,196.394 772.623,195.8 772.872,195.435Z"></path>
            </g>
        </g>
    </g>
</svg>
