<svg style="fill-rule:evenodd;clip-rule:evenodd;stroke-linejoin:round;stroke-miterlimit:2;" xml:space="preserve" xmlns:xlink="http://www.w3.org/1999/xlink" xmlns="http://www.w3.org/2000/svg" version="1.1" viewBox="0 0 1767 1767" height="100%" width="100%">
    <g transform="matrix(-0.58613,0.577247,0.577247,0.58613,10558.6,-21781.5)">
        <clipPath id="_clip1">
            <path d="M28019.1,10467.1C27515.9,10276.2 26952.3,10529.8 26761.4,11033.1C26570.6,11536.4 26824.2,12100 27327.5,12290.8C27830.8,12481.7 28394.4,12228.1 28585.2,11724.8C28776.1,11221.5 28522.4,10657.9 28019.1,10467.1Z"></path>
        </clipPath>
        <g clip-path="url(#_clip1)">
            <g transform="matrix(-0.86608,0.852954,0.852954,0.86608,16043.6,-18162.6)">
                <rect style="fill:rgb(0,108,229);" height="2713.13" width="1978" y="22646.8" x="9334.93"></rect>
            </g>
            <g>
                <g>
                    <g transform="matrix(47.8693,-1.95118e-31,-1.95118e-31,-47.8693,-2086.01,17734.2)">
                        <path style="fill:rgb(102,165,196);fill-rule:nonzero;" d="M639.742,99.17C639.784,101.489 639.742,103.891 639.679,104.497C639.533,105.604 639.533,105.625 639.136,105.207C638.927,104.977 638.467,104.622 638.133,104.413C637.736,104.183 637.569,103.954 637.674,103.828C637.924,103.536 638.321,101.342 638.321,100.381C638.321,99.985 638.635,98.606 639.011,97.311L639.679,94.95L639.742,99.17ZM638.071,81.037L637.507,82.123C637.047,83.043 635.731,84.693 631.824,89.331C631.051,90.271 630.299,91.942 629.443,94.72C628.754,96.955 626.748,102.241 626.581,102.241C626.497,102.241 626.414,101.844 626.414,101.342C626.414,100.256 625.954,97.582 625.307,94.887L624.805,92.861L625.286,91.023C625.536,90.02 626.017,88.056 626.33,86.677L626.915,84.171L628.482,82.52C630.091,80.87 631.657,79.679 632.242,79.679C632.43,79.679 633.809,79.993 635.313,80.369L638.071,81.037Z"></path>
                    </g>
                    <g transform="matrix(47.8693,-1.95118e-31,-1.95118e-31,-47.8693,-2086.01,17734.2)">
                        <path style="fill:rgb(102,165,196);fill-opacity:0.29;" d="M637.674,79.679C637.674,79.679 630.542,86.016 629.443,89.331C629.374,89.538 628.694,87.938 628.216,86.24C627.772,84.664 627.951,83.019 628.216,81.518C628.383,80.573 623.646,90.872 624.532,93.117C625.889,96.561 625.741,102.396 625.741,102.396L626.723,103.264L631.455,91.113L637.674,83.146L638.711,81.184L637.674,79.679Z"></path>
                    </g>
                    <g>
                        <path style="fill:rgb(102,165,196);fill-rule:nonzero;" d="M28451,12547C28459,12515 28457,12497 28439,12442C28402,12327 28341,12222 28270,12149C28211,12088 28199,12081 28147,12070C28086,12058 28025,12064 28036,12082C28040,12089 28038,12090 28031,12086C28025,12082 28000,12090 27976,12104C27931,12130 27900,12178 27900,12222C27900,12234 27895,12252 27890,12260C27888.1,12262.9 27886.5,12264.5 27885.2,12264.5L27903.3,12275.1C27908.4,12267.5 27909.2,12269.7 27910,12281C27910,12308 27957,12406 27995,12458C28068,12560 28224,12650 28328,12650C28359,12650 28414,12621 28433,12595C28437,12590 28445,12568 28451,12547Z"></path>
                        <clipPath id="_clip2">
                            <path clip-rule="nonzero" d="M28451,12547C28459,12515 28457,12497 28439,12442C28402,12327 28341,12222 28270,12149C28211,12088 28199,12081 28147,12070C28086,12058 28025,12064 28036,12082C28040,12089 28038,12090 28031,12086C28025,12082 28000,12090 27976,12104C27931,12130 27900,12178 27900,12222C27900,12234 27895,12252 27890,12260C27888.1,12262.9 27886.5,12264.5 27885.2,12264.5L27903.3,12275.1C27908.4,12267.5 27909.2,12269.7 27910,12281C27910,12308 27957,12406 27995,12458C28068,12560 28224,12650 28328,12650C28359,12650 28414,12621 28433,12595C28437,12590 28445,12568 28451,12547Z"></path>
                        </clipPath>
                        <g clip-path="url(#_clip2)">
                            <g transform="matrix(47.8693,-1.95118e-31,-1.95118e-31,-47.8693,-2086.01,17734.2)">
                                <path style="fill:rgb(102,165,196);fill-opacity:0.36;" d="M638.823,108.361C638.823,108.361 630.854,107.35 625.996,116.053C625.431,116.262 625.303,109.333 630.552,106.631C636.455,103.908 636.467,105.368 636.467,105.368L638.823,108.361Z"></path>
                            </g>
                        </g>
                        <g transform="matrix(47.8693,-1.95118e-31,-1.95118e-31,-47.8693,-2086.01,17734.2)">
                            <path style="fill:rgb(80,145,180);" d="M619.895,122.705L619.721,121.185L618.554,121.073L616.968,118.749L616.164,118.211L613.285,119.487L612.188,122.198L611.743,123.954L612.61,124.67L613.347,127.816L614.604,128.612L615.855,128.518L618.947,124.159L619.895,122.705Z"></path>
                        </g>
                        <path style="fill:rgb(196,168,102);fill-rule:nonzero;" d="M28430,12705C28491,12683 28530,12604 28530,12505C28530,12443 28484,12311 28435,12229C28342,12077 28224,11992 28091,11982C28030,11978 28018,11980 27976,12005C27903,12048 27843,12112 27830,12161C27802,12262 27836,12373 27933,12504C28006,12603 28043,12635 28139,12682C28236,12730 28321,12746 28375,12726C28386,12721 28411,12712 28430,12705ZM28460,12411C28476,12468 28476,12548 28462,12590C28438,12661 28340,12694 28245,12664C28181,12644 28109,12595 28021,12514C27963,12460 27947,12437 27921,12375C27897,12318 27892,12295 27899,12282C27900.7,12279.2 27902.2,12276.8 27903.3,12275.1L27885.2,12264.5C27881.6,12264.5 27880,12253.2 27880,12229C27880,12195 27887,12172 27908,12142C27965,12057 28035,12025 28131,12041C28200,12052 28236,12073 28295,12136C28345,12189 28446,12356 28460,12411Z"></path>
                        <clipPath id="_clip3">
                            <path clip-rule="nonzero" d="M28430,12705C28491,12683 28530,12604 28530,12505C28530,12443 28484,12311 28435,12229C28342,12077 28224,11992 28091,11982C28030,11978 28018,11980 27976,12005C27903,12048 27843,12112 27830,12161C27802,12262 27836,12373 27933,12504C28006,12603 28043,12635 28139,12682C28236,12730 28321,12746 28375,12726C28386,12721 28411,12712 28430,12705ZM28460,12411C28476,12468 28476,12548 28462,12590C28438,12661 28340,12694 28245,12664C28181,12644 28109,12595 28021,12514C27963,12460 27947,12437 27921,12375C27897,12318 27892,12295 27899,12282C27900.7,12279.2 27902.2,12276.8 27903.3,12275.1L27885.2,12264.5C27881.6,12264.5 27880,12253.2 27880,12229C27880,12195 27887,12172 27908,12142C27965,12057 28035,12025 28131,12041C28200,12052 28236,12073 28295,12136C28345,12189 28446,12356 28460,12411Z"></path>
                        </clipPath>
                        <g clip-path="url(#_clip3)">
                            <g transform="matrix(47.8693,-1.95118e-31,-1.95118e-31,-47.8693,-2086.01,17734.2)">
                                <path style="fill:rgb(253,198,103);" d="M639.113,105.697C639.113,105.697 639.146,107.935 638.566,109.552C637.45,112.663 635.135,117.009 632.411,118.408C630.165,119.562 629.028,118.528 628.311,118.079C627.679,117.684 626.921,116.771 626.592,116.428C625.889,115.697 625.655,121.4 629.751,120.502C633.847,119.604 635.966,118.525 637.07,116.428C638.173,114.331 640.048,109.799 640.048,109.799L639.113,105.697Z"></path>
                            </g>
                            <g transform="matrix(47.8693,-1.95118e-31,-1.95118e-31,-47.8693,-2086.01,17734.2)">
                                <path style="fill:white;" d="M629.66,120.502C629.66,120.502 627.774,119.151 628.341,118.274C628.909,117.397 630.8,118.553 630.8,118.553C630.8,118.553 631.239,120.353 632.661,120.502C633.516,120.342 629.66,120.502 629.66,120.502ZM634.61,119.293C634.61,119.293 632.952,119.812 632.083,118.553C632.171,118.475 632.553,118.453 633.037,118.04C633.172,117.984 633.981,119.236 635.653,118.04C635.783,117.939 634.922,119.099 634.61,119.293Z"></path>
                            </g>
                        </g>
                    </g>
                    <path style="fill:rgb(102,165,196);fill-rule:nonzero;" d="M28002,11895C28007,11874 28003,11872 27926,11866C27823,11858 27696,11858 27648,11866C27614,11872 27610,11876 27610,11902C27610,11930 27612,11931 27641,11925C27659,11921 27746,11918 27835,11918C27996,11918 27998,11918 28002,11895Z"></path>
                    <path style="fill:rgb(102,165,196);fill-rule:nonzero;" d="M27914,11975C27984,11961 27998,11955 27987,11943C27978,11935 27649,11936 27621,11945C27603,11950 27600,11959 27600,12001L27600,12050L27659,12050C27703,12050 27733,12043 27782,12020C27818,12003 27877,11983 27914,11975Z"></path>
                    <g transform="matrix(47.8693,-1.95118e-31,-1.95118e-31,-47.8693,-2086.01,17734.2)">
                        <path style="fill:rgb(254,104,146);fill-rule:nonzero;" d="M614.799,160.671C615.154,160.399 616.804,160.441 616.804,160.712C616.804,160.963 612.355,163.052 612.188,162.885C611.916,162.592 611.728,161.297 611.979,161.444C612.229,161.611 614.277,161.047 614.799,160.671ZM615.551,155.009C616.93,154.612 617.055,154.612 616.971,155.135C616.93,155.406 616.595,155.74 616.094,155.991L615.3,156.409L614.214,155.866L613.149,155.323L613.88,155.302C614.277,155.281 615.029,155.156 615.551,155.009ZM645.466,90.291L644.672,90.521C644.024,90.688 643.732,90.667 643.042,90.354C642.019,89.915 639.366,87.764 638.781,86.886C638.175,86.009 637.82,84.442 637.987,83.356C638.133,82.479 638.781,81.35 639.136,81.35C639.24,81.35 639.345,82.04 639.408,82.855C639.47,83.69 639.658,84.651 639.846,85.006C640.41,86.093 642.729,88.453 644.129,89.393L645.466,90.291ZM649.832,88.704C650.897,89.247 650.939,89.268 650.438,89.456C649.205,89.915 646.489,88.537 644.755,86.594C643.815,85.549 642.959,83.857 642.771,82.75C642.687,82.144 642.917,79.617 643.23,78.112C643.272,77.883 643.314,77.632 643.314,77.548C643.335,77.465 643.586,77.256 643.92,77.089C644.233,76.922 644.484,76.776 644.484,76.755C644.484,76.755 644.442,77.569 644.4,78.551C644.296,81.497 644.755,83.231 646.301,85.57C647.241,86.97 648.286,87.91 649.832,88.704Z"></path>
                    </g>
                </g>
                <path style="fill:rgb(207,67,107);fill-rule:nonzero;" d="M28898,12375C28900,12373 28895,12359 28887,12343C28886.3,12341.7 28885.5,12340.3 28884.7,12338.9C28859.9,12296.4 28796.8,12240.7 28760,12230C28742.5,12225.2 28688.1,12224.4 28633.3,12226.1C28562.8,12228.3 28491.5,12234.7 28496,12242C28512,12267 28611,12303 28701,12316C28763,12324 28818,12339 28847,12354C28874,12367 28896,12377 28898,12375ZM26983.5,15213.3L26551.9,14998L26201.3,14924.2L26046.9,15010.7L26052,15165.1L26228.9,15308.5L26563.1,15486C26563.1,15486 26987.7,15806 27015.6,15831.4C27043.6,15856.8 26938.1,15551.3 26938.1,15551.3L26928.9,15290.6L26983.5,15213.3Z"></path>
                <g transform="matrix(47.8693,-1.95118e-31,-1.95118e-31,-47.8693,-2086.01,17734.2)">
                    <path style="fill:rgb(254,104,146);fill-rule:nonzero;" d="M652.192,121.46C653.488,121.46 650.521,122.88 648.014,123.465C647.118,123.672 646.308,123.745 645.491,123.657C643.909,123.49 642.307,122.726 640.034,121.167C639.073,120.52 637.883,119.872 637.36,119.747C636.859,119.6 636.441,119.412 636.441,119.329C636.441,119.183 636.734,119.12 638.593,118.848C639.679,118.681 642.019,119.308 643.523,120.123C645.57,121.272 645.884,121.418 646.573,121.564C647.116,121.669 647.137,121.648 646.719,121.46C646.468,121.355 645.716,120.896 645.048,120.457C642.374,118.639 640.995,118.222 638.154,118.389C636.608,118.472 636.253,118.431 636.65,118.263C636.943,118.138 638.467,118.034 640.034,118.034C641.601,118.013 642.813,117.929 642.729,117.846C642.416,117.532 639.7,117.261 638.384,117.386C636.817,117.553 636.775,117.282 638.175,116.446C639.366,115.736 639.679,115.652 641.267,115.631C641.43,115.629 641.576,115.627 641.712,115.631C642.629,115.65 643.07,115.821 644.526,116.55C645.884,117.219 646.907,117.95 648.286,119.224C650.062,120.854 651.106,121.46 652.192,121.46ZM656.496,33.324C656.558,33.324 656.182,33.7 655.66,34.18C651.169,38.275 649.038,39.695 644.066,41.847C638.071,44.479 629.088,49.242 626.288,51.31C624.179,52.856 620.168,58.1 617.452,62.863L616.971,63.698L617.515,63.072C617.828,62.716 618.141,62.34 618.225,62.236C618.308,62.111 618.977,61.254 619.708,60.293C620.439,59.332 621.066,58.601 621.108,58.643C621.15,58.685 621.003,59.541 620.773,60.523C620.544,61.526 620.356,62.633 620.356,63.009C620.377,63.385 620.293,65.244 620.168,67.145C619.959,70.362 619.98,71.407 620.272,76.128C620.439,78.99 620.732,80.536 622.131,86.155C623.719,92.527 625.098,98.836 625.369,100.987C625.474,101.844 625.578,104.1 625.578,106.001L625.578,109.448L624.847,110.91C623.28,114.002 623.385,116.509 625.119,118.368L626.08,119.392L625.16,119.036C624.011,118.598 623.719,118.389 621.212,116.613C620.147,115.819 619.123,115.193 618.977,115.193C618.308,115.193 618.768,115.882 620.063,116.822L621.442,117.804L620.544,117.95C619.52,118.138 618.058,119.016 618.058,119.475C618.058,119.851 618.496,119.893 618.852,119.538C619.04,119.35 619.102,119.371 619.102,119.621C619.102,119.809 619.165,120.102 619.228,120.29C619.332,120.54 619.207,120.624 618.726,120.624C618.183,120.624 618.058,120.499 617.682,119.621C617.452,119.078 617.201,117.971 617.118,117.177C617.034,116.362 616.93,115.527 616.888,115.297C616.846,115.088 616.763,114.545 616.7,114.106C616.575,113.271 615.76,110.973 615.238,109.949L614.924,109.364L615.802,109.134C618.643,108.403 620.042,107.651 621.087,106.272C621.964,105.124 622.027,104.288 621.338,103.264C620.648,102.22 620.189,102.282 619.248,103.494C618.35,104.685 617.034,105.729 615.258,106.628L614.005,107.254L613.608,106.586C612.522,104.789 610.976,102.408 609.973,101.05C609.367,100.214 608.866,99.441 608.866,99.358C608.866,99.065 610.913,97.248 613.19,95.514C615.509,93.759 617.139,91.921 618.392,89.623C619.123,88.265 619.165,88.161 618.893,87.43C618.58,86.552 617.494,84.902 617.222,84.902C617.139,84.902 616.846,84.568 616.595,84.171C616.345,83.774 616.073,83.439 615.969,83.439C615.885,83.439 615.614,83.92 615.363,84.505C614.026,87.597 610.684,91.691 606.965,94.783L605.774,95.765L604.584,94.282C603.915,93.467 602.035,91.273 600.426,89.414C595.726,84.087 593.094,80.557 591.882,78.008C590.587,75.251 590.148,73.997 589.752,71.866C589.355,69.652 588.665,63.468 588.498,60.606L588.373,58.371L589.125,58.789C589.96,59.249 591.673,59.332 593.094,58.998C593.554,58.873 594.598,58.643 595.413,58.497C598.379,57.891 603.372,55.739 607.007,53.483C607.863,52.94 609.869,51.498 611.477,50.245C614.882,47.613 616.011,46.944 618.559,46.046C620.899,45.231 621.526,45.106 624.743,44.688C627.187,44.375 628.962,44.082 634.06,43.1C639.679,42.035 648.14,38.505 654.198,34.724C655.409,33.971 656.433,33.345 656.496,33.324Z"></path>
                    <clipPath id="_clip4">
                        <path clip-rule="nonzero" d="M652.192,121.46C653.488,121.46 650.521,122.88 648.014,123.465C647.118,123.672 646.308,123.745 645.491,123.657C643.909,123.49 642.307,122.726 640.034,121.167C639.073,120.52 637.883,119.872 637.36,119.747C636.859,119.6 636.441,119.412 636.441,119.329C636.441,119.183 636.734,119.12 638.593,118.848C639.679,118.681 642.019,119.308 643.523,120.123C645.57,121.272 645.884,121.418 646.573,121.564C647.116,121.669 647.137,121.648 646.719,121.46C646.468,121.355 645.716,120.896 645.048,120.457C642.374,118.639 640.995,118.222 638.154,118.389C636.608,118.472 636.253,118.431 636.65,118.263C636.943,118.138 638.467,118.034 640.034,118.034C641.601,118.013 642.813,117.929 642.729,117.846C642.416,117.532 639.7,117.261 638.384,117.386C636.817,117.553 636.775,117.282 638.175,116.446C639.366,115.736 639.679,115.652 641.267,115.631C641.43,115.629 641.576,115.627 641.712,115.631C642.629,115.65 643.07,115.821 644.526,116.55C645.884,117.219 646.907,117.95 648.286,119.224C650.062,120.854 651.106,121.46 652.192,121.46ZM656.496,33.324C656.558,33.324 656.182,33.7 655.66,34.18C651.169,38.275 649.038,39.695 644.066,41.847C638.071,44.479 629.088,49.242 626.288,51.31C624.179,52.856 620.168,58.1 617.452,62.863L616.971,63.698L617.515,63.072C617.828,62.716 618.141,62.34 618.225,62.236C618.308,62.111 618.977,61.254 619.708,60.293C620.439,59.332 621.066,58.601 621.108,58.643C621.15,58.685 621.003,59.541 620.773,60.523C620.544,61.526 620.356,62.633 620.356,63.009C620.377,63.385 620.293,65.244 620.168,67.145C619.959,70.362 619.98,71.407 620.272,76.128C620.439,78.99 620.732,80.536 622.131,86.155C623.719,92.527 625.098,98.836 625.369,100.987C625.474,101.844 625.578,104.1 625.578,106.001L625.578,109.448L624.847,110.91C623.28,114.002 623.385,116.509 625.119,118.368L626.08,119.392L625.16,119.036C624.011,118.598 623.719,118.389 621.212,116.613C620.147,115.819 619.123,115.193 618.977,115.193C618.308,115.193 618.768,115.882 620.063,116.822L621.442,117.804L620.544,117.95C619.52,118.138 618.058,119.016 618.058,119.475C618.058,119.851 618.496,119.893 618.852,119.538C619.04,119.35 619.102,119.371 619.102,119.621C619.102,119.809 619.165,120.102 619.228,120.29C619.332,120.54 619.207,120.624 618.726,120.624C618.183,120.624 618.058,120.499 617.682,119.621C617.452,119.078 617.201,117.971 617.118,117.177C617.034,116.362 616.93,115.527 616.888,115.297C616.846,115.088 616.763,114.545 616.7,114.106C616.575,113.271 615.76,110.973 615.238,109.949L614.924,109.364L615.802,109.134C618.643,108.403 620.042,107.651 621.087,106.272C621.964,105.124 622.027,104.288 621.338,103.264C620.648,102.22 620.189,102.282 619.248,103.494C618.35,104.685 617.034,105.729 615.258,106.628L614.005,107.254L613.608,106.586C612.522,104.789 610.976,102.408 609.973,101.05C609.367,100.214 608.866,99.441 608.866,99.358C608.866,99.065 610.913,97.248 613.19,95.514C615.509,93.759 617.139,91.921 618.392,89.623C619.123,88.265 619.165,88.161 618.893,87.43C618.58,86.552 617.494,84.902 617.222,84.902C617.139,84.902 616.846,84.568 616.595,84.171C616.345,83.774 616.073,83.439 615.969,83.439C615.885,83.439 615.614,83.92 615.363,84.505C614.026,87.597 610.684,91.691 606.965,94.783L605.774,95.765L604.584,94.282C603.915,93.467 602.035,91.273 600.426,89.414C595.726,84.087 593.094,80.557 591.882,78.008C590.587,75.251 590.148,73.997 589.752,71.866C589.355,69.652 588.665,63.468 588.498,60.606L588.373,58.371L589.125,58.789C589.96,59.249 591.673,59.332 593.094,58.998C593.554,58.873 594.598,58.643 595.413,58.497C598.379,57.891 603.372,55.739 607.007,53.483C607.863,52.94 609.869,51.498 611.477,50.245C614.882,47.613 616.011,46.944 618.559,46.046C620.899,45.231 621.526,45.106 624.743,44.688C627.187,44.375 628.962,44.082 634.06,43.1C639.679,42.035 648.14,38.505 654.198,34.724C655.409,33.971 656.433,33.345 656.496,33.324Z"></path>
                    </clipPath>
                    <g clip-path="url(#_clip4)">
                        <path style="fill:rgb(207,67,107);" d="M625.578,106.001C625.578,106.001 623.367,87.25 615.697,80.076C608.838,73.66 619.982,58.476 624.333,55.277C624.715,55.133 627.585,92.282 627.585,92.282L625.578,106.001ZM623.947,119.113C624.73,119.036 620.057,116.139 618.292,112.358C615.604,106.601 614.335,93.658 599.987,92.695C600.086,92.549 613.896,114.434 613.896,114.434L617.288,122.232L623.947,119.113ZM635.902,119.814C635.902,119.814 640.927,118.775 644.235,120.449C644.417,120.56 641.375,116.569 636.686,117.693C636.832,117.916 635.608,119.207 635.608,119.207L635.902,119.814Z"></path>
                    </g>
                </g>
                <path style="fill:rgb(239,153,151);fill-rule:nonzero;" d="M28440,11342L28440,11279L28355,11364C28308,11411 28250,11461 28225,11476C28200,11490 28180,11508 28180,11516C28180,11541 28208,11587 28236,11609C28250.6,11620.4 28264.7,11626.8 28280.1,11628.3C28298.6,11630.2 28318.9,11625 28344,11613C28371,11601 28384,11585 28399,11546C28428,11474 28439,11415 28440,11342Z"></path>
                <path style="fill:rgb(222,70,54);fill-rule:nonzero;" d="M28229,9776C28239,9764 28238,9758 28221,9741C28193,9713 28176,9714 28079,9754C27959,9802 27940,9812 27940,9823C27940,9829 27938,9831 27935,9828C27928,9822 27700,9933 27619,9981C27589,10000 27454,10069 27319,10135C26997,10293 26575,10507 26528,10537C26488,10562 26478,10593 26506,10608C26528,10620 26592,10600 26693,10549C26738,10526 26780,10504 26785,10499C26804,10485 27414,10182 27551,10120C27624,10087 27687,10055 27690,10050C27693,10045 27765,10009 27850,9970C28116,9847 28210,9799 28229,9776ZM26890.5,10314.4L27030.1,10395.1L26800.4,10513.8L26510.9,10647.2L26467.9,10577.2L26588.7,10468.5L26890.5,10314.4ZM26764.6,10364.5L26916.4,10471.8L26858.1,10484L26728.9,10386.3L26764.6,10364.5ZM26849.6,10335.3L26990.2,10428.7L26951.7,10435.6L26818.9,10351L26849.6,10335.3Z"></path>
                <g transform="matrix(47.8693,-1.95118e-31,-1.95118e-31,-47.8693,-2086.01,17734.2)">
                    <path style="fill:rgb(0,119,255);fill-rule:nonzero;" d="M630.132,104.204C630.613,104.413 631.01,104.664 631.01,104.727C631.01,104.789 630.55,105.124 629.965,105.437C629.401,105.75 628.419,106.481 627.772,107.066L626.623,108.132L626.623,106.398C626.623,105.04 626.727,104.413 627.082,103.578L627.563,102.533L628.398,103.16C628.858,103.515 629.631,103.995 630.132,104.204ZM635.752,101.53C636.608,101.635 636.859,101.739 636.775,101.969C636.692,102.136 636.65,102.366 636.65,102.47C636.65,102.951 634.227,102.533 631.804,101.614C630.32,101.071 628.712,99.692 628.858,99.107C628.921,98.877 628.983,98.689 629.025,98.689C629.046,98.689 629.694,99.107 630.467,99.629C631.95,100.611 633.893,101.321 635.752,101.53Z"></path>
                </g>
                <g transform="matrix(47.8693,-1.95118e-31,-1.95118e-31,-47.8693,-2086.01,17734.2)">
                    <path style="fill:rgb(253,198,103);fill-rule:nonzero;" d="M631.344,146.256C631.469,146.841 631.407,146.967 630.78,147.343C630.404,147.572 629.15,148.074 628.001,148.45C625.933,149.118 625.829,149.139 622.131,149.139C617.494,149.139 616.888,148.972 619.186,148.304C619.355,148.253 619.514,148.205 619.662,148.159C622.002,147.422 621.714,147.059 618.747,146.862C614.444,146.57 612.334,146.027 608.553,144.272L606.902,143.499L608.991,143.373C610.537,143.29 611.268,143.165 611.791,142.851C612.167,142.642 612.48,142.35 612.48,142.245C612.48,142.12 611.832,141.702 611.039,141.305C609.054,140.303 606.673,138.611 605.377,137.294L604.291,136.187L606.735,136.187C609.2,136.187 610.537,136.104 611.227,135.937C611.77,135.79 611.415,135.435 609.702,134.432C608.406,133.66 606.568,131.905 606.568,131.445C606.568,131.32 606.861,131.299 607.216,131.383C607.571,131.466 608.657,131.529 609.639,131.55C610.6,131.55 611.436,131.633 611.498,131.717C611.561,131.821 611.791,131.905 612.02,131.905C612.25,131.905 612.71,132.155 613.023,132.469C613.671,133.137 614.277,133.451 616.804,134.516C619.311,135.581 623.113,137.629 624.931,138.861C627.834,140.867 630.989,144.522 631.344,146.256ZM625.369,124.802L625.056,125.554C624.889,125.972 624.743,126.348 624.743,126.39C624.743,126.432 624.596,126.473 624.429,126.473C623.594,126.473 621.818,128.876 621.818,130.004C621.818,130.275 622.11,130.756 622.445,131.111C623.03,131.675 623.197,131.738 624.116,131.654L625.119,131.55L625.202,132.406C625.265,132.887 625.286,133.304 625.244,133.325C625.223,133.367 624.596,133.179 623.865,132.887C623.134,132.594 622.006,132.239 621.358,132.093C620.147,131.842 619.917,131.654 620.439,131.341C620.585,131.257 620.815,130.965 620.961,130.714C621.254,130.15 621.275,128.165 620.982,127.434C620.711,126.682 619.813,126.724 618.225,127.518C617.536,127.873 616.93,128.124 616.888,128.082C616.846,128.04 617.306,127.33 617.912,126.515C618.538,125.7 619.269,124.593 619.541,124.071C619.938,123.319 620.126,123.131 620.46,123.214C620.69,123.277 621.505,123.34 622.298,123.34C623.677,123.34 623.698,123.34 623.698,123.904C623.698,124.823 623.991,125.095 624.722,124.948L625.369,124.802Z"></path>
                </g>
                <g transform="matrix(47.8693,-1.95118e-31,-1.95118e-31,-47.8693,-2086.01,17734.2)">
                    <path style="fill:rgb(248,169,36);" d="M632.616,146.724C632.616,146.724 629.724,148.023 625.706,147.616C625.43,147.425 630.167,146.08 631.105,144.499C631.077,144.444 628.456,145.179 625.728,145.359C623.084,145.533 619.658,145.709 619.374,145.058C619.278,144.838 625.218,142.764 627.478,140.475C627.451,140.327 622.07,141.772 618.91,141.113C618.803,141.074 622.55,138.491 623.031,137.333C622.846,137.223 617.098,139.515 614.107,138.597C613.705,138.473 617.765,137.04 620.03,135.413C620.101,135.134 615.491,136.225 613.635,134.58C613.055,134.066 615.246,133.201 615.246,133.201L622.74,135.753L632.748,144.203L632.616,146.724ZM623.246,131.26L616.459,128.383L617.133,127.539L622.183,129.831L622.862,128.655L617.721,126.47L618.366,125.392L623.42,127.529L624.731,126.767L618.95,124.726L619.352,124.006L625.43,125.471"></path>
                </g>
                <g transform="matrix(47.8693,-1.95118e-31,-1.95118e-31,-47.8693,-2086.01,17734.2)">
                    <path style="fill:rgb(0,119,255);fill-rule:nonzero;" d="M617.657,171.277L617.393,171.368C617.281,171.22 616.884,171.178 615.864,171.178L614.298,171.178L614.298,170.573C614.298,170.008 614.381,169.946 615.091,169.862C617.168,169.643 617.07,169.518 617.657,171.277ZM616.261,167.815C616.449,167.961 616.595,168.212 616.595,168.337C616.595,168.734 614.862,169.507 614.026,169.507C613.295,169.507 613.253,169.465 613.107,168.609C613.044,168.128 613.002,167.69 613.044,167.627C613.149,167.523 615.133,166.645 615.405,166.603C615.488,166.603 615.634,166.791 615.739,167.063C615.843,167.335 616.073,167.669 616.261,167.815ZM616.428,164.681L615.99,165.246C615.655,165.663 613.754,166.791 613.357,166.791C613.337,166.791 613.232,166.457 613.169,166.039C613.086,165.642 612.981,165.183 612.919,165.058C612.856,164.87 613.357,164.786 614.632,164.744L616.428,164.681ZM617.974,161.694C618.141,162.363 618.016,162.509 616.533,163.324C615.593,163.867 614.862,164.097 613.859,164.201C612.543,164.326 612.48,164.305 612.355,163.867C612.292,163.616 612.292,163.47 612.355,163.533C612.438,163.595 612.585,163.574 612.71,163.491C612.835,163.386 613.357,163.157 613.88,162.968C614.402,162.76 615.384,162.237 616.073,161.799C617.41,160.942 617.786,160.921 617.974,161.694ZM612.626,159.501C614.214,160.086 614.277,160.211 613.107,160.503C612.564,160.65 612,160.859 611.874,160.963C611.707,161.088 611.582,160.838 611.436,160.107C611.31,159.543 611.289,159.062 611.352,159.062C611.415,159.062 612,159.25 612.626,159.501ZM616.47,156.66C616.992,156.263 617.013,156.263 617.013,156.66C617.013,156.848 616.825,156.973 616.554,156.973C616.094,156.952 616.073,156.952 616.47,156.66Z"></path>
                </g>
                <g>
                    <path style="fill:rgb(103,225,146);fill-rule:nonzero;" d="M27629,12752C27648,12706 27634,12675 27576,12635C27524,12599 27385,12544 27224,12495C27180,12481 27121,12454 27094,12435C27028,12388 26957,12301 26913,12212C26888.5,12162.8 26880,12142 26877.6,12106L26854.3,12107.3C26857.7,12175.4 26864.6,12202.7 26883,12243C26957,12405 27035,12473 27225,12540C27427,12611 27576,12700 27595,12760C27604,12788 27616,12785 27629,12752Z"></path>
                    <path style="fill:rgb(103,225,146);fill-rule:nonzero;" d="M27605,11574C27608,11549 27610,11527 27608,11525C27593,11512 27369,11458 27310,11454L27235,11449L27280,11472C27384,11524 27585,11620 27591,11620C27595,11620 27601,11599 27605,11574Z"></path>
                    <path style="fill:rgb(103,225,146);fill-rule:nonzero;" d="M27485,13562L27512,13521L27464,13440C27399,13331 27338,13265 27224,13180C27122,13103 26998,12995 26991,12976C26989,12970 26964,12932 26937,12891C26905.4,12843.9 26873.5,12785.5 26844.3,12723C26794.3,12615.6 26752.3,12496.2 26734,12402C26716,12308 26716,12154 26735,12068C26749,12000 26799,11882 26824,11857C26832,11850 26853,11815 26870,11779C26888,11744 26917,11697 26934,11675L26965,11635L26934,11657C26891,11688 26823,11769 26755,11874C26647,12038 26612,12201 26631,12450C26639,12544 26648,12597 26661,12626C26672,12648 26687,12692 26695,12723C26732,12866 26838,13023 26965,13125C27097,13231 27316,13489 27373,13608C27385,13631 27396,13650 27399,13650C27403,13650 27417,13639 27431,13626C27446,13613 27470,13584 27485,13562Z"></path>
                    <path style="fill:rgb(196,168,102);fill-rule:nonzero;" d="M27404,12124C27427,12101 27424,12092 27388,12085C27292,12064 27221,11982 27189,11856C27181,11823 27173,11810 27160,11810C27144,11810 27143,11815 27152,11853C27157,11876 27163,11910 27166,11928C27172.5,11979 27220.3,12051.8 27268.9,12094.9C27288,12111.8 27307.1,12124.2 27324,12129C27370,12143 27387,12142 27404,12124ZM27366.6,11561.1L27310.8,11521.9L27275,11519.1L27281.5,11574.3L27346.6,11581.9L27366.6,11561.1Z"></path>
                    <path style="fill:rgb(103,225,146);fill-rule:nonzero;" d="M27248,11620C27248,11555 27235,11605 27228,11695L27223,11765L27235,11715C27242,11688 27248,11645 27248,11620Z"></path>
                    <path style="fill:rgb(103,225,146);fill-rule:nonzero;" d="M27186,11520C27205,11520 27220,11503 27214,11487C27207,11467 27176,11479 27115,11524C27024,11591 26978,11645 26930,11741C26861,11877 26847,11940 26853,12076C26853.4,12087.3 26853.8,12097.7 26854.3,12107.3L26877.6,12106C26876.8,12093.7 26876.7,12079.6 26877,12062C26878,11927 26939,11750 27016,11657C27063,11601 27162,11520 27186,11520Z"></path>
                    <path style="fill:rgb(103,225,146);fill-rule:nonzero;" d="M28254,10967C28312,10894 28314,10864 28263,10801C28204,10728 28188,10723 28166,10773C28134,10848 27995,11002 27872,11097C27822,11136 27649,11240 27634,11240C27631,11240 27595,11255 27555,11274C27516,11293 27471,11312 27457,11315C27443,11319 27429,11328 27426,11336C27423,11344 27414,11350 27407,11350C27399,11350 27387,11357 27380,11365C27370,11378 27371,11380 27391,11380C27404,11380 27438,11387 27465,11394C27493,11402 27521,11406 27528,11404C27534,11402 27583,11389 27635,11375C27739,11346 27763,11337 27889,11278C28010,11222 28135,11115 28254,10967Z"></path>
                    <g>
                        <g transform="matrix(47.8693,-1.95118e-31,-1.95118e-31,-47.8693,-2086.01,17734.2)">
                            <path style="fill:rgb(24,176,109);" d="M614.538,109.27C614.538,109.27 610.962,108.541 609.366,109.172C609.549,108.9 614.17,107.924 615.899,106.746C617.628,105.569 620.369,102.8 620.369,102.8C620.369,102.8 622.452,104.683 621.123,105.975C619.795,107.268 614.538,109.27 614.538,109.27Z"></path>
                        </g>
                        <path style="fill:rgb(24,176,109);fill-rule:nonzero;" d="M27216,11557C27228,11525 27174,11558 27147,11599C27074,11710 27064,11760 27115,11771C27187,11787 27190,11785 27190,11726C27190,11673 27202,11591 27216,11557Z"></path>
                        <g transform="matrix(47.8693,-1.95118e-31,-1.95118e-31,-47.8693,-2086.01,17734.2)">
                            <path style="fill:rgb(24,176,109);" d="M622.245,132.777C622.245,132.777 619.195,132.461 617.315,134.31C617.237,134.351 614.742,132.777 614.742,132.777L618.581,131.743L622.245,132.777Z"></path>
                        </g>
                        <path style="fill:rgb(24,176,109);fill-rule:nonzero;" d="M27520,11474C27573,11491 27600,11493 27600,11481C27600,11464 27573,11452 27480,11431C27378,11408 27314,11404 27290,11420C27279,11427 27283,11430 27307,11430C27339.9,11430 27431.2,11448.2 27496.8,11467C27505,11469.3 27512.8,11471.7 27520,11474Z"></path>
                    </g>
                </g>
                <g>
                    <path style="fill:rgb(255,222,222);fill-rule:nonzero;" d="M28395,11260L28429,11214L28406,11135C28377,11035 28332,10933 28322,10946C28318,10951 28292,10982 28265,11015C28178,11119 28088,11199 27987,11262C27934,11295 27888,11325 27885,11329C27883,11333 27880,11371 27879,11413C27878,11469 27874,11490 27864,11490C27857,11490 27848,11486 27845,11480C27842,11475 27819,11470 27796,11470C27757,11470 27751,11473 27740,11500C27705,11583 27799,11671 27907,11656C27960,11649 27963,11669 27911,11685C27881,11694 27879,11697 27885,11725C27907,11829 27903,11839 27852,11799C27827,11780 27825,11780 27819,11797C27815,11807 27811,11818 27811,11822C27810,11830 27947,11838 28000,11834C28019,11832 28062,11817 28095,11801C28128,11785 28168,11767 28183,11761C28226,11744 28337,11666 28320,11663C28303.9,11660.8 28289.5,11658.4 28276.4,11655.6C28206,11640.3 28176.8,11613.8 28154,11553L28136,11506L28185,11466C28270,11396 28361,11307 28395,11260ZM28184,11210C28256,11186 28300,11184 28300,11205C28300,11237 28188,11390 28165,11390C28158,11390 28150,11384 28147,11376C28144,11369 28152,11347 28164,11329C28177,11310 28195,11283 28204,11268L28222,11241L28134,11270C28031,11305 28040,11304 28040,11286C28040,11270 28096,11241 28184,11210Z"></path>
                    <path style="fill:rgb(255,222,222);fill-rule:nonzero;" d="M27445.2,10663.2L27438.5,10628.7C27400.5,10618.7 27408,10631 27388,10631C27339,10630 27340,10614 27389,10592C27413.4,10580.9 27421.9,10574.8 27421.9,10565.1C27421.9,10561.6 27420.8,10557.7 27419,10553C27415,10541 27409,10491 27406,10443L27401,10355L27368,10347C27324,10335 27174,10342 27160,10356C27148,10368 27116,10559 27104,10684C27098,10759 27098,10763 27116,10755C27127,10751 27158,10739 27185,10728C27249,10703 27327.8,10697.9 27448.8,10687.9L27445.2,10663.2Z"></path>
                    <g transform="matrix(40.6004,25.3591,28.0563,-44.9186,-1195.51,1483.45)">
                        <ellipse style="fill:rgb(253,143,171);" ry="1.305" rx="1.297" cy="129.047" cx="623.717"></ellipse>
                    </g>
                    <g transform="matrix(47.8693,-1.95118e-31,-1.95118e-31,-47.8693,-2086.01,17734.2)">
                        <path style="fill:rgb(254,193,191);" d="M635.253,142.002C635.432,142.125 635.86,141.824 635.86,141.824C635.86,141.824 632.372,136.092 625.541,133.14C625.47,132.979 625.961,134.159 625.961,134.159C625.961,134.159 633.472,139.357 635.253,142.002ZM625.785,129.672C625.774,130.036 623.731,130.567 623.681,129.485C623.63,128.403 626.439,127.626 626.603,127.701C626.766,127.775 625.786,129.636 625.785,129.672ZM627.319,126.835C627.319,126.835 625.807,124.711 627.822,123.141C627.697,123.012 625.947,122.943 625.947,122.943L624.233,123.211L624.225,124.242L625.251,124.513C625.251,124.513 625.853,124.324 625.905,124.455C625.956,124.587 625.317,126.301 625.317,126.301L627.319,126.835ZM637.647,100.179C637.647,100.179 632.243,99.728 629.509,96.886C629.421,96.698 629.072,97.992 629.072,97.992C629.072,97.992 633.33,101.748 637.188,101.24M637.647,100.179L637.188,101.24L637.647,100.179ZM640.111,93.007C640.111,93.007 638.217,93.192 637.049,94.724C635.67,96.533 638.179,94.691 639.337,94.757C639.24,94.948 640.111,93.007 640.111,93.007ZM632.094,90.437C632.094,90.437 632.606,90.77 633.387,90.588C634.18,90.403 635.329,89.669 637.292,89.216C638.257,88.993 639.664,88.996 640.928,89.334C640.906,89.289 637.301,85.444 637.378,83.976C637.394,83.837 635.954,84.575 634.807,86.152C633.659,87.73 632.094,90.437 632.094,90.437ZM709.723,95.564C709.723,95.564 711.046,82.17 719.255,74.458C718.99,74.264 715.325,75.105 715.325,75.105L698.975,95.729L705.814,95.724L709.723,95.564ZM731.763,70.157C731.763,70.157 731.004,65.951 727.977,65.831C727.836,65.77 731.958,63.22 731.958,63.22L734.231,68.307L731.763,70.157ZM712.451,94.819L718.274,91.335L720.069,88.494C720.069,88.494 723.006,89.645 724.734,89.339M724.734,89.339L724.329,90.401L723.215,90.509L720.455,90.127L719.556,91.827L718.59,92.492L715.185,94.611L712.451,94.819M725.938,74.015C725.938,74.015 725.919,72.946 724.721,72.54C724.485,72.318 731.132,68.329 731.132,68.329C731.132,68.329 731.819,69.65 731.849,70.449C731.891,70.379 725.938,74.015 725.938,74.015ZM657.769,56.651C657.769,56.651 651.071,59.595 645.217,56.922C645.269,56.833 640.05,62.462 640.05,62.462L644.664,62.774L653.484,65.474L657.769,56.651Z"></path>
                    </g>
                    <g transform="matrix(52.6156,-2.14464e-31,-2.19046e-31,-53.7396,-4997.31,18537.3)">
                        <path style="fill:rgb(253,143,171);" d="M628.92,129.222C629.445,129.222 629.927,129.408 630.306,129.719C630.537,129.909 630.162,130.526 630.302,130.794C630.464,131.105 631.125,131.078 631.125,131.454C631.125,132.686 630.136,133.686 628.92,133.686C627.703,133.686 626.715,132.686 626.715,131.454C626.715,130.222 627.703,129.222 628.92,129.222Z"></path>
                    </g>
                </g>
            </g>
            <g>
                <path style="fill:rgb(84,87,250);fill-rule:nonzero;" d="M36152,14922C36241,14573 36220,14094 36109,13919C36076,13867 36042,13854 35992,13876C35960,13889 35955,13900 35905,14065C35845,14266 35485,14921 35420,14950C35412,14953 35359,14980 35304,15008C35211,15056 35202,15058 35197,15040C35194,15030 35196,15020 35202,15018C35207,15016 35208,15006 35204,14996C35198,14980 35185,14978 35056,14981C34978,14982 34830,14979 34726,14975L34536,14967L34486,14920C34391,14831 34095,14565 33995,14478C33940,14431 33845,14341 33785,14278C33724,14216 33600,14096 33510,14011C33309,13822 33008,13516 33020,13512C33025,13510 33062,13524 33102,13542C33213,13593 33242,13577 33168,13506C33144,13483 33113,13441 33097,13411C33082,13382 33049,13327 33022,13288C32996,13250 32968,13208 32960,13195C32952,13182 32927,13145 32905,13113C32760,12903 32733,12863 32727,12847C32718,12823 32691,12831 32620,12879C32538,12935 32488,12950 32387,12950C32338,12950 32266,12955 32227,12960C32187,12966 32122,12975 32082,12981C32011,12991 31910,13033 31910,13053C31910,13058 31928,13079 31950,13099L31990,13136L31681,13133L31371,13131L31255,13007C31133,12877 31091,12840 31064,12840C31038,12840 30596,12696 30463,12644C30398,12618 30311,12585 30268,12570C30131,12519 29830,12388 29835,12380C29837,12376 29820,12374 29796,12375C29766,12376 29723,12392 29649,12432C29510,12505 29245,12681 29142,12768C29097,12807 29055,12840 29050,12842C29044,12844 29044,12900 29050,12995C29055,13078 29061,13201 29064,13270L29069,13396L29005,13408C28921,13424 28883,13423 28877,13406C28874,13399 28861,13390 28848,13387C28835,13384 28798,13375 28765,13367C28732,13359 28679,13337 28646,13317L28588,13282L28586,12968C28583,12596 28570,12416 28542,12343L28523,12292L28568,12311C28593,12322 28651,12334 28696,12339C28796,12349 28874,12384 28931,12443C28964,12476 28970,12479 28970,12462C28970,12450 28965,12438 28959,12435C28954,12431 28944,12417 28939,12403C28931.5,12383 28919.6,12359.3 28905.8,12335.6L28884.7,12338.9C28885.5,12340.3 28886.3,12341.7 28887,12343C28895,12359 28900,12373 28898,12375C28896,12377 28874,12367 28847,12354C28818,12339 28763,12324 28701,12316C28611,12303 28512,12267 28496,12242C28491.5,12234.7 28562.8,12228.3 28633.3,12226.1L28632.3,12199C28625.8,12199.2 28618.8,12199.1 28611,12199C28535,12198 28520,12194 28463,12160C28396,12120 28398,12107 28473,12115C28536,12121 28666,12108 28681,12093C28685,12089 28627,12085 28552,12084C28477,12084 28404,12079 28390,12073C28371,12065 28388,12063 28462,12067C28598,12075 28664,12055 28792,11968C28824,11947 28860,11925 28872,11920C28892,11911 28891,11910 28865,11915C28832,11922 28817,11929 28719,11984C28647,12023 28535,12053 28483,12045C28394,12032 28380,12029 28380,12022C28380,12018 28400,12009 28424,12002C28449,11996 28506,11965 28552,11934C28660.8,11859.4 28737.5,11822.8 28813.2,11814.8L28811.1,11795.6C28739.9,11802.8 28671.5,11831 28595,11881C28554,11908 28501,11939 28478,11951C28419,11981 28315,11987 28230,11964C28194,11955 28137,11945 28103,11943C28035,11938 28032,11935 28050,11883C28059,11860 28071,11850 28103,11840C28258,11794 28380,11687 28439,11545C28467.5,11476.7 28475.7,11379.9 28465.5,11276.8L28440,11279L28440,11342C28439,11415 28428,11474 28399,11546C28384,11585 28371,11601 28344,11613C28318.9,11625 28298.6,11630.2 28280.1,11628.3L28276.4,11655.6C28289.5,11658.4 28303.9,11660.8 28320,11663C28337,11666 28226,11744 28183,11761C28168,11767 28128,11785 28095,11801C28062,11817 28019,11832 28000,11834C27947,11838 27810,11830 27811,11822C27811,11818 27815,11807 27819,11797C27825,11780 27827,11780 27852,11799C27903,11839 27907,11829 27885,11725C27879,11697 27881,11694 27911,11685C27963,11669 27960,11649 27907,11656C27799,11671 27705,11583 27740,11500C27751,11473 27757,11470 27796,11470C27819,11470 27842,11475 27845,11480C27848,11486 27857,11490 27864,11490C27874,11490 27878,11469 27879,11413C27880,11371 27883,11333 27885,11329C27888,11325 27934,11295 27987,11262C28088,11199 28178,11119 28265,11015C28292,10982 28318,10951 28322,10946C28332,10933 28377,11035 28406,11135L28429,11214L28456.3,11209.6C28444.6,11142 28425.4,11073.8 28399,11011C28377,10958 28357,10906 28356,10895C28350,10862 28338,10837 28307,10795C28258,10730 28197,10670 28180,10670C28171,10670 28135,10654 28098,10635C27984,10574 27900,10558 27705,10556C27612,10556 27516,10558 27493,10563L27450,10570L27450,10565.1L27421.9,10565.1C27421.9,10574.8 27413.4,10580.9 27389,10592C27340,10614 27339,10630 27388,10631C27408,10631 27457,10639 27495,10649L27565,10666L27576.8,10641.9C27569.7,10639.7 27562.1,10637.4 27554,10635C27444,10603 27473,10595 27695,10595C27872,10595 27877,10596 27976,10628C28031,10646 28091,10670 28109,10681C28139,10699 28142,10705 28136,10733C28119,10816 27968,10991 27829,11087C27742,11146 27560,11244 27440,11295C27319,11346 27290,11361 27259,11393C27244,11408 27222,11420 27211,11420C27200,11420 27189,11424 27186,11429C27183,11433 27143,11437 27097,11437C27050,11438 26998,11441 26981,11445C26964,11449 26950,11448 26950,11442C26950,11420 27038,11336 27100,11299C27182,11251 27199,11234 27173,11227C27140,11219 27076,11215 26958,11215L26841,11215L26893,11162C26955,11099 27069,11018 27164,10970C27202,10951 27233,10931 27233,10925C27233,10920 27218,10906 27200,10896C27175,10881 27140,10875 27066,10871L26981.7,10865.9L26980,10895C27026,10898 27065,10901 27067,10903C27068,10905 27072,10920 27075,10936C27080,10963 27076,10968 27015,11005C26922,11062 26760,11221 26760,11256C26760,11269 26767,11271 26798,11267C26818,11264 26887,11258 26950,11255L27065,11249L27040,11270C26946,11349 26849,11473 26868,11492C26878,11502 26909,11500 27050,11481C27091,11475 27126,11472 27127,11474C27129,11476 27104,11493 27073,11513C27041,11532 26999,11565 26980,11584C26961,11604 26924,11636 26898,11655C26788,11735 26664,11934 26618,12101C26598,12175 26595,12205 26596,12365L26598,12545L26638,12665C26661,12731 26686,12808 26696,12835C26715,12891 26806,13038 26850,13085L26879,13115L26722,13291C26635,13389 26555,13476 26543,13486C26531,13497 26469,13569 26405,13648C26299,13778 26218,13896 26170,13991C26110,14107 26030,14541 26030,14744C26030,14782 26023,14880 26015,14961C25988,15215 26016,15257 26297,15384C26500,15476 26630,15559 26858,15743C26903,15780 26945,15810 26950,15810C26955,15810 26993,15842 27035,15881C27077,15920 27114,15950 27116,15948C27118,15945 27093,15882 27060,15808C26977,15618 26956,15532 26963,15405C26972,15240 26962,15242 27130,15375C27214,15441 27311,15508 27361,15534C27485,15597 27652,15649 27790,15666C28049,15698 28297,15731 28325,15738L28354,15746L28290,15798C28254,15827 28215,15850 28203,15850C28190,15850 28174,15861 28164,15874C28156,15888 28129,15906 28105,15915C28066,15930 28060,15930 28032,15916C28002,15900 27999,15901 27953,15929C27927,15944 27879,15968 27847,15981C27764,16014 27746,16033 27753,16084C27762,16145 27807,16249 27846,16297C27878,16336 27881,16338 27911,16327C27936,16317 27943,16318 27950,16330C27954,16338 27991,16392 28032,16450C28133,16595 28173,16667 28166,16695C28163,16707 28163,16720 28166,16723C28176,16733 28676,16731 28750,16720C28850,16706 28861,16695 28816,16654C28785,16626 28608,16546 28553,16537C28522,16531 28442,16477 28437,16458C28434,16447 28423,16440 28408,16440C28387,16440 28383,16433 28366,16344C28352,16273 28350,16243 28358,16227C28364,16215 28378,16184 28389,16158C28408,16112 28412,16109 28525,16056C28589,16026 28678,15986 28723,15969C28768,15951 28810,15933 28816,15928C28830,15918 29042,16025 29215,16129C29363,16219 29553,16349 29627,16413C29693,16468 29719,16475 29696,16431C29660,16363 29266,16000 29092,15875L29010,15816L29024.1,15809.8L29012.4,15783.2C28990.6,15793.7 28976.9,15800 28976,15800C28968,15800 28936,15771 28940,15767C28943,15764 28990,15735 29045,15702C29100,15669 29190,15610 29245,15571C29299,15533 29346,15502 29347,15504C29348.1,15505.1 29344.3,15516.2 29337.5,15533L29365.7,15540.8C29393.2,15469.2 29400.4,15421.3 29404,15330C29412,15149 29422,15030 29430,15030C29432.6,15030 29440.6,15041.5 29448.6,15056.4L29477,15052.7C29444.8,14993 29419.2,14949.6 29413,14948C29402,14945 29361,14878 29306,14776C29258,14684 29220,14608 29221,14606C29223,14604 29245,14596 29269,14586C29321,14566 29300,14551 29440,14710C29650,14947 29893,15200 30197,15499C30506,15803 30523,15817 30630,15879C30830,15994 31210,16138 31525,16218C31964,16330 32707,16449 32807,16424C32847,16414 32862,16391 32834,16384C32816,16379 32815,16364 32815,16137C32815,15878 32812,15856 32744,15465C32672,15055 32571,14658 32525,14611C32511,14597 32439,14497 32365,14390L32230,14195L32269,14192C32332,14187 32378,14217 32434,14301C32545,14465 32672,14583 32852,14687C32920,14726 32929,14734 32920,14750C32900,14787 32909,14807 32958,14838C32984,14854 33032,14877 33065,14889C33143,14917 33332,15015 33386,15054C33420,15078 33429,15091 33429,15116C33430,15143 33436,15149 33499,15179C33546,15202 33576,15211 33595,15207C33617,15203 33646,15217 33734,15273C33795,15311 33866,15356 33893,15373C33941,15404 33949,15417 33929,15437C33903,15463 33928,15494 34004,15530C34045,15549 34079,15570 34080,15577C34080,15594 34111,15581 34131,15556C34147,15536 34149,15537 34228,15589C34273,15618 34318,15656 34329,15673C34340,15691 34367,15728 34390,15755C34412,15783 34462,15851 34502,15908C34542,15965 34594,16036 34618,16067C34658,16120 34660,16125 34654,16171C34647,16219 34648,16221 34696,16269C34723,16296 34765,16344 34790,16375C34845,16446 34986,16573 35060,16619C35090,16638 35124,16662 35135,16671C35166,16698 35191,16685 35232,16622C35270,16563 35340,16418 35340,16399C35340,16393 35357,16360 35377,16327C35397,16293 35434,16231 35459,16190C35483,16149 35512,16106 35521,16095C35537,16077 35538,16069 35528,16037C35515,15994 35520,15974 35576,15855C35619,15762 35698,15690 35758,15690C35783,15690 35792,15681 35825,15628C35974,15382 36164,15010 36143,15003C36137,15001 36140,14971 36152,14922ZM36141,14540C36143,14646 36116,14808 36075,14935C36061,14977 36050,15017 36050,15026C36050,15044 35946,15245 35853,15408L35788,15520L35737,15519C35708,15518 35669,15514 35650,15510C35604,15499 35522,15453 35511,15432C35498,15406 35490,15309 35489,15143L35487,14992L35519,14944C35536,14918 35550,14893 35550,14888C35550,14883 35567,14853 35589,14822C35610,14791 35646,14729 35670,14685C35694,14641 35736,14567 35763,14520C35845,14380 35908,14254 35950,14147C35972,14091 36001,14027 36014,14006L36037,13967L36058,14023C36101,14136 36137,14365 36141,14540ZM35746,15585C35748,15591 35742,15604 35732,15616C35716,15636 35712,15637 35635,15625C35540,15611 35495,15597 35435,15564C35393,15540 35391,15536 35384,15482C35380,15451 35380,15342 35383,15241C35388,15063 35390,15055 35412,15039L35435,15021L35440,15218C35443,15327 35451,15426 35457,15440C35487,15509 35597,15566 35709,15573C35728,15574 35745,15580 35746,15585ZM35620,15680C35631,15680 35640,15685 35640,15690C35640,15696 35636,15700 35631,15700C35612,15700 35518,15808 35503,15850C35493,15875 35480,15901 35473,15908C35466,15916 35455,15930 35450,15940C35441,15958 35434,15955 35360,15909C35249,15840 35216,15833 35110,15854C35057,15865 35001,15885 34961,15906C34896,15942 34756,16044 34731,16074C34724,16083 34714,16090 34710,16090C34706,16090 34674,16046 34640,15993C34569,15884 34426,15689 34389,15650C34376,15636 34323,15594 34273,15556C34222,15518 34180,15483 34180,15478C34180,15465 34229,15382 34258,15344L34282,15313L34409,15396C34478,15442 34580,15510 34635,15547C34690,15585 34747,15620 34762,15627C34778,15634 34790,15644 34790,15650C34790,15655 34795,15660 34801,15660C34806,15660 34808,15655 34804,15649C34799,15641 34803,15641 34818,15649C34829,15655 34845,15660 34852,15660C34860,15660 34907,15621 34957,15573C35007,15524 35077,15460 35112,15429C35188,15362 35200,15331 35200,15211C35200,15153 35204,15130 35213,15130C35219,15130 35246,15119 35272,15105C35298,15091 35320,15080 35322,15080C35324,15080 35323,15134 35321,15201C35318,15328 35342,15553 35363,15578C35387,15608 35569,15680 35620,15680ZM35377,15988C35460,16044 35463,16049 35438,16088C35427,16106 35415,16120 35411,16120C35408,16120 35382,16104 35355,16084C35327,16064 35274,16032 35236,16013C35155,15972 35116,15972 35029,16012C34967,16040 34837,16158 34800,16219C34772,16264 34768,16267 34749,16244C34708,16194 34879,16006 35036,15929C35081,15907 35122,15890 35126,15891C35131,15892 35142,15890 35152,15886C35172,15877 35295,15932 35377,15988ZM35346,16167C35381,16193 35397,16159 35195,16482C35173,16516 35155,16552 35155,16560C35155,16588 35124,16579 35041,16525C34955,16470 34820,16346 34820,16322C34820,16301 34855,16238 34904,16173C35007,16037 35153,16011 35272,16108C35297,16129 35330,16155 35346,16167ZM35121,15050L35115,15182L35110,15314L35059,15367C35031,15396 34963,15449 34910,15485C34856,15520 34809,15554 34805,15560C34795.8,15574.7 34788.3,15573.4 34730.2,15533C34724.9,15529.3 34719.2,15525.3 34713,15521C34674,15494 34628,15465 34609,15457C34590,15448 34553,15423 34525,15401C34470,15356 34267,15220 34028,15067C33734,14878 33413,14665 33319,14594C33200,14505 33038,14392 32840,14260C32755,14203 32683,14155 32681,14153C32676,14150 32709,13810 32715,13800C32718,13796 32702,13714 32680,13619C32658,13524 32643,13443 32647,13439C32652,13435 32669,13434 32686,13437C32715,13441 32719,13447 32735,13503C32744,13537 32756,13579 32762,13595C32776,13643 32792,13878 32785,13960C32779,14043 32782,14053 32828,14078C32846,14087 32890,14121 32927,14152C33154,14343 33227,14399 33335,14466C33522,14583 33910,14837 33934,14858C33945,14869 33998,14905 34050,14940C34102,14975 34170,15020 34200,15040C34230,15060 34300,15107 34355,15144C34410,15181 34462,15217 34470,15224C34526,15269 34756,15399 34820,15422C34831,15426 34824,15439 34791,15474C34764.1,15501.5 34751.6,15519.7 34754,15525.7C34755.7,15530 34764.9,15528.1 34782,15519C34868,15474 35061,15275 35044,15249C35041,15244 35044,15197 35051,15145C35063,15050 35063,15050 35092,15050L35121,15050ZM35003,15050C35017,15050 35020,15054 35015,15068C35011,15077 35004,15119 34999,15160C34993,15201 34980,15253 34970,15275C34948,15320 34860,15412 34860,15390C34860,15383 34869,15367 34879,15356C34890,15344 34914,15305 34934,15269C34963,15216 34971,15188 34976,15127C34982,15059 34985,15050 35003,15050ZM34942,15052L34935,15123C34932,15163 34923,15205 34917,15216C34910,15228 34892,15262 34876,15291C34860,15321 34840,15350 34831,15357C34808,15374 34805,15374 34707,15325C34659,15301 34614,15280 34608,15278C34600,15275 34605,15262 34621,15240C34660,15185 34712,15089 34724,15048C34729,15031 34773,15031 34899,15046L34942,15052ZM34652,15030C34682,15030 34672,15058 34602,15173C34570,15225 34540,15252 34554,15214C34593,15112 34637,15030 34652,15030ZM34580,15036C34580,15038 34564,15074 34545,15115C34526,15156 34509,15190 34507,15190C34504,15190 34490,15180 34474,15168C34458,15156 34444,15145 34442,15144C34440,15143 34455,15120 34474,15092C34494,15065 34510,15038 34510,15033C34510,15028 34526,15026 34545,15028C34564,15030 34580,15034 34580,15036ZM34481,14995L34453,15057C34438,15091 34423,15119 34420,15119C34417,15119 34377,15095 34330,15066C34283,15037 34208,14991 34163,14964C34118,14937 34021,14873 33948,14822C33875,14771 33718,14666 33600,14590C33235,14355 33218,14343 33126,14268L33036,14194L33039,13975C33040,13786 33038,13744 33021,13675C33010,13631 33002,13594 33003,13594C33004.9,13594 33054.6,13645.6 33115,13709C33175,13773 33290,13886 33369,13960C33449,14034 33607,14185 33722,14295C33918,14482 34131,14680 34300,14830C34340,14866 34398,14918 34427,14945L34481,14995ZM34236,15284L34202,15330C34183,15355 34159,15393 34148,15415C34138,15437 34119,15469 34107,15487C34095,15505 34083,15519 34080,15519C34077,15518 34056,15507 34033,15493L33990,15469L34016,15435C34030,15416 34041,15398 34040,15395C34039,15390 34116,15233 34126,15221C34127,15220 34153,15233 34183,15251L34236,15284ZM34068,15176C34070,15177 34051,15217 34025,15264C33999,15311 33973,15350 33967,15349C33960,15349 33887,15305 33804,15252L33653,15156L33690,15079C33710,15037 33730,14992 33733,14980C33738,14959 33744,14962 33832,15024C33883,15060 33957,15108 33995,15131C34034,15154 34067,15174 34068,15176ZM33698,14926C33700,14927 33697,14936 33692,14947C33686,14957 33661,15009 33635,15063C33609,15116 33583,15160 33577,15160C33566,15159 33492,15123 33481,15114C33478,15112 33486,15093 33497,15072C33509,15052 33532,14999 33550,14955C33568,14911 33586,14871 33591,14866C33596,14860 33650,14889 33698,14926ZM33554,14828C33556,14832 33537,14882 33511,14939C33486,14997 33460,15045 33455,15046C33449,15048 33416,15029 33380,15004C33344,14980 33274,14937 33225,14909L33135,14858L33162,14801C33177,14770 33199,14717 33211,14683C33224,14648 33237,14620 33242,14620C33251,14620 33547,14817 33554,14828ZM33139,14536C33191,14567 33200,14576 33194,14594C33181,14636 33128,14756 33104,14798C33090,14821 33076,14840 33072,14840C33068,14839 33039,14826 33008,14810L32951,14780L32984,14713C33002,14675 33029,14614 33045,14575C33061,14537 33075,14504 33076,14502C33077,14501 33105,14516 33139,14536ZM33050,13454C33050,13462 33041,13460 33000,13445C32939,13422 32633,13364 32589,13367C32566,13368 32561,13364 32558,13339C32555,13322 32556,13308 32559,13306C32562,13304 32606,13311 32655,13322C32914,13377 32920,13378 32920,13360C32920,13345 32788,13308 32687,13295C32675,13294 32639,13289 32608,13285L32550,13278L32550,13234C32550,13183 32539,13179 32482,13210C32462,13220 32419,13240 32387,13254L32382.8,13255.8L32329,13279L32252,13233C31972,13065 31977,13068 32026,13049C32048,13041 32066,13050 32161,13115C32267.4,13187.6 32361.7,13241.4 32375,13237.6C32375.4,13237.4 32375.8,13237.2 32376,13237C32382,13232 32228,13101 32163,13055C32139,13038 32120,13022 32120,13018C32120,13015 32139,13009 32163,13005C32186,13002 32219,12994 32236,12989C32253,12984 32319,12976 32383,12972C32516,12964 32511,12958 32463,13054C32445,13090 32441,13105 32450,13114C32458,13122 32478,13108 32525,13059C32589,12992 32696,12922 32710,12937C32734,12963 32970,13316 32970,13326C32970,13329 32988,13358 33010,13390C33032,13422 33050,13451 33050,13454ZM33028,14468C33040,14476 33028,14513 32972,14643C32963,14663 32951,14680 32946,14680C32927,14679 32758,14570 32689,14515C32652,14485 32602,14437 32578,14408C32534,14357 32394,14158 32388,14138C32386,14133 32338,14123 32282,14116L32179,14104L32136,14054C32113,14027 32042,13938 31980,13855C31849,13681 31696,13492 31584,13367C31540,13318 31488,13259 31467,13235L31429,13192L31517,13185C31609,13177 31832,13184 32010,13201C32100,13209 32123,13215 32170,13243C32200,13261 32245,13286 32270,13299C32304,13317 32323,13337 32350,13384L32386,13445L32440,13443C32469,13441 32509,13435 32528,13429C32570,13415 32574,13420 32590,13509C32597,13545 32613,13619 32626,13673C32638,13727 32647,13776 32645,13783C32642,13790 32631,13869 32620,13960C32608,14051 32595,14127 32589,14128C32571,14135 32580,14171 32608,14197C32645,14232 32815,14345 32925,14408C32975,14436 33021,14463 33028,14468ZM32985,13705C33003,13778 33017,14079 33006,14125C32998,14155 32989,14156 32967,14132C32953,14117 32950,14090 32950,13979C32949,13806 32936,13678 32907,13563C32889,13495 32886,13470 32895,13470C32915,13470 32944,13521 32957,13580C32963,13610 32976,13667 32985,13705ZM32905,13810C32914,13868 32920,13954 32918,14002L32915,14088L32833,14040L32826,13864C32820,13725 32813,13668 32793,13592C32753,13438 32753,13450 32788,13450C32804,13450 32822,13456 32828,13463C32841,13478 32882,13664 32905,13810ZM32774,16288C32777,16327 32778,16360 32777,16360C32776,16360 32757,16314 32736,16257C32714,16201 32670,16103 32639,16040C32571,15903 32563,15878 32555,15780C32545,15663 32483,15266 32449,15108C32420,14970 32367,14757 32336,14657C32322,14612 32322,14609 32338,14614C32347,14616 32383,14626 32418,14636C32453,14645 32485,14660 32489,14669C32515,14718 32599,15064 32654,15345C32720,15685 32745,15883 32774,16288ZM32709,16318C32720,16346 32729,16370 32727,16369C32726,16368 32606,16350 32460,16329C32152,16283 31720,16198 31503,16141C31420,16118 31276,16074 31184,16042C31048.7,15995.3 31019.5,15983 31017.8,15967.4L30990,15970L30937,15950C30791,15893 30605,15797 30627,15789C30654,15779 30837,15586 30837,15566C30837,15557 30834,15550 30831,15550C30806,15550 30577,15757 30586,15771C30597,15789 30577,15780 30536,15748C30371,15617 29795,15016 29352,14510C29192,14327 29132,14253 29142,14247C29207,14209 29346,14121 29368,14104C29424,14058 29380,14073 29256,14141C29186,14180 29126,14209 29123,14206C29120,14204 29121,14143 29125,14072C29131,13959 29135,13943 29149,13947C29193,13958 29381,13976 29386,13969C29386.6,13967.9 29386.7,13966.8 29386.1,13965.7C29381.9,13958.1 29345.1,13951.3 29240,13939C29188,13933 29142,13926 29139,13924C29136,13922 29130,13712 29126,13458C29123,13203 29116,12969 29112,12938C29107,12906 29105,12880 29107,12880C29108,12880 29166,12908 29235,12942L29360,13004L29353,13042C29346,13088 29367,13607 29381,13745C29392.1,13849.1 29400.9,13916.9 29411.4,13965.5C29422.5,14017.2 29435.4,14047.1 29455,14076C29512,14163 29603,14264 29810,14470C29917,14577 30109,14773 30235,14905C30362,15036 30550,15231 30654,15336C30750.6,15434.4 30833.9,15520.6 30847.3,15535.1C30848.2,15536 30848.8,15536.7 30849,15537C30852,15542 30891,15558 30935,15572C31029,15603 31651,15757 31830,15795C31899,15809 32007,15834 32071,15850C32135,15866 32232,15884 32286,15890C32409,15903 32518,15927 32535,15944C32557,15966 32646,16156 32709,16318ZM32530,12995C32536,12992 32537,12996 32534,13004C32527,13022 32520,13025 32520,13011C32520,13005 32524,12998 32530,12995ZM32505,15705C32518,15799 32526,15878 32522,15881C32518,15884 32499,15883 32480,15879C32461,15874 32387,15864 32315,15855C32244,15847 32154,15831 32115,15821C32077,15810 31969,15785 31875,15765C31591,15703 31316,15634 31098,15568L30890,15505L30657,15275C30273,14896 29799,14412 29708,14305C29577,14151 29497,14048 29478,14010C29468,13991 29449,13905 29436,13820C29414,13686 29410,13619 29405,13323C29400,13026 29401,12980 29413,12980C29421,12980 29463,12954 29506,12923C29646,12822 29763,12746 29852,12701L29938,12656L29996,12687C30029,12704 30109,12736 30175,12758C30241,12780 30342,12817 30400,12840C30512,12885 30779,12982 30895,13020C30940,13035 30972,13052 30985,13069C30996,13083 31062,13153 31131,13225C31394,13498 31612,13754 31946,14180C32290,14621 32260,14569 32345,14880C32417,15147 32453,15333 32505,15705ZM32506,13290C32508,13290 32510,13312 32510,13339C32510,13387 32510,13388 32475,13392C32456,13394 32440,13395 32440,13393C32440,13387 32502,13290 32506,13290ZM32394,13287C32461,13255 32500,13241 32500,13249C32500,13254 32493,13263 32485,13270C32476,13277 32457,13305 32442,13331C32427,13358 32412,13380 32408,13380C32404,13380 32392,13362 32381,13341L32362,13301L32394,13287ZM32444,14598C32452,14612 32454,14612 32368,14591L32301,14575L32138,14360C32007,14186 31620,13713 31558,13649C31551,13642 31468,13545 31376,13435C31283,13325 31162,13189 31106,13133L31005,13030L31055,12986C31083,12962 31110,12944 31116,12947C31132,12953 31509,13362 31629,13504C31771,13671 31930,13877 32132,14155C32287,14368 32423,14561 32444,14598ZM31059,12909C31070,12916 31063,12928 31024,12967L30974,13015L30899,12988C30859,12973 30722,12921 30595,12874C30469,12826 30290,12761 30199,12729C29983,12653 29949,12633 29884,12540C29855,12499 29833,12464 29835,12462C29836,12460 29853,12466 29871,12474C29920,12496 30293,12636 30520,12719C30842,12837 30902,12858 30975,12879C31014,12890 31051,12904 31059,12909ZM29839,12530L29899,12620L29857,12641C29712,12715 29617,12774 29505,12859C29472,12884 29427,12917 29405,12932C29383,12947 29363,12959 29360,12959C29357,12959 29302,12933 29236,12902L29118,12845L29206,12779C29423,12618 29747,12420 29770,12435C29775,12438 29806,12481 29839,12530ZM29383,15055L29376,15180L29370,15304L29283,15390C29234,15437 29177,15490 29154,15507L29113,15539L29090,15498C29078,15476 29038,15427 29003,15389C28947,15330 28940,15319 28956,15314C29025,15289 29040,15280 29040,15261C29040,15249 29034,15240 29026,15240C29019,15240 28972,15189 28922,15128C28713,14868 28703,14857 28638,14784L28619,14762L28684,14767C28733,14771 28755,14769 28773,14757C28786,14749 28872,14719 28964,14690C29057,14662 29138,14636 29145,14634C29157,14629 29244,14777 29335,14960L29383,15055ZM29360,15379L29360,15418C29360,15455 29357,15458 29245,15542C29182,15590 29081,15658 29020,15694C28900,15766 28906,15763 28897,15754C28893,15750 28912,15734 28938,15717C29023,15663 29163,15555 29263,15466L29360,15379ZM29300,16098C29325,16121 29343,16139 29340,16139C29337,16138 29288,16108 29230,16072C28940,15891 28535,15722 28266,15671C28022,15624 27937,15610 27820,15595C27666,15575 27636,15569 27524,15530C27402,15487 27348,15455 27185,15329C27108,15269 27012,15200 26971,15174C26797,15066 26558,14963 26416,14934C26377,14927 26327,14916 26305,14910C26237,14894 26155,14898 26115,14920L26079,14940L26085,14833C26093,14696 26126,14400 26145,14294C26164,14192 26185,14132 26247,14000C26305,13878 26431,13709 26656,13454C26733,13365 26823,13260 26855,13221L26912,13150L26969,13197C27147,13345 27307,13541 27371,13689C27383,13717 27396,13740 27400,13740C27405,13740 27418,13724 27430,13705C27442,13686 27456,13670 27460,13670C27473,13670 27525,13591 27540,13549C27553,13514 27551,13509 27516,13444C27456,13334 27378,13246 27267,13162C27158,13079 27060,12992 27060,12978C27060,12974 27084,12937 27113,12897C27161,12832 27235,12718 27287,12632L27306,12600L27366,12630C27451,12673 27514,12723 27557,12780C27602,12838 27624,12841 27657,12791C27690,12742 27687,12702 27645,12647C27595,12581 27528,12545 27392,12510L27350,12499L27365,12471C27390,12422 27429,12312 27435,12272C27438,12251 27442,12225 27444,12215C27446,12204 27451,12164 27455,12125C27459,12087 27471,12034 27482,12008C27500,11966 27506,11960 27532,11960C27555,11960 27561,11964 27556,11976C27553,11985 27550,11999 27550,12008C27550,12020 27547,12021 27538,12012C27521,11995 27500,11997 27500,12015C27500,12037 27570,12079 27619,12088L27662,12095L27596,12142C27534,12187 27512,12220 27544,12220C27551,12220 27600,12190 27651,12152C27771,12067 27785,12057 27840,12036L27884,12019L27838,12068C27755,12157 27750,12277 27825,12425L27860,12495L27860,12660C27860,12751 27855,12859 27850,12900C27837,13003 27771,13305 27695,13610C27628,13879 27614,13953 27606,14090C27592,14316 27591,14366 27601,14520C27607,14611 27611,14700 27610,14718C27610,14736 27619,14789 27630,14837C27641,14884 27648,14925 27646,14927C27644,14929 27614,14894 27579,14848C27544,14802 27512,14761 27508,14755C27504,14750 27489,14732 27474,14715L27448,14685L27471,14725C27601,14953 27793,15204 27894,15278C28028,15377 28458,15605 28745,15731C28983,15834 29085,15902 29300,16098ZM29250,14502L29281,14539L29218,14558C29183,14569 29058,14608 28940,14645C28822,14681 28718,14713 28710,14715C28699,14717 28673,14673 28618,14562C28523,14370 28498,14313 28453,14185C28434,14130 28411,14072 28403,14056C28395,14041 28392,14024 28397,14020C28401,14016 28438,14000 28478,13985C28517,13969 28550,13953 28550,13948C28550,13941.3 28546.3,13937.1 28538.7,13935.4C28522.4,13931.7 28488.1,13939.6 28433,13960C28384,13978 28316,13996 28281,14000C28223,14008 28209,14005 28135,13979C28062,13952 28051,13945 28030,13909L28008,13868L28036,13886C28052,13896 28082,13919 28103,13937C28145,13974 28137,13973 28250,13960C28360,13947 28480,13912 28480,13892C28480,13879 28482,13879 28498,13892C28513.7,13905.8 28528.6,13913.4 28540.5,13913.9C28547.6,13914.4 28553.5,13912.5 28558,13908C28566,13900 28579,13904 28604,13923C28629,13943 28641,13963 28651,14001C28665,14055 28686,14075 28775,14117C28805,14131 28813,14132 28837,14120C28853,14113 28867,14107 28870,14108C28873,14109 28916,14125 28965,14143L29055,14177L29060,14222C29063,14247 29070,14274 29076,14281C29146,14372 29225,14472 29250,14502ZM29085,13542L29082,13591C29080,13618 29074,13640 29070,13640C29057,13640 28965,13781 28924,13865C28904,13906 28880,13966 28871,13999L28855,14058L28828,14044C28792,14025 28784,13981 28797,13874C28806,13800 28811,13786 28841,13753C28881,13708 28988,13613 29045,13571L29085,13542ZM29051,15504L29082,15562L29054,15586C29038,15599 29023,15609 29020,15610C29017,15610 29000,15581 28982,15545C28936,15458 28882,15399 28821,15370C28779,15351 28772,15344 28782,15334C28792,15324 28809,15324 28865,15334C28929,15347 28938,15351 28977,15396C29000,15423 29034,15471 29051,15504ZM29080,13685L29079,13835C29078,13918 29075,14017 29071,14055L29065,14125L29050,14070C29040,14035 29035,13969 29035,13885C29035,13767 29037,13751 29057,13720L29080,13685ZM29076,13512C29077,13514 29051,13536 29017,13562C28983,13587 28926,13634 28891,13666C28811,13739 28828,13700 28912,13618C28964,13567 29065,13502 29076,13512ZM29050,13452C29074,13461 29072,13462 29021,13488C28947,13526 28897,13571 28852,13638C28778,13750 28756,13833 28761,13974C28763,14021 28765,14060 28765,14060C28765,14059 28753,14052 28738,14044C28722,14036 28710,14026 28709,14022C28709,14018 28707,14006 28705,13995C28690,13923 28679,13802 28683,13773C28692,13720 28733,13639 28778,13589C28861,13496 28991,13430 29050,13452ZM29023,14073C29030.8,14098.4 29036.7,14119 29037,14119C29036,14119 29004,14109 28965,14097C28922,14083 28894,14068 28892,14059C28888,14036 28989,13790 29003,13790C29004,13790 29005,13843 29006,13908C29007,13984 29012,14041 29023,14073ZM28956,15557C28977,15596 28993,15630 28990,15633C28987,15635 28955,15658 28919,15683C28882,15709 28849,15730 28844,15730C28816,15728 28727,15670 28706,15639C28693,15620 28665,15591 28645,15576L28609,15548L28632,15523C28675,15475 28772,15410 28799,15410C28842,15410 28913,15476 28956,15557ZM28912,15185L28970,15246L28925,15268C28893,15284 28861,15290 28817,15290C28736,15290 28715,15304 28723,15353C28728,15386 28726,15391 28696,15410C28678,15421 28642,15452 28616,15480C28590,15507 28561,15530 28550,15530C28540,15530 28525,15539 28518,15549C28505,15568 28502,15567 28430,15528C28190,15398 27991,15279 27923,15225C27854,15169 27840,15153 27802,15077C27779,15030 27737,14933 27709,14863L27659,14735L27648,14531C27639,14378 27640,14282 27648,14147C27660,13964 27675,13885 27770,13520L27797,13415L27824,13535C27839,13601 27859,13666 27869,13680C27912,13741 28000,13943 28000,13981C28000,14079 28113,14592 28142,14627C28148,14635 28160,14640 28169,14639C28178,14637 28241,14655 28310,14677C28379,14700 28452,14722 28472,14725C28514,14733 28536,14755 28735,14985C28801,15062 28881,15152 28912,15185ZM28863,13447C28888,13452 28887,13453 28837,13487C28743,13550 28623,13710 28639,13752C28642,13761 28643,13796 28642,13829C28640,13863 28635,13890 28632,13890C28628,13890 28610,13876 28593,13860C28547,13818 28547,13763 28595,13666C28622,13610 28643,13584 28692,13544C28787,13467 28832,13441 28863,13447ZM28774,13401L28812,13412L28748,13455C28681,13500 28570,13613 28543,13665C28534,13682 28525,13728 28522,13768C28519,13807 28514,13840 28509,13840C28492,13840 28461,13786 28454,13744C28446,13692 28463,13617 28492,13575C28520,13533 28647,13430 28696,13409C28729,13394 28743,13393 28774,13401ZM28759,15895L28783,15907L28756,15914C28741,15918 28687,15939 28637,15961C28509,16017 28503,16018 28595,15968C28639,15944 28689,15915 28705,15903C28731,15885 28739,15884 28759,15895ZM28790,16670C28790,16674 28766,16680 28738,16684C28682,16690 28388,16690 28333,16683L28300,16679L28319,16642C28341,16599 28386,16555 28416,16546C28448,16536 28790,16650 28790,16670ZM28643,15610C28672,15637 28693,15659 28690,15659C28684,15659 28547,15589 28540,15583C28534,15577 28562,15560 28578,15560C28586,15560 28615,15582 28643,15610ZM28673,15860C28704,15860 28698,15876 28662,15895C28579,15939 28408,16040 28390,16057C28382,16065 28351,16087 28322,16106C28292,16125 28268,16140 28267,16140C28266,16140 28258,16135 28250,16130C28237,16121 28239,16117 28260,16100C28331,16042 28645,15860 28673,15860ZM28623,13347L28671,13377L28628,13405C28560,13450 28459,13551 28439,13595C28429,13617 28420,13647 28420,13662C28420,13677 28416,13691 28411,13694C28400,13701 28389,13688 28285,13540C28237,13471 28189,13406 28180,13395C28170,13384 28148,13337 28130,13290C28113,13243 28085,13172 28069,13131L28040,13056L28067,13027C28108,12985 28223,12933 28318,12914C28364,12905 28403,12900 28406,12902C28408,12905 28430,12978 28455,13065C28480,13152 28504,13228 28507,13233C28511,13239 28506,13241 28496,13237C28407,13202 28411,13228 28503,13277C28542,13299 28597,13330 28623,13347ZM28640,14705C28640,14712 28623,14710 28580,14699C28561,14694 28520,14685 28490,14679C28460,14673 28381,14651 28316,14629C28251,14608 28191,14590 28185,14590C28167,14590 28087,14249 28055,14038L28048,13991L28126,14017C28190,14037 28219,14041 28281,14038L28358,14033L28404,14149C28429,14213 28471,14319 28496,14385C28522,14451 28564,14549 28591,14602C28618,14656 28640,14702 28640,14705ZM28619,15839C28633,15847 28577,15882 28433,15954C28393,15974 28358,15990 28356,15990C28353,15990 28343,15975 28334,15958C28325,15940 28306,15912 28291,15897L28265,15869L28295,15847C28312,15835 28341,15810 28361,15792L28398,15760L28501,15796C28558,15816 28611,15835 28619,15839ZM28535,12732C28538,12761 28540,12876 28538,12987L28535,13189L28503,13076C28485,13014 28470,12948 28470,12929C28470,12883 28451,12778 28439,12764C28434,12758 28442,12747 28461,12736C28477,12726 28499,12709 28509,12698C28528,12678 28528,12679 28535,12732ZM28530,12505C28530,12604 28491,12683 28430,12705C28411,12712 28386,12721 28375,12726C28321,12746 28236,12730 28139,12682C28043,12635 28006,12603 27933,12504C27836,12373 27802,12262 27830,12161C27843,12112 27903,12048 27976,12005C28018,11980 28030,11978 28091,11982C28224,11992 28342,12077 28435,12229C28484,12311 28530,12443 28530,12505ZM28431,13803L28458,13855L28326,13887C28254,13905 28188,13920 28179,13920C28151,13920 28076,13863 27999,13784L27924,13705L27896,13585C27881,13519 27858,13425 27846,13377L27823,13289L27847,13192C27878,13063 27900,12935 27900,12883C27900,12859 27904,12840 27908,12840C27916,12840 28012,13093 28045,13200C28086,13333 28122,13413 28159,13458C28346,13680 28409,13759 28431,13803ZM28405,16494C28440,16503 28436,16516 28395,16530C28351,16544 28282,16622 28274,16666C28270,16690 28262,16700 28250,16700C28240,16700 28224,16703 28215,16706C28197,16713 28207,16693 28277,16578C28315,16514 28362,16483 28405,16494ZM28396,12853C28400,12864 28388,12869 28347,12874C28258,12884 28165,12918 28094,12965C28057,12990 28026,13010 28025,13010C28023,13010 28020,13001 28017,12990C28010,12962 28087,12896 28158,12870C28274,12826 28390,12806 28390,12829C28390,12834 28392,12845 28396,12853ZM28379,16098L28357,16149C28346,16177 28333,16200 28329,16200C28324,16200 28314,16190 28306,16178C28289,16154 28287,16158 28352,16116L28379,16098ZM28339,12770C28408,12770 28404,12784 28334,12788C28303,12789 28241,12803 28196,12817C28152,12832 28087,12864 28053,12887L27990,12930L27984,12904C27979,12883 27985,12871 28016,12839C28038,12817 28079,12787 28108,12773C28159,12748 28165,12747 28224,12758C28259,12765 28310,12770 28339,12770ZM28324,16341L28348,16445L28311,16480C28290,16499 28257,16543 28236,16578C28215,16612 28197,16640 28194,16640C28192,16640 28175,16609 28155,16571C28136,16533 28089,16460 28050,16408L27980,16315L28013,16300C28069,16275 28140,16218 28147,16192C28156,16154 28142,16082 28113,16021L28085,15964L28132,15948L28180,15932L28211,15967C28264,16028 28268,16045 28231,16075C28214,16090 28200,16107 28200,16113C28200,16119 28222,16149 28250,16181C28295,16233 28302,16247 28324,16341ZM28304,15991C28319,16014 28319,16018 28306,16023C28295,16027 28286,16019 28275,15997C28267,15979 28245,15949 28227,15929C28197,15897 28189,15870 28209,15870C28216,15870 28273,15943 28304,15991ZM28263,10801C28314,10864 28312,10894 28254,10967C28135,11115 28010,11222 27889,11278C27763,11337 27739,11346 27635,11375C27583,11389 27534,11402 27528,11404C27521,11406 27493,11402 27465,11394C27438,11387 27404,11380 27391,11380C27371,11380 27370,11378 27380,11365C27387,11357 27399,11350 27407,11350C27414,11350 27423,11344 27426,11336C27429,11328 27443,11319 27457,11315C27471,11312 27516,11293 27555,11274C27595,11255 27631,11240 27634,11240C27649,11240 27822,11136 27872,11097C27995,11002 28134,10848 28166,10773C28188,10723 28204,10728 28263,10801ZM28115,16140C28121,16185 28121,16185 28073,16217C28047,16235 28005,16256 27980,16264C27955,16271 27928,16281 27919,16284C27910,16288 27898,16284 27890,16275C27880,16262 27881,16260 27897,16260C27921,16260 28004,16208 28036,16172C28071,16134 28064,16079 28017,16009C27988,15966 27984,15954 27996,15952C28034,15943 28102,16052 28115,16140ZM28120,12721C28120,12724 28101,12736 28078,12746C28054,12756 28017,12779 27995,12796L27955,12826L27932,12776C27915,12736 27910,12706 27910,12641L27910,12558L27965,12609C27996,12637 28043,12672 28070,12687C28098,12702 28120,12718 28120,12721ZM27966,15991C27988,16009 28040,16101 28040,16122C28040,16141 27981,16185 27911,16219C27886,16230 27865,16240 27864,16240C27853,16240 27806,16148 27792,16097L27781,16059L27865,16018C27938,15983 27952,15979 27966,15991ZM27926,11866C28003,11872 28007,11874 28002,11895C27998,11918 27996,11918 27835,11918C27746,11918 27659,11921 27641,11925C27612,11931 27610,11930 27610,11902C27610,11876 27614,11872 27648,11866C27696,11858 27823,11858 27926,11866ZM27987,11943C27998,11955 27984,11961 27914,11975C27877,11983 27818,12003 27782,12020C27733,12043 27703,12050 27659,12050L27600,12050L27600,12001C27600,11959 27603,11950 27621,11945C27649,11936 27978,11935 27987,11943ZM27835,11724L27850,11760L27819,11753C27784,11746 27770,11759 27770,11803C27770,11830 27769,11830 27703,11830C27665,11830 27626,11833 27615,11836C27599,11840 27590,11831 27571,11795C27558,11770 27523,11717 27493,11678C27464,11639 27442,11605 27444,11603C27446,11601 27475,11613 27508,11630C27584,11668 27627,11670 27640,11634C27654,11599 27653,11504 27639,11477C27632,11465 27621,11451 27614,11447C27589,11432 27600,11423 27658,11411C27689,11404 27743,11387 27778,11373C27813,11359 27843,11350 27844,11352C27846,11353 27845,11373 27842,11396L27838,11437L27790,11432C27746,11428 27738,11431 27710,11458C27694,11475 27680,11498 27680,11511C27680,11565 27765,11680 27805,11680C27813,11680 27820,11682 27820,11684C27820,11686 27827,11704 27835,11724ZM27576,12635C27634,12675 27648,12706 27629,12752C27616,12785 27604,12788 27595,12760C27576,12700 27427,12611 27225,12540C27035,12473 26957,12405 26883,12243C26864.6,12202.7 26857.7,12175.4 26854.3,12107.3C26853.8,12097.7 26853.4,12087.3 26853,12076C26847,11940 26861,11877 26930,11741C26978,11645 27024,11591 27115,11524C27176,11479 27207,11467 27214,11487C27220,11503 27205,11520 27186,11520C27162,11520 27063,11601 27016,11657C26939,11750 26878,11927 26877,12062C26876.7,12079.6 26876.8,12093.7 26877.6,12106C26880,12142 26888.5,12162.8 26913,12212C26957,12301 27028,12388 27094,12435C27121,12454 27180,12481 27224,12495C27385,12544 27524,12599 27576,12635ZM27608,11525C27610,11527 27608,11549 27605,11574C27601,11599 27595,11620 27591,11620C27585,11620 27384,11524 27280,11472L27235,11449L27310,11454C27369,11458 27593,11512 27608,11525ZM27600,11481C27600,11493 27573,11491 27520,11474C27455,11453 27344,11430 27307,11430C27283,11430 27279,11427 27290,11420C27314,11404 27378,11408 27480,11431C27573,11452 27600,11464 27600,11481ZM27548,11825C27577,11874 27571,11907 27532,11916C27517,11919 27499,11923 27492,11926C27485,11928 27465,11959 27449,11995C27429,12037 27412,12060 27402,12060C27392,12060 27362,12046 27333,12030C27290,12005 27277,11990 27251,11938C27213,11857 27203,11810 27224,11810C27249,11810 27267,11770 27281,11687C27295,11600 27310,11584 27360,11595C27382,11600 27406,11624 27457,11693C27494,11744 27535,11803 27548,11825ZM27512,13521L27485,13562C27470,13584 27446,13613 27431,13626C27417,13639 27403,13650 27399,13650C27396,13650 27385,13631 27373,13608C27316,13489 27097,13231 26965,13125C26838,13023 26732,12866 26695,12723C26687,12692 26672,12648 26661,12626C26648,12597 26639,12544 26631,12450C26612,12201 26647,12038 26755,11874C26823,11769 26891,11688 26934,11657L26965,11635L26934,11675C26917,11697 26888,11744 26870,11779C26853,11815 26832,11850 26824,11857C26799,11882 26749,12000 26735,12068C26716,12154 26716,12308 26734,12402C26763,12551 26851,12763 26937,12891C26964,12932 26989,12970 26991,12976C26998,12995 27122,13103 27224,13180C27338,13265 27399,13331 27464,13440L27512,13521ZM27388,12085C27424,12092 27427,12101 27404,12124C27387,12142 27370,12143 27324,12129C27264,12112 27175,11999 27166,11928C27163,11910 27157,11876 27152,11853C27143,11815 27144,11810 27160,11810C27173,11810 27181,11823 27189,11856C27221,11982 27292,12064 27388,12085ZM27364,12176C27405,12183 27408,12198 27389,12276C27374,12336 27363,12339 27349,12288C27343,12264 27335,12241 27330,12235C27326,12230 27318,12210 27312,12191C27302,12164 27303,12159 27314,12163C27322,12166 27345,12172 27364,12176ZM27350,11564C27350,11566 27337,11570 27320,11572C27294,11576 27290,11573 27290,11553C27290,11530 27291,11530 27320,11545C27337,11554 27350,11562 27350,11564ZM27305,12288C27324,12339 27340,12388 27339,12398C27339,12407 27331,12432 27322,12452L27305,12489L27238,12461C27201,12445 27155,12423 27136,12411C27083,12378 26988,12269 26955,12203C26927,12150 26925,12137 26926,12045C26926,11960 26931,11931 26958,11853C26991,11757 27040,11661 27067,11638C27082,11627 27083,11627 27075,11645C27041,11729 27037,11749 27054,11775C27063,11789 27077,11800 27085,11800C27095,11800 27100,11811 27100,11833C27101,11908 27191,12094 27240,12120C27250,12125 27260,12144 27264,12162C27268,12180 27286,12237 27305,12288ZM27228,11695C27235,11605 27248,11555 27248,11620C27248,11645 27242,11688 27235,11715L27223,11765L27228,11695ZM27180,12560C27219,12572 27250,12583 27250,12585C27250,12589 27174,12712 27095,12835C27074,12868 27049,12905 27039,12918L27022,12940L26980,12883C26922,12802 26856,12660 26809,12518C26760,12368 26750,12262 26774,12119C26796,11981 26809,11956 26809,12047C26811,12177 26846,12281 26927,12392C26972,12455 27092,12534 27180,12560ZM27147,11599C27174,11558 27228,11525 27216,11557C27202,11591 27190,11673 27190,11726C27190,11785 27187,11787 27115,11771C27064,11760 27074,11710 27147,11599ZM27146,10916C27171,10922 27172,10924 27155,10931C27127,10942 27122,10941 27115,10929C27104,10913 27115,10908 27146,10916ZM26960,15718C26971,15746 26978,15770 26977,15770C26966,15770 26838,15550 26737,15359C26677,15245 26623,15144 26593,15092L26568,15049L26597,15063C26614,15072 26638,15102 26658,15141C26691,15203 26916,15621 26931,15650C26936,15658 26949,15689 26960,15718ZM26925,15233C26928,15240 26926,15258 26922,15274L26914,15303L26899,15279C26890,15266 26878,15240 26872,15223L26861,15190L26891,15206C26908,15214 26923,15226 26925,15233ZM26895,15468C26927,15566 26905,15554 26853,15444C26825,15384 26771,15280 26735,15212C26669,15090 26668,15089 26699,15105C26724,15118 26744,15149 26804,15269C26845,15350 26886,15440 26895,15468ZM26910,15363C26910,15405 26889,15378 26838,15269C26784,15156 26780,15141 26806,15158C26821,15167 26910,15344 26910,15363ZM26813,15543C26851,15619 26881,15683 26878,15685C26875,15688 26855,15671 26834,15648C26799,15610 26578,15192 26527,15068C26498,14999 26534,15038 26585,15132C26613,15183 26659,15265 26689,15314C26718,15364 26774,15467 26813,15543ZM26733,15538C26749,15567 26760,15590 26758,15590C26756,15590 26742,15580 26727,15567C26705,15550 26699,15538 26702,15515C26705,15487 26706,15488 26733,15538ZM26665,15411C26674,15427 26677,15451 26673,15478C26664,15543 26650,15527 26650,15453C26651,15389 26652,15387 26665,15411ZM26626,15331C26633,15344 26639,15378 26639,15405C26638,15475 26629,15505 26613,15489C26599,15475 26597,15441 26607,15361C26613,15311 26614,15309 26626,15331ZM26566,15286C26578,15282 26579,15296 26574,15368C26570,15416 26566,15456 26565,15458C26564,15459 26558,15455 26552,15447C26536,15428 26548,15293 26566,15286ZM26568,15217C26574,15226 26580,15236 26580,15239C26580,15242 26536,15269 26483,15298C26380,15354 26375,15355 26346,15338C26330,15329 26342,15319 26441,15264C26545,15206 26556,15202 26568,15217ZM26534,15157C26538,15166 26539,15174 26538,15175C26536,15176 26479,15206 26410,15242C26300,15300 26282,15307 26262,15296C26242,15285 26252,15279 26384,15213C26504,15153 26529,15144 26534,15157ZM26510,15320C26516,15320 26520,15340 26520,15364C26520,15411 26512,15424 26491,15411C26482,15405 26481,15400 26489,15396C26495,15392 26500,15373 26500,15354C26500,15335 26505,15320 26510,15320ZM26505,15101C26509,15107 26510,15113 26509,15115C26507,15116 26437,15152 26354,15193C26221,15260 26200,15267 26184,15256C26168,15243 26169,15241 26207,15221C26230,15210 26283,15187 26325,15170C26367,15153 26423,15129 26450,15115C26482,15099 26501,15094 26505,15101ZM26474,15048C26487,15070 26469,15080 26309,15146C26232,15177 26167,15207 26164,15212C26161,15216 26153,15220 26146,15220C26130,15220 26095,15182 26103,15174C26106,15171 26189,15138 26287,15100C26438,15043 26466,15035 26474,15048ZM26439,15361C26457,15351 26460,15352 26460,15370C26460,15392 26453,15395 26431,15381C26420,15374 26422,15370 26439,15361ZM26408,15005C26427,15008 26440,15013 26439,15014C26437,15016 26379,15037 26310,15060C26241,15084 26162,15113 26133,15126C26090,15145 26081,15146 26076,15134C26069,15117 26111,15097 26274,15035C26350,15007 26382,15000 26408,15005ZM26302,14980C26336,14980 26316,14991 26207,15032C26075,15083 26070,15084 26070,15073C26070,15061 26273,14980 26302,14980ZM26237,14965C26254,14972 26254,14972 26235,14980C26224,14984 26184,15000 26145,15014L26075,15040L26107,15011C26143,14977 26210,14954 26237,14965Z"></path>
                <g transform="matrix(47.8693,-1.95118e-31,-1.95118e-31,-47.8693,-2086.01,17734.2)">
                    <path style="fill:rgb(84,87,250);fill-rule:nonzero;" d="M636.775,217.469C636.784,217.572 636.793,217.67 636.796,217.764C636.838,218.62 636.796,222.756 636.713,226.955L636.546,234.58L633.015,227.477C631.093,223.571 629.401,220.166 629.276,219.894C629.15,219.644 628.962,219.435 628.837,219.435C628.566,219.435 628.231,218.16 626.1,208.99C625.223,205.25 624.283,201.218 624.011,200.007C623.719,198.795 623.071,196.079 622.57,193.949L623.042,193.836C623.598,196.148 624.227,198.764 624.847,201.365C628.586,216.97 628.795,217.764 629.819,219.644C630.299,220.5 631.553,222.944 632.618,225.075C633.684,227.206 634.54,228.856 634.561,228.752C634.561,228.668 633.621,225.18 632.493,221.022C631.344,216.886 630.299,212.917 630.174,212.228C629.944,211.079 627.751,202.973 624.429,191.045C623.677,188.35 623.113,186.115 623.155,186.073C623.259,185.969 623.239,185.906 626.497,197.604C627.939,202.764 629.506,208.279 629.965,209.825C631.427,214.672 635.606,229.337 635.606,229.608C635.606,229.754 635.689,229.88 635.794,229.88C635.919,229.88 636.002,229.713 635.982,229.504C635.982,229.316 636.044,226.516 636.128,223.299L636.274,217.45L635.418,214.902C634.937,213.523 634.561,212.207 634.561,211.977C634.561,211.687 632.902,206.627 631.139,201.409L631.607,201.248C632.969,205.269 634.122,208.607 634.436,209.387C635.708,212.539 636.596,215.637 636.771,217.425L636.775,217.469ZM620.742,174.792C620.82,174.51 620.715,174.105 620.46,173.894C620.293,173.748 620.147,173.309 620.147,172.933C620.147,172.306 620.23,172.202 620.773,172.077C621.275,171.993 621.379,171.868 621.296,171.575C621.233,171.387 620.92,170.426 620.585,169.465L620.001,167.731L619.186,167.711C618.747,167.69 618.162,167.711 617.912,167.773C617.473,167.857 617.473,167.878 617.765,168.734C617.932,169.215 618.308,170.447 618.601,171.471C618.956,172.724 619.332,173.581 619.75,174.04C620.084,174.437 620.356,174.834 620.356,174.959C620.356,174.98 620.358,174.997 620.364,175.012L619.879,175.083C619.714,174.759 619.37,174.291 619.04,173.999C618.559,173.56 618.183,172.85 617.744,171.533C617.713,171.444 617.686,171.358 617.657,171.277C617.07,169.518 617.168,169.643 615.091,169.862C614.381,169.946 614.298,170.008 614.298,170.573L614.298,171.178L613.932,171.231C613.671,170.911 613.462,170.531 613.462,170.28C613.462,170.113 613.337,169.925 613.169,169.862C612.877,169.737 612.292,167.564 612.48,167.272C612.605,167.063 612.208,165.12 611.603,163.031C611.352,162.175 610.955,160.587 610.684,159.501L610.224,157.558L608.95,157.077C607.32,156.472 602.119,153.839 599.027,152.064C597.732,151.312 596.604,150.706 596.541,150.706C596.478,150.706 596.29,150.372 596.144,149.975C595.851,149.139 596.039,148.596 596.854,148.074C597.752,147.489 598.212,147.677 605.795,151.625C607.947,152.753 609.764,153.631 609.806,153.589C609.869,153.547 609.764,152.837 609.597,152.043C609.242,150.309 608.845,146.006 608.991,145.609C609.054,145.442 608.845,145.233 608.448,145.066C607.55,144.69 605.252,143.185 605.377,143.06C605.419,142.997 606.255,142.914 607.195,142.872L607.23,143.48L606.902,143.499L608.553,144.272C612.334,146.027 614.444,146.57 618.747,146.862C621.714,147.059 622.002,147.422 619.662,148.159L619.416,147.656L617.431,147.489C614.903,147.28 612.814,146.883 611.477,146.361C610.913,146.131 610.266,145.88 610.036,145.797C609.66,145.63 609.66,145.713 609.785,147.28C610.036,149.891 610.704,153.881 610.955,154.132C611.248,154.424 614.381,154.571 615.3,154.32L615.99,154.153L616.094,152.314C616.157,151.312 616.282,150.267 616.366,150.017C616.403,149.918 616.426,149.837 616.426,149.764L617.013,149.764L617.013,151.646C617.013,153.275 617.076,153.631 617.327,153.631C617.556,153.631 617.64,153.881 617.661,154.508C617.724,155.761 617.744,155.908 618.037,156.994C618.288,157.934 618.329,157.955 620.001,158.644C620.941,159.02 622.842,159.919 624.241,160.65C625.62,161.381 627.563,162.3 628.566,162.697C630.571,163.512 633.161,164.911 633.893,165.601C634.895,166.541 634.018,168.254 632.514,168.254C631.26,168.254 626.685,166.165 621.233,163.115C619.917,162.384 618.81,161.799 618.768,161.84C618.726,161.882 618.789,162.258 618.914,162.676C619.06,163.219 619.311,163.553 619.792,163.783C620.732,164.264 621.609,165.12 621.609,165.58C621.609,165.789 621.421,166.332 621.191,166.791L620.773,167.606L621.4,169.507C621.755,170.573 622.027,171.554 622.027,171.721C622.027,171.889 622.215,172.014 622.466,172.014C623.489,172.014 624.304,172.954 623.907,173.685C623.719,174.04 623.761,174.103 624.199,174.228C624.901,174.408 625.309,174.884 625.325,175.519L624.872,175.534C624.872,175.139 624.429,174.713 623.74,174.521C622.386,174.143 621.363,174.322 621.281,174.82C621.256,174.982 621.331,175.177 621.526,175.398C622.34,176.296 624.158,176.568 624.743,175.879C624.83,175.772 624.872,175.653 624.872,175.534L625.325,175.519C625.332,175.622 625.323,175.726 625.307,175.837C625.202,176.484 625.244,176.568 625.912,176.798C626.811,177.111 627.061,177.884 626.539,178.761C626.205,179.367 626.205,179.409 626.623,179.848C626.794,180.036 626.944,180.27 627.007,180.456C627.028,180.516 627.041,180.575 627.041,180.621C627.041,180.851 628.106,181.247 631.072,182.104C633.266,182.752 635.689,183.441 636.441,183.608C637.193,183.796 637.883,184.047 637.987,184.13C638.259,184.402 637.256,184.736 636.525,184.653C636.19,184.611 634.749,184.527 633.308,184.444C631.866,184.381 629.631,184.172 628.315,184.005C627.02,183.838 625.912,183.733 625.871,183.775C625.789,183.844 629.065,193.738 631.607,201.248L631.139,201.409C629.852,197.611 628.509,193.729 627.709,191.546C626.915,189.353 625.954,186.658 625.578,185.53C625.223,184.423 624.826,183.504 624.743,183.504C624.638,183.504 623.823,183.399 622.925,183.274C622.027,183.169 621.129,183.023 620.941,182.96C620.418,182.814 620.46,183.107 621.275,186.512C621.515,187.496 622.196,190.314 623.042,193.836L622.57,193.949C621.442,189.207 620.314,185.3 619.52,183.524L618.935,182.167L615.196,180.997C613.149,180.349 610.955,179.618 610.328,179.367C609.702,179.117 608.636,178.761 607.989,178.573C606.777,178.26 606.338,177.926 606.735,177.675C606.85,177.61 608.187,177.619 610.172,177.688L610.149,178.3C609.971,178.289 609.871,178.304 609.911,178.344C610.266,178.741 618.893,181.623 619.708,181.623C619.886,181.623 620.053,181.644 620.184,181.678C620.314,181.711 620.408,181.759 620.439,181.811C620.502,181.916 621.003,182.104 621.546,182.229C622.654,182.48 631.365,183.504 632.368,183.483C632.723,183.483 631.783,183.107 630.174,182.626C627.35,181.768 627.151,181.749 625.261,181.945C625.221,181.949 625.181,181.954 625.14,181.958C624.22,182.041 623.803,181.999 623.259,181.707C622.863,181.498 622.09,181.31 621.505,181.268C621.122,181.252 620.717,181.195 620.312,181.107L620.001,181.034C618.43,180.637 616.92,179.812 616.7,179.117C616.637,178.887 616.407,178.72 616.219,178.761C616.031,178.782 614.841,178.72 613.566,178.636C612.313,178.553 610.934,178.406 610.537,178.344C610.389,178.321 610.253,178.306 610.149,178.3L610.172,177.688C611.41,177.73 612.902,177.796 614.506,177.884C615.781,177.968 615.864,177.947 615.927,177.487C615.969,177.237 615.864,176.902 615.697,176.735C615.53,176.568 615.196,175.774 614.924,174.939C614.486,173.539 614.465,173.414 614.778,172.641C615.091,171.847 615.07,171.805 614.715,171.805C614.506,171.805 614.193,171.55 613.932,171.231L614.298,171.178L615.864,171.178C616.884,171.178 617.281,171.22 617.393,171.368C617.421,171.404 617.431,171.446 617.431,171.492C617.431,171.701 617.201,171.805 616.7,171.805C616.094,171.805 615.969,171.889 615.969,172.223C615.969,172.453 615.843,172.975 615.676,173.351C615.509,173.748 615.446,174.145 615.551,174.228C615.634,174.333 616.199,175.503 616.804,176.84C617.807,179.075 617.974,179.346 618.893,179.931C619.391,180.245 619.748,180.42 620.151,180.506L620.162,180.508C620.399,180.559 620.653,180.579 620.961,180.579L622.048,180.579L622.674,179.179C623.364,177.654 623.385,177.153 622.758,177.069C622.466,177.048 622.152,177.299 621.714,177.968C621.024,178.991 621.024,178.991 620.272,178.699C619.792,178.532 619.75,178.448 619.938,177.968C620.209,177.257 620.209,175.962 619.938,175.21C619.921,175.17 619.902,175.129 619.879,175.083L620.364,175.012C620.389,175.089 620.477,175.095 620.565,175.043C620.65,174.993 620.709,174.905 620.74,174.799L620.742,174.792ZM626.531,180.505L626.533,180.51C626.681,180.938 626.328,181.298 625.557,181.415C625.438,181.431 625.323,181.446 625.213,181.454C624.279,181.538 623.661,181.339 623.343,180.871C622.8,180.015 623.113,179.743 624.596,179.743C625.683,179.743 625.996,179.827 626.33,180.182C626.429,180.293 626.495,180.402 626.531,180.505ZM624.492,179.117C625.704,179.117 626.33,178.615 626.121,177.801C626.038,177.404 625.787,177.237 625.077,177.048C623.886,176.756 623.949,176.735 624.053,177.32C624.116,177.592 624.011,178.114 623.823,178.469L623.468,179.117L624.492,179.117ZM621.484,177.174L622.006,176.422L621.505,176.108C620.794,175.649 620.773,175.67 620.773,176.589C620.773,177.048 620.69,177.654 620.565,177.947C620.418,178.365 620.439,178.448 620.669,178.344C620.836,178.281 620.982,178.156 620.982,178.072C620.982,177.989 621.212,177.592 621.484,177.174ZM647.534,172.265C647.931,172.996 647.388,173.748 645.779,174.792C644.964,175.335 644.108,175.774 643.92,175.774C643.147,175.774 643.606,175.127 645.069,174.166C645.884,173.622 646.573,173.017 646.573,172.85C646.573,172.682 646.134,172.327 645.591,172.077C644.609,171.617 644.442,171.408 644.735,171.095C645.09,170.761 647.2,171.638 647.534,172.265ZM622.298,173.894C623.134,173.894 623.364,173.664 623.176,173.058C623.071,172.703 622.863,172.641 621.902,172.641C621.087,172.641 620.773,172.724 620.773,172.912C620.773,173.414 621.526,173.894 622.298,173.894ZM644.4,170.259C644.63,170.531 644.588,170.74 644.15,171.513C643.878,172.035 643.356,172.724 643.001,173.079C642.458,173.602 642.311,173.664 642.123,173.414C641.914,173.184 642.04,172.912 642.625,172.139C643.042,171.596 643.314,171.095 643.251,171.032C643.189,170.969 642.52,171.22 641.747,171.575C640.891,171.972 640.264,172.16 640.139,172.035C639.846,171.742 640.745,171.053 642.165,170.468C643.669,169.841 644.024,169.82 644.4,170.259ZM638.635,169.946C640.452,168.546 641.246,168.17 641.246,168.734C641.246,169.027 640.912,169.34 639.784,170.134C639.387,170.405 638.676,170.949 638.238,171.325C637.381,172.035 636.566,172.244 636.692,171.721C636.734,171.554 637.611,170.761 638.635,169.946ZM638.739,168.755C638.739,169.298 637.715,169.967 636.754,170.092C635.961,170.176 635.71,170.113 635.292,169.716C634.624,169.089 634.624,168.609 635.313,168.066C635.689,167.773 636.17,167.627 636.754,167.627C637.674,167.627 638.739,168.233 638.739,168.755ZM616.595,168.337C616.595,168.212 616.449,167.961 616.261,167.815C616.073,167.669 615.843,167.335 615.739,167.063C615.634,166.791 615.488,166.603 615.405,166.603C615.133,166.645 613.149,167.523 613.044,167.627C613.002,167.69 613.044,168.128 613.107,168.609C613.253,169.465 613.295,169.507 614.026,169.507C614.862,169.507 616.595,168.734 616.595,168.337ZM637.193,168.985C637.527,168.713 637.548,168.651 637.277,168.463C637.11,168.358 636.796,168.254 636.608,168.254C636.19,168.254 635.564,168.839 635.71,169.11C635.898,169.403 636.734,169.34 637.193,168.985ZM633.12,166.979C633.475,166.624 633.496,166.499 633.287,166.248C632.89,165.768 630.926,164.765 625.369,162.196C623.594,161.381 622.09,160.629 622.027,160.524C621.964,160.42 620.648,159.751 619.123,159.062C616.261,157.767 603.518,151.437 603.121,151.145C603.017,151.04 602.139,150.581 601.199,150.1C599.089,149.035 597.752,148.617 597.293,148.868C596.708,149.181 596.917,149.829 597.752,150.351C598.734,150.978 607.55,155.448 614.277,158.749C617.097,160.127 619.917,161.569 620.544,161.966C622.236,162.968 626.999,165.287 627.145,165.162C627.208,165.099 627.249,165.141 627.249,165.266C627.249,165.496 627.646,165.705 630.153,166.708C632.18,167.543 632.535,167.564 633.12,166.979ZM620.732,166.29C620.941,165.81 620.878,165.684 619.896,164.828C618.455,163.512 617.912,163.533 617.013,164.932C616.324,165.977 616.324,165.998 616.658,166.708C617.013,167.418 617.013,167.418 617.619,167.105C617.974,166.938 618.747,166.791 619.374,166.791C620.356,166.791 620.523,166.729 620.732,166.29ZM615.99,165.246L616.428,164.681L614.632,164.744C613.357,164.786 612.856,164.87 612.919,165.058C612.981,165.183 613.086,165.642 613.169,166.039C613.232,166.457 613.337,166.791 613.357,166.791C613.754,166.791 615.655,165.663 615.99,165.246ZM616.533,163.324C618.016,162.509 618.141,162.363 617.974,161.694C617.786,160.921 617.41,160.942 616.073,161.799C615.384,162.237 614.402,162.76 613.88,162.968C613.357,163.157 612.835,163.386 612.71,163.491C612.585,163.574 612.438,163.595 612.355,163.533C612.292,163.47 612.292,163.616 612.355,163.867C612.48,164.305 612.543,164.326 613.859,164.201C614.862,164.097 615.593,163.867 616.533,163.324ZM616.804,160.712C616.804,160.441 615.154,160.399 614.799,160.671C614.277,161.047 612.229,161.611 611.979,161.444C611.728,161.297 611.916,162.592 612.188,162.885C612.355,163.052 616.804,160.963 616.804,160.712ZM613.107,160.503C614.277,160.211 614.214,160.086 612.626,159.501C612,159.25 611.415,159.062 611.352,159.062C611.289,159.062 611.31,159.543 611.436,160.107C611.582,160.838 611.707,161.088 611.874,160.963C612,160.859 612.564,160.65 613.107,160.503ZM617.013,156.66C617.013,156.263 616.992,156.263 616.47,156.66C616.073,156.952 616.094,156.952 616.554,156.973C616.825,156.973 617.013,156.848 617.013,156.66ZM616.971,155.135C617.055,154.612 616.93,154.612 615.551,155.009C615.029,155.156 614.277,155.281 613.88,155.302L613.149,155.323L614.214,155.866L615.3,156.409L616.094,155.991C616.595,155.74 616.93,155.406 616.971,155.135ZM634.77,136.396C634.77,136.835 633.851,136.793 632.347,136.292C630.508,135.644 629.338,135.038 629.338,134.704C629.338,134.328 629.15,134.307 631.302,135.038L633.14,135.644L632.764,135.08C632.576,134.767 632.2,134.203 631.929,133.806C631.678,133.43 631.511,132.97 631.574,132.824C631.636,132.657 631.804,132.531 631.95,132.531C632.43,132.531 634.77,135.728 634.77,136.396ZM637.695,134.85L638.227,134.896C638.181,135.36 638.117,135.83 638.035,136.3L637.465,136.208L636.754,135.247C636.044,134.265 634.143,132.406 632.368,130.944L631.344,130.108L631.72,129.126C632.196,127.856 632.806,127.303 634.277,126.983L634.354,127.553C634.032,127.585 633.738,127.718 633.433,127.957C632.848,128.416 632.263,129.377 632.263,129.899C632.263,130.066 632.681,130.442 633.203,130.735C633.725,131.048 634.937,132.093 635.919,133.075L637.695,134.85ZM653.425,120.52C654.219,120.457 654.825,120.478 654.825,120.582C654.825,120.896 652.067,122.567 650.542,123.152C648.606,123.908 646.993,124.219 645.447,124.058L645.491,123.657C646.308,123.745 647.118,123.672 648.014,123.465C650.521,122.88 653.488,121.46 652.192,121.46C651.106,121.46 650.062,120.854 648.286,119.224C646.907,117.95 645.884,117.219 644.526,116.55C643.07,115.821 642.629,115.65 641.712,115.631L641.733,115.065C642.877,115.101 644.014,115.084 644.379,114.984C645.148,114.76 646.466,113.597 646.984,112.709L647.425,112.778C646.792,113.868 645.967,114.961 645.507,115.234C645.111,115.464 644.797,115.715 644.797,115.798C644.797,115.903 645.194,116.154 645.675,116.362C646.176,116.571 647.262,117.449 648.119,118.263C650.103,120.206 651.336,120.729 653.425,120.52ZM638.154,107.463C638.447,108.341 638.447,110.012 638.112,111.203C637.82,112.352 635.71,115.84 634.665,116.947C633.433,118.263 632.681,118.702 631.239,118.932C629.234,119.266 627.772,118.598 626.581,116.822C626.142,116.195 625.996,115.715 625.996,115.005C625.996,114.499 626.029,114.263 626.105,114.263C626.132,114.263 626.165,114.296 626.205,114.357C626.309,114.524 626.414,114.9 626.414,115.151C626.414,116.07 627.061,117.073 628.001,117.616C628.503,117.908 629.025,118.075 629.15,117.992C629.297,117.908 629.338,117.929 629.255,118.075C629.025,118.451 630.299,118.577 631.574,118.326C632.66,118.096 632.911,117.95 634.143,116.676C635.626,115.151 636.901,112.957 637.674,110.555C638.05,109.406 638.091,109.03 637.924,108.361C637.799,107.923 637.632,107.463 637.548,107.359C637.151,106.816 636.002,106.21 635.355,106.21C633.182,106.21 629.923,108.09 628.398,110.221C627.605,111.307 626.623,113.354 626.623,113.918C626.606,114.154 626.589,114.2 626.483,114.042C626.46,114.006 626.428,113.956 626.393,113.897C626.247,113.626 626.351,113.145 626.853,111.955C627.396,110.659 627.73,110.179 628.942,109.051C630.78,107.359 632.284,106.335 633.621,105.917C635.606,105.291 637.653,105.98 638.154,107.463ZM660.987,45.231C662.742,46.882 663.16,47.592 662.93,48.553C662.692,49.466 660.736,53.462 659.358,56.017L658.764,55.94C658.787,55.894 658.812,55.848 658.835,55.802C659.128,55.175 659.149,54.674 658.898,51.081L658.647,47.091L657.352,44.939C655.493,41.847 655.117,41.492 656.141,43.748C656.517,44.571 656.807,45.233 657.033,45.82L656.444,45.983C656.316,45.67 656.136,45.267 655.932,44.834C655.43,43.748 655.013,43.142 654.804,43.121C654.616,43.121 653.216,42.516 651.712,41.764C650.901,41.365 650.168,41.005 649.652,40.757L649.897,40.201L650.27,40.364C651.002,40.656 654.24,41.868 654.344,41.868C654.365,41.868 654.24,41.534 654.052,41.137C653.864,40.74 653.759,40.364 653.822,40.301C654.114,40.009 659.023,43.393 660.987,45.231ZM662.094,47.822C662.136,47.78 661.071,46.652 659.692,45.336C657.331,43.017 656.182,42.202 657.081,43.477C657.31,43.811 657.895,44.855 658.376,45.837C658.769,46.602 658.994,47.074 659.138,47.573C659.299,48.137 659.354,48.73 659.42,49.806C659.504,51.018 659.525,52.125 659.462,52.25C659.42,52.397 659.483,52.522 659.629,52.522C659.796,52.522 659.838,52.71 659.755,53.044C659.671,53.337 659.692,53.566 659.775,53.566C659.943,53.546 661.426,50.475 661.844,49.263L662.094,48.553L661.238,48.323C660.408,48.108 659.721,47.736 659.721,47.529C659.721,47.498 659.738,47.469 659.775,47.446C659.859,47.404 660.423,47.467 660.987,47.613C661.572,47.759 662.073,47.863 662.094,47.822ZM691.549,37.001C691.57,37.23 691.382,38.15 691.09,39.069C690.797,39.967 690.38,41.45 690.15,42.369C689.732,44.061 689.481,44.521 689.126,44.291C688.813,44.103 689.774,39.967 690.651,37.648L690.965,36.854L691.545,36.909C691.543,36.938 691.543,36.969 691.549,37.001Z"></path>
                </g>
            </g>
        </g>
    </g>
</svg>
