<?xml version="1.0" standalone="no"?><!DOCTYPE svg PUBLIC "-//W3C//DTD SVG 1.1//EN" "http://www.w3.org/Graphics/SVG/1.1/DTD/svg11.dtd"><svg t="1647590226839" class="icon" viewBox="0 0 1024 1024" version="1.1" xmlns="http://www.w3.org/2000/svg" p-id="7768" xmlns:xlink="http://www.w3.org/1999/xlink" width="32" height="32"><defs><style type="text/css"></style></defs><path d="M478.72 30.72c-35.328 27.648-124.416 73.216-174.08 88.576-56.32 17.92-97.28 24.576-163.84 28.672l-56.32 3.072V358.4c0 201.216 0.512 208.384 11.776 248.32 33.792 117.76 136.192 263.68 236.544 337.408 131.584 97.28 242.688 92.672 377.344-14.848 79.872-64 161.28-175.104 200.704-274.432 29.184-74.24 31.744-99.328 30.208-311.808l-1.536-192-56.32-3.072c-66.56-4.096-107.52-11.264-163.84-28.672-50.176-15.872-130.56-56.32-172.032-86.528-16.384-12.288-33.28-22.528-36.864-22.016-3.072 0-17.408 9.216-31.744 19.968z m303.616 308.736c11.776 11.776 21.504 24.064 21.504 26.624 0 3.072-70.144 75.264-156.16 161.28L491.52 683.52 386.56 578.56 281.6 473.6l24.064-24.064 24.576-24.576L409.6 504.32 488.96 583.68l133.12-133.12c73.216-73.216 134.144-133.12 135.68-133.12 1.536 0 12.8 9.728 24.576 22.016z" p-id="7769"></path></svg>