<svg xmlns="http://www.w3.org/2000/svg" xmlns:xlink="http://www.w3.org/1999/xlink" viewBox="0 0 1087.05 1072.49"><defs><style>.cls-1{fill:none;}.cls-2{fill:#eef3fa;}.cls-3{clip-path:url(#clip-path);}.cls-4{fill:#b6bdd3;}.cls-5{fill:#8b9bc3;}.cls-20,.cls-6{fill:#e7eaf5;}.cls-7{fill:#cfd7e8;}.cls-8{fill:#fff;}.cls-9{fill:#485480;}.cls-10{fill:#2d3854;}.cls-11{fill:#5e6aa0;}.cls-12{fill:#5d1b37;}.cls-13{fill:#a94151;}.cls-14{fill:#d78058;}.cls-15{fill:#1f253f;}.cls-16{fill:#5b8b77;}.cls-17{fill:#78b066;}.cls-18{fill:#e7ac65;}.cls-19{opacity:0.64;}.cls-20{opacity:0.53;}.cls-21{fill:#000401;}.cls-22{fill:#94c384;}.cls-23{fill:#364d4d;}.cls-24{fill:#becdda;}</style><clipPath id="clip-path"><path id="SVGID" class="cls-1" d="M287.62,236.8l475.55-1.66a30.4,30.4,0,0,0,30.28-30.5l0-9.25a30.39,30.39,0,0,1,30.28-30.5l132.87-.47a30.39,30.39,0,0,1,30.49,30.29h0a30.38,30.38,0,0,1-30.28,30.49l-27.8.1a30.39,30.39,0,0,0-30.28,30.5v2.75a30.39,30.39,0,0,0,30.5,30.28l70.28-.24a30.39,30.39,0,0,1,30.5,30.28l.25,72.26A30.39,30.39,0,0,1,1000,421.62l-15.55.06a30.38,30.38,0,0,0-30.29,30.49l.4,113.71A30.4,30.4,0,0,0,985,596.17l6.82,0a30.39,30.39,0,0,1,30.49,30.28l.36,102.11A30.38,30.38,0,0,1,992.41,759L707,760a30.38,30.38,0,0,1-30.49-30.28l-.29-81.49A30.39,30.39,0,0,0,645.75,618l-16.41.06a30.4,30.4,0,0,0-30.29,30.5L599.47,767a30.39,30.39,0,0,1-30.28,30.5l-144.12.5a30.39,30.39,0,0,1-30.5-30.28l-1-273.07a30.38,30.38,0,0,0-30.49-30.28l-74.7.26a30.4,30.4,0,0,1-30.5-30.28l-.58-167.08A30.4,30.4,0,0,1,287.62,236.8Z"/></clipPath></defs><g id="OBJECTS"><path class="cls-2" d="M287.62,236.8l475.55-1.66a30.4,30.4,0,0,0,30.28-30.5l0-9.25a30.39,30.39,0,0,1,30.28-30.5l132.87-.47a30.39,30.39,0,0,1,30.49,30.29h0a30.38,30.38,0,0,1-30.28,30.49l-27.8.1a30.39,30.39,0,0,0-30.28,30.5v2.75a30.39,30.39,0,0,0,30.5,30.28l70.28-.24a30.39,30.39,0,0,1,30.5,30.28l.25,72.26A30.39,30.39,0,0,1,1000,421.62l-15.55.06a30.38,30.38,0,0,0-30.29,30.49l.4,113.71A30.4,30.4,0,0,0,985,596.17l6.82,0a30.39,30.39,0,0,1,30.49,30.28l.36,102.11A30.38,30.38,0,0,1,992.41,759L707,760a30.38,30.38,0,0,1-30.49-30.28l-.29-81.49A30.39,30.39,0,0,0,645.75,618l-16.41.06a30.4,30.4,0,0,0-30.29,30.5L599.47,767a30.39,30.39,0,0,1-30.28,30.5l-144.12.5a30.39,30.39,0,0,1-30.5-30.28l-1-273.07a30.38,30.38,0,0,0-30.49-30.28l-74.7.26a30.4,30.4,0,0,1-30.5-30.28l-.58-167.08A30.4,30.4,0,0,1,287.62,236.8Z"/><rect class="cls-2" x="991.95" y="229.75" width="36.18" height="36.18" rx="6" transform="translate(-0.86 3.54) rotate(-0.2)"/><rect class="cls-2" x="993.01" y="531.29" width="36.18" height="36.18" rx="6" transform="translate(-1.92 3.55) rotate(-0.2)"/><rect class="cls-2" x="980.62" y="441.47" width="36.18" height="36.18" rx="6" transform="translate(-1.61 3.5) rotate(-0.2)"/><g class="cls-3"><path class="cls-4" d="M513.24,154.66v33.16a.49.49,0,0,1-.49.49H358.6a.48.48,0,0,1-.48-.49V155.15a.48.48,0,0,1,.48-.49H513.24m2-2H356.65a.49.49,0,0,0-.49.49v36.58a.49.49,0,0,0,.49.49H514.71a.48.48,0,0,0,.48-.49V152.7Z"/><path class="cls-4" d="M354.21,154.66v33.16a.49.49,0,0,1-.49.49H199.57a.49.49,0,0,1-.49-.49V155.15a.49.49,0,0,1,.49-.49H354.21m2-2H197.62a.49.49,0,0,0-.49.49v36.58a.49.49,0,0,0,.49.49H355.67a.49.49,0,0,0,.49-.49V152.7Z"/><path class="cls-4" d="M672.27,154.66v33.16a.49.49,0,0,1-.49.49H517.64a.49.49,0,0,1-.49-.49V155.15a.49.49,0,0,1,.49-.49H672.27m2-2H515.68a.49.49,0,0,0-.49.49v36.58a.49.49,0,0,0,.49.49H673.74a.49.49,0,0,0,.49-.49V152.7Z"/><path class="cls-4" d="M831.31,154.66v33.16a.49.49,0,0,1-.49.49H676.67a.49.49,0,0,1-.49-.49V155.15a.49.49,0,0,1,.49-.49H831.31m2-2H674.72a.49.49,0,0,0-.49.49v36.58a.49.49,0,0,0,.49.49h158a.49.49,0,0,0,.49-.49V152.7Z"/><path class="cls-4" d="M990.34,154.66v33.16a.49.49,0,0,1-.49.49H835.7a.49.49,0,0,1-.49-.49V155.15a.49.49,0,0,1,.49-.49H990.34m1.95-2H833.75a.49.49,0,0,0-.49.49v36.58a.49.49,0,0,0,.49.49h158a.49.49,0,0,0,.49-.49V152.7Z"/><path class="cls-4" d="M456.14,192.14V225.3a.48.48,0,0,1-.48.49H301.51a.49.49,0,0,1-.49-.49V192.63a.49.49,0,0,1,.49-.49H456.14m2-2H299.55a.48.48,0,0,0-.48.49v36.58a.48.48,0,0,0,.48.49H457.61a.49.49,0,0,0,.49-.49V190.18Z"/><path class="cls-4" d="M297.11,192.14V225.3a.49.49,0,0,1-.49.49H142.48a.49.49,0,0,1-.49-.49V192.63a.49.49,0,0,1,.49-.49H297.11m2-2H140.52a.49.49,0,0,0-.49.49v36.58a.49.49,0,0,0,.49.49H298.58a.49.49,0,0,0,.49-.49V190.18Z"/><path class="cls-4" d="M615.18,192.14V225.3a.49.49,0,0,1-.49.49H460.54a.49.49,0,0,1-.49-.49V192.63a.49.49,0,0,1,.49-.49H615.18m2-2H458.59a.49.49,0,0,0-.49.49v36.58a.49.49,0,0,0,.49.49H616.64a.49.49,0,0,0,.49-.49V190.18Z"/><path class="cls-4" d="M774.21,192.14V225.3a.49.49,0,0,1-.49.49H619.57a.48.48,0,0,1-.48-.49V192.63a.48.48,0,0,1,.48-.49H774.21m1.95-2H617.62a.49.49,0,0,0-.49.49v36.58a.49.49,0,0,0,.49.49H775.68a.48.48,0,0,0,.48-.49V190.18Z"/><path class="cls-4" d="M933.24,192.14V225.3a.49.49,0,0,1-.49.49H778.61a.49.49,0,0,1-.49-.49V192.63a.49.49,0,0,1,.49-.49H933.24m2-2H776.65a.49.49,0,0,0-.49.49v36.58a.49.49,0,0,0,.49.49H934.71a.49.49,0,0,0,.49-.49V190.18Z"/><path class="cls-4" d="M1092.28,192.14V225.3a.49.49,0,0,1-.49.49H937.64a.49.49,0,0,1-.49-.49V192.63a.49.49,0,0,1,.49-.49h154.64m2-2H935.69a.49.49,0,0,0-.49.49v36.58a.49.49,0,0,0,.49.49h158a.49.49,0,0,0,.49-.49V190.18Z"/><path class="cls-4" d="M513.24,229.7v33.16a.49.49,0,0,1-.49.49H358.6a.48.48,0,0,1-.48-.49V230.19a.48.48,0,0,1,.48-.49H513.24m2-2H356.65a.49.49,0,0,0-.49.49v36.58a.49.49,0,0,0,.49.49H514.71a.48.48,0,0,0,.48-.49V227.74Z"/><path class="cls-4" d="M354.21,229.7v33.16a.49.49,0,0,1-.49.49H199.57a.49.49,0,0,1-.49-.49V230.19a.49.49,0,0,1,.49-.49H354.21m2-2H197.62a.49.49,0,0,0-.49.49v36.58a.49.49,0,0,0,.49.49H355.67a.49.49,0,0,0,.49-.49V227.74Z"/><path class="cls-4" d="M672.27,229.7v33.16a.49.49,0,0,1-.49.49H517.64a.49.49,0,0,1-.49-.49V230.19a.49.49,0,0,1,.49-.49H672.27m2-2H515.68a.49.49,0,0,0-.49.49v36.58a.49.49,0,0,0,.49.49H673.74a.49.49,0,0,0,.49-.49V227.74Z"/><path class="cls-4" d="M831.31,229.7v33.16a.49.49,0,0,1-.49.49H676.67a.49.49,0,0,1-.49-.49V230.19a.49.49,0,0,1,.49-.49H831.31m2-2H674.72a.49.49,0,0,0-.49.49v36.58a.49.49,0,0,0,.49.49h158a.49.49,0,0,0,.49-.49V227.74Z"/><path class="cls-4" d="M990.34,229.7v33.16a.49.49,0,0,1-.49.49H835.7a.49.49,0,0,1-.49-.49V230.19a.49.49,0,0,1,.49-.49H990.34m1.95-2H833.75a.49.49,0,0,0-.49.49v36.58a.49.49,0,0,0,.49.49h158a.49.49,0,0,0,.49-.49V227.74Z"/><path class="cls-4" d="M456.14,267.18v33.16a.48.48,0,0,1-.48.49H301.51a.49.49,0,0,1-.49-.49V267.67a.49.49,0,0,1,.49-.49H456.14m2-2H299.55a.48.48,0,0,0-.48.49v36.58a.48.48,0,0,0,.48.49H457.61a.49.49,0,0,0,.49-.49V265.22Z"/><path class="cls-4" d="M297.11,267.18v33.16a.49.49,0,0,1-.49.49H142.48a.49.49,0,0,1-.49-.49V267.67a.49.49,0,0,1,.49-.49H297.11m2-2H140.52a.49.49,0,0,0-.49.49v36.58a.49.49,0,0,0,.49.49H298.58a.49.49,0,0,0,.49-.49V265.22Z"/><path class="cls-4" d="M615.18,267.18v33.16a.49.49,0,0,1-.49.49H460.54a.49.49,0,0,1-.49-.49V267.67a.49.49,0,0,1,.49-.49H615.18m2-2H458.59a.49.49,0,0,0-.49.49v36.58a.49.49,0,0,0,.49.49H616.64a.49.49,0,0,0,.49-.49V265.22Z"/><path class="cls-4" d="M774.21,267.18v33.16a.49.49,0,0,1-.49.49H619.57a.48.48,0,0,1-.48-.49V267.67a.48.48,0,0,1,.48-.49H774.21m1.95-2H617.62a.49.49,0,0,0-.49.49v36.58a.49.49,0,0,0,.49.49H775.68a.48.48,0,0,0,.48-.49V265.22Z"/><path class="cls-4" d="M933.24,267.18v33.16a.49.49,0,0,1-.49.49H778.61a.49.49,0,0,1-.49-.49V267.67a.49.49,0,0,1,.49-.49H933.24m2-2H776.65a.49.49,0,0,0-.49.49v36.58a.49.49,0,0,0,.49.49H934.71a.49.49,0,0,0,.49-.49V265.22Z"/><path class="cls-4" d="M1092.28,267.18v33.16a.49.49,0,0,1-.49.49H937.64a.49.49,0,0,1-.49-.49V267.67a.49.49,0,0,1,.49-.49h154.64m2-2H935.69a.49.49,0,0,0-.49.49v36.58a.49.49,0,0,0,.49.49h158a.49.49,0,0,0,.49-.49V265.22Z"/><path class="cls-4" d="M513.24,304.74V337.9a.49.49,0,0,1-.49.49H358.6a.48.48,0,0,1-.48-.49V305.22a.47.47,0,0,1,.48-.48H513.24m2-2H356.65a.49.49,0,0,0-.49.49v36.58a.49.49,0,0,0,.49.49H514.71a.48.48,0,0,0,.48-.49V302.78Z"/><path class="cls-4" d="M354.21,304.74V337.9a.49.49,0,0,1-.49.49H199.57a.49.49,0,0,1-.49-.49V305.22a.48.48,0,0,1,.49-.48H354.21m2-2H197.62a.49.49,0,0,0-.49.49v36.58a.49.49,0,0,0,.49.49H355.67a.49.49,0,0,0,.49-.49V302.78Z"/><path class="cls-4" d="M672.27,304.74V337.9a.49.49,0,0,1-.49.49H517.64a.49.49,0,0,1-.49-.49V305.22a.48.48,0,0,1,.49-.48H672.27m2-2H515.68a.49.49,0,0,0-.49.49v36.58a.49.49,0,0,0,.49.49H673.74a.49.49,0,0,0,.49-.49V302.78Z"/><path class="cls-4" d="M831.31,304.74V337.9a.49.49,0,0,1-.49.49H676.67a.49.49,0,0,1-.49-.49V305.22a.48.48,0,0,1,.49-.48H831.31m2-2H674.72a.49.49,0,0,0-.49.49v36.58a.49.49,0,0,0,.49.49h158a.49.49,0,0,0,.49-.49V302.78Z"/><path class="cls-4" d="M990.34,304.74V337.9a.49.49,0,0,1-.49.49H835.7a.49.49,0,0,1-.49-.49V305.22a.48.48,0,0,1,.49-.48H990.34m1.95-2H833.75a.49.49,0,0,0-.49.49v36.58a.49.49,0,0,0,.49.49h158a.49.49,0,0,0,.49-.49V302.78Z"/><path class="cls-4" d="M456.14,342.22v33.16a.48.48,0,0,1-.48.49H301.51a.49.49,0,0,1-.49-.49V342.7a.48.48,0,0,1,.49-.48H456.14m2-2H299.55a.48.48,0,0,0-.48.49v36.58a.48.48,0,0,0,.48.49H457.61a.49.49,0,0,0,.49-.49V340.26Z"/><path class="cls-4" d="M297.11,342.22v33.16a.49.49,0,0,1-.49.49H142.48a.49.49,0,0,1-.49-.49V342.7a.48.48,0,0,1,.49-.48H297.11m2-2H140.52a.49.49,0,0,0-.49.49v36.58a.49.49,0,0,0,.49.49H298.58a.49.49,0,0,0,.49-.49V340.26Z"/><path class="cls-4" d="M615.18,342.22v33.16a.49.49,0,0,1-.49.49H460.54a.49.49,0,0,1-.49-.49V342.7a.48.48,0,0,1,.49-.48H615.18m2-2H458.59a.49.49,0,0,0-.49.49v36.58a.49.49,0,0,0,.49.49H616.64a.49.49,0,0,0,.49-.49V340.26Z"/><path class="cls-4" d="M774.21,342.22v33.16a.49.49,0,0,1-.49.49H619.57a.48.48,0,0,1-.48-.49V342.7a.47.47,0,0,1,.48-.48H774.21m1.95-2H617.62a.49.49,0,0,0-.49.49v36.58a.49.49,0,0,0,.49.49H775.68a.48.48,0,0,0,.48-.49V340.26Z"/><path class="cls-4" d="M933.24,342.22v33.16a.49.49,0,0,1-.49.49H778.61a.49.49,0,0,1-.49-.49V342.7a.48.48,0,0,1,.49-.48H933.24m2-2H776.65a.49.49,0,0,0-.49.49v36.58a.49.49,0,0,0,.49.49H934.71a.49.49,0,0,0,.49-.49V340.26Z"/><path class="cls-4" d="M1092.28,342.22v33.16a.49.49,0,0,1-.49.49H937.64a.49.49,0,0,1-.49-.49V342.7a.48.48,0,0,1,.49-.48h154.64m2-2H935.69a.49.49,0,0,0-.49.49v36.58a.49.49,0,0,0,.49.49h158a.49.49,0,0,0,.49-.49V340.26Z"/><path class="cls-4" d="M513.24,379.77v33.17a.49.49,0,0,1-.49.48H358.6a.48.48,0,0,1-.48-.48V380.26a.48.48,0,0,1,.48-.49H513.24m2-1.95H356.65a.49.49,0,0,0-.49.49v36.58a.49.49,0,0,0,.49.49H514.71a.48.48,0,0,0,.48-.49V377.82Z"/><path class="cls-4" d="M354.21,379.77v33.17a.49.49,0,0,1-.49.48H199.57a.49.49,0,0,1-.49-.48V380.26a.49.49,0,0,1,.49-.49H354.21m2-1.95H197.62a.49.49,0,0,0-.49.49v36.58a.49.49,0,0,0,.49.49H355.67a.49.49,0,0,0,.49-.49V377.82Z"/><path class="cls-4" d="M672.27,379.77v33.17a.49.49,0,0,1-.49.48H517.64a.49.49,0,0,1-.49-.48V380.26a.49.49,0,0,1,.49-.49H672.27m2-1.95H515.68a.49.49,0,0,0-.49.49v36.58a.49.49,0,0,0,.49.49H673.74a.49.49,0,0,0,.49-.49V377.82Z"/><path class="cls-4" d="M831.31,379.77v33.17a.49.49,0,0,1-.49.48H676.67a.49.49,0,0,1-.49-.48V380.26a.49.49,0,0,1,.49-.49H831.31m2-1.95H674.72a.49.49,0,0,0-.49.49v36.58a.49.49,0,0,0,.49.49h158a.49.49,0,0,0,.49-.49V377.82Z"/><path class="cls-4" d="M990.34,379.77v33.17a.49.49,0,0,1-.49.48H835.7a.49.49,0,0,1-.49-.48V380.26a.49.49,0,0,1,.49-.49H990.34m1.95-1.95H833.75a.49.49,0,0,0-.49.49v36.58a.49.49,0,0,0,.49.49h158a.49.49,0,0,0,.49-.49V377.82Z"/><path class="cls-4" d="M456.14,417.25v33.17a.47.47,0,0,1-.48.48H301.51a.48.48,0,0,1-.49-.48V417.74a.49.49,0,0,1,.49-.49H456.14m2-1.95H299.55a.48.48,0,0,0-.48.49v36.58a.48.48,0,0,0,.48.49H457.61a.49.49,0,0,0,.49-.49V415.3Z"/><path class="cls-4" d="M297.11,417.25v33.17a.48.48,0,0,1-.49.48H142.48a.48.48,0,0,1-.49-.48V417.74a.49.49,0,0,1,.49-.49H297.11m2-1.95H140.52a.49.49,0,0,0-.49.49v36.58a.49.49,0,0,0,.49.49H298.58a.49.49,0,0,0,.49-.49V415.3Z"/><path class="cls-4" d="M615.18,417.25v33.17a.48.48,0,0,1-.49.48H460.54a.48.48,0,0,1-.49-.48V417.74a.49.49,0,0,1,.49-.49H615.18m2-1.95H458.59a.49.49,0,0,0-.49.49v36.58a.49.49,0,0,0,.49.49H616.64a.49.49,0,0,0,.49-.49V415.3Z"/><path class="cls-4" d="M774.21,417.25v33.17a.48.48,0,0,1-.49.48H619.57a.47.47,0,0,1-.48-.48V417.74a.48.48,0,0,1,.48-.49H774.21m1.95-1.95H617.62a.49.49,0,0,0-.49.49v36.58a.49.49,0,0,0,.49.49H775.68a.48.48,0,0,0,.48-.49V415.3Z"/><path class="cls-4" d="M933.24,417.25v33.17a.48.48,0,0,1-.49.48H778.61a.48.48,0,0,1-.49-.48V417.74a.49.49,0,0,1,.49-.49H933.24m2-1.95H776.65a.49.49,0,0,0-.49.49v36.58a.49.49,0,0,0,.49.49H934.71a.49.49,0,0,0,.49-.49V415.3Z"/><path class="cls-4" d="M1092.28,417.25v33.17a.48.48,0,0,1-.49.48H937.64a.48.48,0,0,1-.49-.48V417.74a.49.49,0,0,1,.49-.49h154.64m2-1.95H935.69a.49.49,0,0,0-.49.49v36.58a.49.49,0,0,0,.49.49h158a.49.49,0,0,0,.49-.49V415.3Z"/><path class="cls-4" d="M513.24,454.81V488a.49.49,0,0,1-.49.49H358.6a.48.48,0,0,1-.48-.49V455.3a.48.48,0,0,1,.48-.49H513.24m2-1.95H356.65a.49.49,0,0,0-.49.49v36.58a.49.49,0,0,0,.49.49H514.71a.48.48,0,0,0,.48-.49V452.86Z"/><path class="cls-4" d="M354.21,454.81V488a.49.49,0,0,1-.49.49H199.57a.49.49,0,0,1-.49-.49V455.3a.49.49,0,0,1,.49-.49H354.21m2-1.95H197.62a.49.49,0,0,0-.49.49v36.58a.49.49,0,0,0,.49.49H355.67a.49.49,0,0,0,.49-.49V452.86Z"/><path class="cls-4" d="M672.27,454.81V488a.49.49,0,0,1-.49.49H517.64a.49.49,0,0,1-.49-.49V455.3a.49.49,0,0,1,.49-.49H672.27m2-1.95H515.68a.49.49,0,0,0-.49.49v36.58a.49.49,0,0,0,.49.49H673.74a.49.49,0,0,0,.49-.49V452.86Z"/><path class="cls-4" d="M831.31,454.81V488a.49.49,0,0,1-.49.49H676.67a.49.49,0,0,1-.49-.49V455.3a.49.49,0,0,1,.49-.49H831.31m2-1.95H674.72a.49.49,0,0,0-.49.49v36.58a.49.49,0,0,0,.49.49h158a.49.49,0,0,0,.49-.49V452.86Z"/><path class="cls-4" d="M990.34,454.81V488a.49.49,0,0,1-.49.49H835.7a.49.49,0,0,1-.49-.49V455.3a.49.49,0,0,1,.49-.49H990.34m1.95-1.95H833.75a.49.49,0,0,0-.49.49v36.58a.49.49,0,0,0,.49.49h158a.49.49,0,0,0,.49-.49V452.86Z"/><path class="cls-4" d="M456.14,492.29v33.16a.48.48,0,0,1-.48.49H301.51a.49.49,0,0,1-.49-.49V492.78a.49.49,0,0,1,.49-.49H456.14m2-2H299.55a.48.48,0,0,0-.48.49v36.58a.48.48,0,0,0,.48.49H457.61a.49.49,0,0,0,.49-.49V490.34Z"/><path class="cls-4" d="M297.11,492.29v33.16a.49.49,0,0,1-.49.49H142.48a.49.49,0,0,1-.49-.49V492.78a.49.49,0,0,1,.49-.49H297.11m2-2H140.52a.49.49,0,0,0-.49.49v36.58a.49.49,0,0,0,.49.49H298.58a.49.49,0,0,0,.49-.49V490.34Z"/><path class="cls-4" d="M615.18,492.29v33.16a.49.49,0,0,1-.49.49H460.54a.49.49,0,0,1-.49-.49V492.78a.49.49,0,0,1,.49-.49H615.18m2-2H458.59a.49.49,0,0,0-.49.49v36.58a.49.49,0,0,0,.49.49H616.64a.49.49,0,0,0,.49-.49V490.34Z"/><path class="cls-4" d="M774.21,492.29v33.16a.49.49,0,0,1-.49.49H619.57a.48.48,0,0,1-.48-.49V492.78a.48.48,0,0,1,.48-.49H774.21m1.95-2H617.62a.49.49,0,0,0-.49.49v36.58a.49.49,0,0,0,.49.49H775.68a.48.48,0,0,0,.48-.49V490.34Z"/><path class="cls-4" d="M933.24,492.29v33.16a.49.49,0,0,1-.49.49H778.61a.49.49,0,0,1-.49-.49V492.78a.49.49,0,0,1,.49-.49H933.24m2-2H776.65a.49.49,0,0,0-.49.49v36.58a.49.49,0,0,0,.49.49H934.71a.49.49,0,0,0,.49-.49V490.34Z"/><path class="cls-4" d="M1092.28,492.29v33.16a.49.49,0,0,1-.49.49H937.64a.49.49,0,0,1-.49-.49V492.78a.49.49,0,0,1,.49-.49h154.64m2-2H935.69a.49.49,0,0,0-.49.49v36.58a.49.49,0,0,0,.49.49h158a.49.49,0,0,0,.49-.49V490.34Z"/><path class="cls-4" d="M513.24,529.85V563a.49.49,0,0,1-.49.49H358.6a.48.48,0,0,1-.48-.49V530.34a.48.48,0,0,1,.48-.49H513.24m2-2H356.65a.49.49,0,0,0-.49.49V565a.49.49,0,0,0,.49.49H514.71a.48.48,0,0,0,.48-.49V527.9Z"/><path class="cls-4" d="M354.21,529.85V563a.49.49,0,0,1-.49.49H199.57a.49.49,0,0,1-.49-.49V530.34a.49.49,0,0,1,.49-.49H354.21m2-2H197.62a.49.49,0,0,0-.49.49V565a.49.49,0,0,0,.49.49H355.67a.49.49,0,0,0,.49-.49V527.9Z"/><path class="cls-4" d="M672.27,529.85V563a.49.49,0,0,1-.49.49H517.64a.49.49,0,0,1-.49-.49V530.34a.49.49,0,0,1,.49-.49H672.27m2-2H515.68a.49.49,0,0,0-.49.49V565a.49.49,0,0,0,.49.49H673.74a.49.49,0,0,0,.49-.49V527.9Z"/><path class="cls-4" d="M831.31,529.85V563a.49.49,0,0,1-.49.49H676.67a.49.49,0,0,1-.49-.49V530.34a.49.49,0,0,1,.49-.49H831.31m2-2H674.72a.49.49,0,0,0-.49.49V565a.49.49,0,0,0,.49.49h158a.49.49,0,0,0,.49-.49V527.9Z"/><path class="cls-4" d="M990.34,529.85V563a.49.49,0,0,1-.49.49H835.7a.49.49,0,0,1-.49-.49V530.34a.49.49,0,0,1,.49-.49H990.34m1.95-2H833.75a.49.49,0,0,0-.49.49V565a.49.49,0,0,0,.49.49h158a.49.49,0,0,0,.49-.49V527.9Z"/><path class="cls-4" d="M456.14,567.33v33.16a.48.48,0,0,1-.48.49H301.51a.49.49,0,0,1-.49-.49V567.82a.49.49,0,0,1,.49-.49H456.14m2-2H299.55a.48.48,0,0,0-.48.49v36.58a.48.48,0,0,0,.48.49H457.61a.49.49,0,0,0,.49-.49V565.38Z"/><path class="cls-4" d="M297.11,567.33v33.16a.49.49,0,0,1-.49.49H142.48a.49.49,0,0,1-.49-.49V567.82a.49.49,0,0,1,.49-.49H297.11m2-2H140.52a.49.49,0,0,0-.49.49v36.58a.49.49,0,0,0,.49.49H298.58a.49.49,0,0,0,.49-.49V565.38Z"/><path class="cls-4" d="M615.18,567.33v33.16a.49.49,0,0,1-.49.49H460.54a.49.49,0,0,1-.49-.49V567.82a.49.49,0,0,1,.49-.49H615.18m2-2H458.59a.49.49,0,0,0-.49.49v36.58a.49.49,0,0,0,.49.49H616.64a.49.49,0,0,0,.49-.49V565.38Z"/><path class="cls-4" d="M774.21,567.33v33.16a.49.49,0,0,1-.49.49H619.57a.48.48,0,0,1-.48-.49V567.82a.48.48,0,0,1,.48-.49H774.21m1.95-2H617.62a.49.49,0,0,0-.49.49v36.58a.49.49,0,0,0,.49.49H775.68a.48.48,0,0,0,.48-.49V565.38Z"/><path class="cls-4" d="M933.24,567.33v33.16a.49.49,0,0,1-.49.49H778.61a.49.49,0,0,1-.49-.49V567.82a.49.49,0,0,1,.49-.49H933.24m2-2H776.65a.49.49,0,0,0-.49.49v36.58a.49.49,0,0,0,.49.49H934.71a.49.49,0,0,0,.49-.49V565.38Z"/><path class="cls-4" d="M1092.28,567.33v33.16a.49.49,0,0,1-.49.49H937.64a.49.49,0,0,1-.49-.49V567.82a.49.49,0,0,1,.49-.49h154.64m2-2H935.69a.49.49,0,0,0-.49.49v36.58a.49.49,0,0,0,.49.49h158a.49.49,0,0,0,.49-.49V565.38Z"/><path class="cls-4" d="M513.24,604.89v33.16a.49.49,0,0,1-.49.49H358.6a.48.48,0,0,1-.48-.49V605.38a.48.48,0,0,1,.48-.49H513.24m2-1.95H356.65a.48.48,0,0,0-.49.48V640a.48.48,0,0,0,.49.48H514.71a.47.47,0,0,0,.48-.48V602.94Z"/><path class="cls-4" d="M354.21,604.89v33.16a.49.49,0,0,1-.49.49H199.57a.49.49,0,0,1-.49-.49V605.38a.49.49,0,0,1,.49-.49H354.21m2-1.95H197.62a.48.48,0,0,0-.49.48V640a.48.48,0,0,0,.49.48H355.67a.48.48,0,0,0,.49-.48V602.94Z"/><path class="cls-4" d="M672.27,604.89v33.16a.49.49,0,0,1-.49.49H517.64a.49.49,0,0,1-.49-.49V605.38a.49.49,0,0,1,.49-.49H672.27m2-1.95H515.68a.48.48,0,0,0-.49.48V640a.48.48,0,0,0,.49.48H673.74a.48.48,0,0,0,.49-.48V602.94Z"/><path class="cls-4" d="M831.31,604.89v33.16a.49.49,0,0,1-.49.49H676.67a.49.49,0,0,1-.49-.49V605.38a.49.49,0,0,1,.49-.49H831.31m2-1.95H674.72a.48.48,0,0,0-.49.48V640a.48.48,0,0,0,.49.48h158a.48.48,0,0,0,.49-.48V602.94Z"/><path class="cls-4" d="M990.34,604.89v33.16a.49.49,0,0,1-.49.49H835.7a.49.49,0,0,1-.49-.49V605.38a.49.49,0,0,1,.49-.49H990.34m1.95-1.95H833.75a.48.48,0,0,0-.49.48V640a.48.48,0,0,0,.49.48h158a.48.48,0,0,0,.49-.48V602.94Z"/><path class="cls-4" d="M456.14,642.37v33.16a.48.48,0,0,1-.48.49H301.51a.49.49,0,0,1-.49-.49V642.86a.49.49,0,0,1,.49-.49H456.14m2-2H299.55a.47.47,0,0,0-.48.48v36.59a.47.47,0,0,0,.48.48H457.61a.48.48,0,0,0,.49-.48V640.42Z"/><path class="cls-4" d="M297.11,642.37v33.16a.49.49,0,0,1-.49.49H142.48a.49.49,0,0,1-.49-.49V642.86a.49.49,0,0,1,.49-.49H297.11m2-2H140.52a.48.48,0,0,0-.49.48v36.59a.48.48,0,0,0,.49.48H298.58a.48.48,0,0,0,.49-.48V640.42Z"/><path class="cls-4" d="M615.18,642.37v33.16a.49.49,0,0,1-.49.49H460.54a.49.49,0,0,1-.49-.49V642.86a.49.49,0,0,1,.49-.49H615.18m2-2H458.59a.48.48,0,0,0-.49.48v36.59a.48.48,0,0,0,.49.48H616.64a.48.48,0,0,0,.49-.48V640.42Z"/><path class="cls-4" d="M774.21,642.37v33.16a.49.49,0,0,1-.49.49H619.57a.48.48,0,0,1-.48-.49V642.86a.48.48,0,0,1,.48-.49H774.21m1.95-2H617.62a.48.48,0,0,0-.49.48v36.59a.48.48,0,0,0,.49.48H775.68a.47.47,0,0,0,.48-.48V640.42Z"/><path class="cls-4" d="M933.24,642.37v33.16a.49.49,0,0,1-.49.49H778.61a.49.49,0,0,1-.49-.49V642.86a.49.49,0,0,1,.49-.49H933.24m2-2H776.65a.48.48,0,0,0-.49.48v36.59a.48.48,0,0,0,.49.48H934.71a.48.48,0,0,0,.49-.48V640.42Z"/><path class="cls-4" d="M1092.28,642.37v33.16a.49.49,0,0,1-.49.49H937.64a.49.49,0,0,1-.49-.49V642.86a.49.49,0,0,1,.49-.49h154.64m2-2H935.69a.48.48,0,0,0-.49.48v36.59a.48.48,0,0,0,.49.48h158a.48.48,0,0,0,.49-.48V640.42Z"/><path class="cls-4" d="M513.24,679.93v33.16a.49.49,0,0,1-.49.49H358.6a.48.48,0,0,1-.48-.49V680.42a.48.48,0,0,1,.48-.49H513.24m2-2H356.65a.49.49,0,0,0-.49.49V715a.49.49,0,0,0,.49.49H514.71a.48.48,0,0,0,.48-.49V678Z"/><path class="cls-4" d="M354.21,679.93v33.16a.49.49,0,0,1-.49.49H199.57a.49.49,0,0,1-.49-.49V680.42a.49.49,0,0,1,.49-.49H354.21m2-2H197.62a.49.49,0,0,0-.49.49V715a.49.49,0,0,0,.49.49H355.67a.49.49,0,0,0,.49-.49V678Z"/><path class="cls-4" d="M672.27,679.93v33.16a.49.49,0,0,1-.49.49H517.64a.49.49,0,0,1-.49-.49V680.42a.49.49,0,0,1,.49-.49H672.27m2-2H515.68a.49.49,0,0,0-.49.49V715a.49.49,0,0,0,.49.49H673.74a.49.49,0,0,0,.49-.49V678Z"/><path class="cls-4" d="M831.31,679.93v33.16a.49.49,0,0,1-.49.49H676.67a.49.49,0,0,1-.49-.49V680.42a.49.49,0,0,1,.49-.49H831.31m2-2H674.72a.49.49,0,0,0-.49.49V715a.49.49,0,0,0,.49.49h158a.49.49,0,0,0,.49-.49V678Z"/><path class="cls-4" d="M990.34,679.93v33.16a.49.49,0,0,1-.49.49H835.7a.49.49,0,0,1-.49-.49V680.42a.49.49,0,0,1,.49-.49H990.34m1.95-2H833.75a.49.49,0,0,0-.49.49V715a.49.49,0,0,0,.49.49h158a.49.49,0,0,0,.49-.49V678Z"/><path class="cls-4" d="M456.14,717.41v33.16a.48.48,0,0,1-.48.49H301.51a.49.49,0,0,1-.49-.49V717.9a.49.49,0,0,1,.49-.49H456.14m2-2H299.55a.48.48,0,0,0-.48.49v36.58a.48.48,0,0,0,.48.49H457.61a.49.49,0,0,0,.49-.49V715.45Z"/><path class="cls-4" d="M297.11,717.41v33.16a.49.49,0,0,1-.49.49H142.48a.49.49,0,0,1-.49-.49V717.9a.49.49,0,0,1,.49-.49H297.11m2-2H140.52a.49.49,0,0,0-.49.49v36.58a.49.49,0,0,0,.49.49H298.58a.49.49,0,0,0,.49-.49V715.45Z"/><path class="cls-4" d="M615.18,717.41v33.16a.49.49,0,0,1-.49.49H460.54a.49.49,0,0,1-.49-.49V717.9a.49.49,0,0,1,.49-.49H615.18m2-2H458.59a.49.49,0,0,0-.49.49v36.58a.49.49,0,0,0,.49.49H616.64a.49.49,0,0,0,.49-.49V715.45Z"/><path class="cls-4" d="M774.21,717.41v33.16a.49.49,0,0,1-.49.49H619.57a.48.48,0,0,1-.48-.49V717.9a.48.48,0,0,1,.48-.49H774.21m1.95-2H617.62a.49.49,0,0,0-.49.49v36.58a.49.49,0,0,0,.49.49H775.68a.48.48,0,0,0,.48-.49V715.45Z"/><path class="cls-4" d="M933.24,717.41v33.16a.49.49,0,0,1-.49.49H778.61a.49.49,0,0,1-.49-.49V717.9a.49.49,0,0,1,.49-.49H933.24m2-2H776.65a.49.49,0,0,0-.49.49v36.58a.49.49,0,0,0,.49.49H934.71a.49.49,0,0,0,.49-.49V715.45Z"/><path class="cls-4" d="M1092.28,717.41v33.16a.49.49,0,0,1-.49.49H937.64a.49.49,0,0,1-.49-.49V717.9a.49.49,0,0,1,.49-.49h154.64m2-2H935.69a.49.49,0,0,0-.49.49v36.58a.49.49,0,0,0,.49.49h158a.49.49,0,0,0,.49-.49V715.45Z"/><path class="cls-4" d="M513.24,755v33.16a.49.49,0,0,1-.49.49H358.6a.48.48,0,0,1-.48-.49V755.46a.48.48,0,0,1,.48-.49H513.24m2-2H356.65a.49.49,0,0,0-.49.49v36.58a.49.49,0,0,0,.49.49H514.71a.48.48,0,0,0,.48-.49V753Z"/><path class="cls-4" d="M354.21,755v33.16a.49.49,0,0,1-.49.49H199.57a.49.49,0,0,1-.49-.49V755.46a.49.49,0,0,1,.49-.49H354.21m2-2H197.62a.49.49,0,0,0-.49.49v36.58a.49.49,0,0,0,.49.49H355.67a.49.49,0,0,0,.49-.49V753Z"/><path class="cls-4" d="M672.27,755v33.16a.49.49,0,0,1-.49.49H517.64a.49.49,0,0,1-.49-.49V755.46a.49.49,0,0,1,.49-.49H672.27m2-2H515.68a.49.49,0,0,0-.49.49v36.58a.49.49,0,0,0,.49.49H673.74a.49.49,0,0,0,.49-.49V753Z"/><path class="cls-4" d="M831.31,755v33.16a.49.49,0,0,1-.49.49H676.67a.49.49,0,0,1-.49-.49V755.46a.49.49,0,0,1,.49-.49H831.31m2-2H674.72a.49.49,0,0,0-.49.49v36.58a.49.49,0,0,0,.49.49h158a.49.49,0,0,0,.49-.49V753Z"/><path class="cls-4" d="M990.34,755v33.16a.49.49,0,0,1-.49.49H835.7a.49.49,0,0,1-.49-.49V755.46a.49.49,0,0,1,.49-.49H990.34m1.95-2H833.75a.49.49,0,0,0-.49.49v36.58a.49.49,0,0,0,.49.49h158a.49.49,0,0,0,.49-.49V753Z"/><path class="cls-4" d="M456.14,792.45v33.16a.48.48,0,0,1-.48.49H301.51a.49.49,0,0,1-.49-.49V792.94a.49.49,0,0,1,.49-.49H456.14m2-2H299.55a.48.48,0,0,0-.48.49v36.58a.48.48,0,0,0,.48.49H457.61a.49.49,0,0,0,.49-.49V790.49Z"/><path class="cls-4" d="M297.11,792.45v33.16a.49.49,0,0,1-.49.49H142.48a.49.49,0,0,1-.49-.49V792.94a.49.49,0,0,1,.49-.49H297.11m2-2H140.52a.49.49,0,0,0-.49.49v36.58a.49.49,0,0,0,.49.49H298.58a.49.49,0,0,0,.49-.49V790.49Z"/><path class="cls-4" d="M615.18,792.45v33.16a.49.49,0,0,1-.49.49H460.54a.49.49,0,0,1-.49-.49V792.94a.49.49,0,0,1,.49-.49H615.18m2-2H458.59a.49.49,0,0,0-.49.49v36.58a.49.49,0,0,0,.49.49H616.64a.49.49,0,0,0,.49-.49V790.49Z"/><path class="cls-4" d="M774.21,792.45v33.16a.49.49,0,0,1-.49.49H619.57a.48.48,0,0,1-.48-.49V792.94a.48.48,0,0,1,.48-.49H774.21m1.95-2H617.62a.49.49,0,0,0-.49.49v36.58a.49.49,0,0,0,.49.49H775.68a.48.48,0,0,0,.48-.49V790.49Z"/><path class="cls-4" d="M933.24,792.45v33.16a.49.49,0,0,1-.49.49H778.61a.49.49,0,0,1-.49-.49V792.94a.49.49,0,0,1,.49-.49H933.24m2-2H776.65a.49.49,0,0,0-.49.49v36.58a.49.49,0,0,0,.49.49H934.71a.49.49,0,0,0,.49-.49V790.49Z"/><path class="cls-4" d="M1092.28,792.45v33.16a.49.49,0,0,1-.49.49H937.64a.49.49,0,0,1-.49-.49V792.94a.49.49,0,0,1,.49-.49h154.64m2-2H935.69a.49.49,0,0,0-.49.49v36.58a.49.49,0,0,0,.49.49h158a.49.49,0,0,0,.49-.49V790.49Z"/></g><path class="cls-5" d="M370,870.22a8.41,8.41,0,0,1-8.39,8.44l-49,.18-229.46.8a8.42,8.42,0,0,1-8.46-8.39L72.2,167a8.42,8.42,0,0,1,8.39-8.45l232-.81,46.5-.16a8.42,8.42,0,0,1,8.45,8.39Z"/><path class="cls-6" d="M342.47,866.49l-240.3.85a15,15,0,0,1-15-15L84.78,185.74a15,15,0,0,1,15-15.05l240.3-.85a15,15,0,0,1,15.05,14.95l2.34,666.65A15,15,0,0,1,342.47,866.49Z"/><path class="cls-7" d="M125,867.26l-22.79.08a15,15,0,0,1-15-15L84.78,185.74a15,15,0,0,1,15-15.05l22.78-.08a15,15,0,0,1,15.06,14.94L139.9,852.2A15,15,0,0,1,125,867.26Z"/><path class="cls-8" d="M95.38,867.36h0a8.22,8.22,0,0,1-8.24-8.18L84.76,179a8.21,8.21,0,0,1,8.18-8.24h0a8.22,8.22,0,0,1,8.24,8.18l2.38,680.23A8.21,8.21,0,0,1,95.38,867.36Z"/><path class="cls-7" d="M231.37,867.26l-22.79.08a15,15,0,0,1-15.05-15l-2.34-666.65a15,15,0,0,1,14.95-15.05l22.78-.08A15,15,0,0,1,244,185.55l2.33,666.65A15,15,0,0,1,231.37,867.26Z"/><path class="cls-5" d="M219.08,393.21a14.36,14.36,0,1,1-14.41-14.31A14.35,14.35,0,0,1,219.08,393.21Z"/><circle class="cls-9" cx="204.72" cy="393.26" r="6.99" transform="translate(-199.64 575.07) rotate(-86.71)"/><path class="cls-9" d="M233.61,445.73a1.46,1.46,0,0,1-1.28-.74l-25.81-45.6a2.62,2.62,0,0,0-4.37-.28l-30.63,40.7a1.45,1.45,0,0,1-2.32-1.75l30.62-40.7a5.52,5.52,0,0,1,9.23.6l25.82,45.6a1.45,1.45,0,0,1-.55,2A1.43,1.43,0,0,1,233.61,445.73Z"/><path class="cls-5" d="M144.28,441.12l-5.48,37.7a4.66,4.66,0,0,0,4.23,5.32l107.18,8.65a4.66,4.66,0,0,0,5-4l5.47-37.29a4.65,4.65,0,0,0-4.22-5.32l-107.17-9.06A4.65,4.65,0,0,0,144.28,441.12Z"/><path class="cls-8" d="M150.15,444.92l-4.91,31.71A4,4,0,0,0,149,481.1l95.84,7.26a4.12,4.12,0,0,0,4.46-3.34l4.9-31.37a4,4,0,0,0-3.77-4.47l-95.84-7.6A4.11,4.11,0,0,0,150.15,444.92Z"/><rect class="cls-8" x="224.82" y="268.82" width="38.24" height="38.24" rx="8" transform="translate(-66.88 73.92) rotate(-15.18)"/><rect class="cls-5" x="228.75" y="272.75" width="30.38" height="30.38" rx="8" transform="translate(-66.88 73.92) rotate(-15.18)"/><rect class="cls-8" x="242.33" y="640.97" width="38.24" height="38.24" rx="8" transform="translate(-18.33 7.56) rotate(-1.6)"/><rect class="cls-5" x="246.26" y="644.9" width="30.38" height="30.38" rx="8" transform="translate(-18.33 7.56) rotate(-1.6)"/><rect class="cls-8" x="133.02" y="555.1" width="67.69" height="67.69" rx="8" transform="translate(214.24 -21.35) rotate(20.26)"/><rect class="cls-5" x="139.98" y="562.05" width="53.78" height="53.78" rx="8" transform="translate(214.24 -21.35) rotate(20.26)"/><rect class="cls-8" x="118" y="269.81" width="64.38" height="28.04" rx="8" transform="translate(119.47 -35.82) rotate(22.4)"/><rect class="cls-5" x="121.88" y="267.67" width="32.28" height="22.27" rx="8" transform="translate(116.64 -31.56) rotate(22.4)"/><path class="cls-5" d="M167.7,293.67l-4.5-1.86a5.42,5.42,0,0,1-2.95-7.08h0a5.42,5.42,0,0,1,7.08-3l4.5,1.86a5.42,5.42,0,0,1,2.95,7.08h0A5.42,5.42,0,0,1,167.7,293.67Z"/><circle class="cls-8" cx="213.86" cy="757.49" r="32.44" transform="translate(-239.82 114.29) rotate(-19.43)"/><circle class="cls-5" cx="213.86" cy="757.49" r="28.72" transform="translate(-567.01 658.67) rotate(-67.02)"/><path class="cls-10" d="M202.11,753.49a3.15,3.15,0,1,1-4.1-1.72A3.15,3.15,0,0,1,202.11,753.49Z"/><path class="cls-10" d="M224.81,744.2a3.15,3.15,0,1,1-4.1-1.72A3.15,3.15,0,0,1,224.81,744.2Z"/><path class="cls-10" d="M220.34,773.32a17.24,17.24,0,0,1-15.67-1.21,1,1,0,0,1,1.09-1.6,15.31,15.31,0,0,0,13.84,1,14.6,14.6,0,0,0,8.86-10.27,1,1,0,0,1,1.1-.8,1,1,0,0,1,.81,1.11A16.38,16.38,0,0,1,220.34,773.32Z"/><rect class="cls-5" x="277.73" y="462.05" width="23.29" height="104.02" rx="10" transform="translate(-1.8 1.02) rotate(-0.2)"/><path class="cls-9" d="M292.18,514.49a11.69,11.69,0,1,1-11.73-11.65A11.7,11.7,0,0,1,292.18,514.49Z"/><path class="cls-5" d="M661.14,166.14s-28.95,10.58-29.58,16a196,196,0,0,0,.14,40.4c2,20.39-8.54,167.17-.4,174.62s15.24,14,20.37,8.14,15.8-180.53,15.65-176,15.21,157.37,20.39,165.61,35.94,14.92,31.46-1.66-13.43-133.8-16-164.07-1.38-49.12-11.7-54.8S667.83,163.54,661.14,166.14Z"/><path class="cls-6" d="M623,382.3c3,0,35.24,7.49,34,15.93s3.48,14-3.82,14-31.38-8.17-33.12-13.9S617.47,382.36,623,382.3Z"/><path class="cls-6" d="M679.32,390.26c4.67-4.11,40.55-3,42.84,2.92s4.64,12.33.05,14.52-34.29-1-36.83-4.14S675.89,393.28,679.32,390.26Z"/><path class="cls-6" d="M649.71,277.41c.53-.55,1.06-1.09,1.58-1.64.87-.89-.5-2.26-1.37-1.36l-1,1-1-2.66c.84-.87,1.7-1.73,2.57-2.57s-.48-2.22-1.37-1.36c-.67.64-1.32,1.3-2,2-.4-1-.8-2.05-1.21-3.08s-2.31-.64-1.86.52c.53,1.36,1.06,2.72,1.6,4.08-.51.53-1,1.05-1.5,1.59-.58-2-1.13-4-1.64-6a1,1,0,0,0-1.86.52c.6,2.38,1.27,4.75,2,7.1-1,1.11-2,2.23-3,3.36-.31-1-.62-2-.91-3a1,1,0,0,0-1.86.52c.4,1.41.83,2.8,1.27,4.19l-1.42,1.65c-.8.94.56,2.31,1.37,1.36l.76-.87c.26.79.52,1.57.79,2.35a3.22,3.22,0,0,1-1.7,1c-1.21.17-1.22,2.1,0,1.94a5.14,5.14,0,0,0,2.37-1c1,2.71,2,5.39,3.13,8,.48,1.13,2.35.63,1.86-.52q-1.86-4.41-3.45-8.93c.64-.68,1.24-1.41,1.86-2.05l1.13-1.17c.34.95.66,1.89,1,2.83.43,1.16,2.3.65,1.86-.52s-.93-2.57-1.37-3.86l1.87-1.94,1.44,3.68c.45,1.14,2.32.64,1.86-.52Zm-5.62,3-2.75,2.85-.19.2c-.28-.8-.56-1.61-.82-2.41,1-1.14,2-2.26,3-3.38.28.89.57,1.78.87,2.66Zm1.6-1.65c-.3-.92-.6-1.83-.89-2.74l1.63-1.76c.35.88.69,1.77,1,2.65Z"/><path class="cls-6" d="M697.49,285.52q-1.65-3.19-3.36-6.36c.46-.61.91-1.22,1.36-1.84.74-1-.94-2-1.67-1l-.69.94-.93-1.67c.5-.36,1-.7,1.54-1,1-.66.07-2.33-1-1.66-.51.32-1,.66-1.5,1-.84-1.48-1.67-2.95-2.53-4.42a1,1,0,0,0-1.66,1c.88,1.53,1.76,3.06,2.62,4.6-.32.25-.64.52-1,.78-.47-.85-1-1.68-1.46-2.51-.65-1.05-2.32-.08-1.66,1s1.11,1.86,1.63,2.81c-.48.44-1,.9-1.41,1.36-.85-1.37-1.71-2.74-2.63-4.07-.7-1-2.37-.05-1.66,1,1,1.49,2,3,2.91,4.55q-1.22,1.35-2.31,2.82c-.74,1,.94,2,1.67,1,.54-.71,1.1-1.4,1.68-2.06.58,1,1.13,2,1.67,3a38.19,38.19,0,0,1-6.5,5.79c-1,.71,0,2.38,1,1.67a40.43,40.43,0,0,0,6.44-5.65c.3.6.61,1.2.91,1.81.54,1.12,2.2.13,1.66-1-.38-.8-.78-1.58-1.18-2.36l1-1.17q.78,1.88,1.47,3.81c.41,1.17,2.27.66,1.86-.52-.59-1.69-1.25-3.35-2-5,.34-.42.67-.85,1-1.28,1,1.87,2,3.76,3,5.65C696.39,287.61,698.05,286.63,697.49,285.52Zm-9-2.35c-.54-1-1.1-2-1.67-3,.43-.45.87-.89,1.33-1.31.5,1,1,2,1.44,3C689.26,282.31,688.89,282.74,688.52,283.17Zm2.44-3c-.41-.88-.85-1.74-1.3-2.6.32-.27.65-.52,1-.78l1.21,2.21Z"/><path class="cls-11" d="M555.71,168.66s12.24-.2,17.53,6.08,42.42,186.54,37.69,186.56-21-2.07-33,4.84S555.71,168.66,555.71,168.66Z"/><path class="cls-5" d="M562.72,162.46s-19.9,2.81-28,25.38-4.47,194.79,2.85,202.92,28.81,8.33,30.08,3-4.2-17.3-4.2-17.3,23.45-3.95,26.86-10.4-6.89-67.84-16.83-116.33A542.37,542.37,0,0,1,562.72,162.46Z"/><path class="cls-5" d="M567.73,166.47s21.5,7.65,28.42,21.16,31.92,161,26.78,164.73l-5.14,3.76s0,13.68-3.82,13.73-10.3,1.78-10.32-3.8-15.83-104.74-19.79-132.64S567.73,166.47,567.73,166.47Z"/><polygon class="cls-11" points="617.78 356.12 597.56 222.63 622.93 352.36 617.78 356.12"/><polygon class="cls-11" points="545.13 211.21 549.68 286.03 563.47 376.5 573.93 374.18 545.13 211.21"/><path class="cls-11" d="M442.4,188.17l-.14,0a.64.64,0,0,1-.49-.77l5.61-25.16,22-.08,3.27,25.2a.64.64,0,0,1-.56.72.65.65,0,0,1-.72-.56l-3.12-24.06-19.86.07L443,187.66A.66.66,0,0,1,442.4,188.17Z"/><path class="cls-5" d="M510.28,370.21l-115.4.4a16.1,16.1,0,0,1-16-18.19L396.69,216l1.8-13.71a16.09,16.09,0,0,1,15.91-14l83.93-.3a16.12,16.12,0,0,1,16.11,14.84l11.84,150A16.11,16.11,0,0,1,510.28,370.21Z"/><path class="cls-6" d="M504.5,261.6c-5.55,7.33-83.3,3.3-97.49.35-7.74-1.62-9.93-25-10.32-46l1.8-13.71a16.09,16.09,0,0,1,15.91-14l83.93-.3a16.09,16.09,0,0,1,13.18,6.78C512.46,217.21,508.8,255.94,504.5,261.6Z"/><circle class="cls-11" cx="486.1" cy="265.37" r="7.57" transform="translate(-65.32 213.86) rotate(-23.29)"/><path class="cls-11" d="M524.39,299.76s-12.34-4.25-12.37,5.41-1.54,47.48,6.37,48.74,11.75-5.94,11.74-8.58S526.74,300.36,524.39,299.76Z"/><rect class="cls-5" x="419.84" y="198.22" width="68.57" height="13.31" rx="4" transform="translate(-0.72 1.59) rotate(-0.2)"/><path class="cls-2" d="M748.44,168.41l-355.6,1.25a6.12,6.12,0,0,1-6.14-6.1h0a6.11,6.11,0,0,1,6.1-6.14l355.6-1.25a6.12,6.12,0,0,1,6.14,6.1h0A6.12,6.12,0,0,1,748.44,168.41Z"/><circle class="cls-4" cx="458.36" cy="162.83" r="10.47" transform="translate(219.3 586.45) rotate(-80.12)"/><path class="cls-4" d="M573.19,162.42A10.47,10.47,0,1,1,562.69,152,10.47,10.47,0,0,1,573.19,162.42Z"/><path class="cls-4" d="M677.55,162.06a10.47,10.47,0,1,1-10.5-10.43A10.46,10.46,0,0,1,677.55,162.06Z"/><path class="cls-12" d="M474.6,539.66s58.19,39.36,62.92,57.81-21.3,42-30.09,54.15-76.27,116-81.95,127-10.21,29.49-2.62,38.56,10.55,12.69,15.35,14.64,1.64,6.94.25,8.29-13.85.54-18-7.6-24-17.19-30.13-20.53-16.18-11.9-9-19.66,10.13-9.25,14.56-14.84,17.66-22,20.6-30.54,19.15-53.51,28.78-74.38,23.77-49.75,23.77-49.75-44-14.09-46.21-33.76S465.82,530.35,474.6,539.66Z"/><path class="cls-13" d="M554.76,483.44c.78.39,8.76,7,13.61,8.6S577,501.8,577,501.8l-16.11.06s-11-5.35-11.49-9.75S554.76,483.44,554.76,483.44Z"/><path class="cls-14" d="M434.82,372.29s32.46,69,43,77.46,85.5,31.14,85.5,32.5-7.7,18.09-9.44,18.09-84.08-12.53-102.42-40.8S419.25,359.55,434.82,372.29Z"/><path class="cls-15" d="M407.25,319.77s-7,.61-7.61-2.88l-.59-3.49s-7.56,2.94-9.9,0,0-8.88,0-8.88-1.6.45-2.92-2.75,1.43-6.85,1.43-6.85a21.45,21.45,0,0,1-4.39-7.84c-1.18-4.36,2.59-8,2.59-8s-3.95-4.2-2.87-7.56,8.06-5.41,8.06-5.41-5.71-9.73-2.66-13.38,8.86-4.25,8.86-4.25-3.07-4.94,1.86-9.62,11.92-4.4,11.92-4.4,1.57-9,5.63-12,11.06-1.06,11.06-1.06-2.18-1,2.33-1.61,8.3,2.59,8.3,2.59l7.23,0s5.42-2.79,8.49,0,5.55,5.51,5.55,5.51,5.66-5.84,10.32-5.57S475,227.4,475,227.4s7-1.77,10.05,3,1.05,8.73,1.05,8.73,3.65,2.9,3.67,7.12-3.33,7.73-3.33,7.73a4,4,0,0,1-.56,4.8c-2.18,2.34-8,1.63-8,1.63s-6.67,33.21-27.2,46.67S407.25,319.77,407.25,319.77Z"/><path class="cls-16" d="M413.31,270.55s-.37-23.28,7.16-34.37a34.71,34.71,0,0,1,18.87-13.75l6.21,0s-12.21,6.15-16.13,22.18-1.85,25.91-1.85,25.91Z"/><path class="cls-13" d="M403,330.85s4.93-4.09,5.51-6.13-2.79-7.85-2.79-7.85,4.81,3.18,9.47,2.29,16-12.57,15.07-19.55.23-15.43,4.29-19.52,14.54-5,20.06-7.64S465.1,264,465.1,264s6.7,1.72,9.32,0a10.53,10.53,0,0,0,3.48-3.51s9.36,13.65,5.91,25.6-2.55,20.38-1.66,24.17-3.72,18.06-11.25,29.73-14.52,10.47-19.18,9.35-12-4.59-12-4.59l-6,23.31s-14.81,9.95-23.32-7.19S403,330.85,403,330.85Z"/><path class="cls-12" d="M425.43,323.79s-2.29,11.07.05,12.8,14.29,8.1,14.29,8.1l-6,23.31S420,348,420,339.82,425.43,323.79,425.43,323.79Z"/><polygon class="cls-11" points="350.55 858.13 356.33 845.89 364.29 845.86 357.45 860.63 350.55 858.13"/><polygon class="cls-11" points="472.25 857.7 466.39 845.5 458.43 845.53 465.37 860.25 472.25 857.7"/><path class="cls-13" d="M492.08,554.11S555.86,583.58,563.5,601s-14.26,44.87-21,58.29S486,786.11,482.11,797.83s-5.32,30.75,3.63,38.48,12.46,10.83,17.51,12,2.74,6.59,1.58,8.15-13.58,2.76-19-4.59-26.44-13.11-33.05-15.41-17.89-9.14-12.1-17.95,8.5-10.76,12-17S466.51,776.93,468,768s10.29-55.9,16.42-78,15.44-52.94,15.44-52.94-45.73-6.81-51-25.87S481.93,546.33,492.08,554.11Z"/><path class="cls-16" d="M445,520.17s24.13,18.11,35.79,22.33,24.87,8.84,25.27,13.11-19,19.86-22.4,30-3.71,46.91-7.79,46.92l-82.87.29S373.59,612,370.71,593s-9.63-63.63-9.63-63.63S433.42,527.24,445,520.17Z"/><polygon class="cls-11" points="322.54 378.49 336.07 435.88 316.66 435.95 312.58 378.52 322.54 378.49"/><path class="cls-5" d="M313.5,429.49l18.72-3.3a12.81,12.81,0,0,1,14.89,10.7l28,185a12.8,12.8,0,0,0,12.71,10.89l94.32-.33A12.82,12.82,0,0,1,495,645.25l.06,18.89A12.8,12.8,0,0,1,482.27,677l-132.75.47a12.81,12.81,0,0,1-12.71-10.89L303.05,444A12.82,12.82,0,0,1,313.5,429.49Z"/><path class="cls-6" d="M480.56,646.72l-91.69.32a19.65,19.65,0,0,1-19.72-19.58h0a19.65,19.65,0,0,1,19.58-19.72l91.7-.32A19.64,19.64,0,0,1,500.14,627h0A19.64,19.64,0,0,1,480.56,646.72Z"/><path class="cls-5" d="M331.33,303.54s-30.24,9-33.25,37.77,14.14,46.14,24.25,51.15,21.75,5.36,24.05-2.41-3.18-22.89-4.78-37.25,7.23-35.34,5.08-41.55S334.31,302.45,331.33,303.54Z"/><path class="cls-13" d="M515.36,482.41s15.16,6.36,21.56,4.88,18.34.93,20.68,4.79-3.19,3.88-8.13,4.19-16.33,8.56-17.29,7.12-7.74-3.15-9.78-4.65-10.2-4.38-10.2-4.38Z"/><path class="cls-11" d="M432.47,689.39l-39.53.14a6.11,6.11,0,0,1-6.13-6.09h0a6.12,6.12,0,0,1,6.09-6.14l39.53-.13a6.1,6.1,0,0,1,6.13,6.09h0A6.12,6.12,0,0,1,432.47,689.39Z"/><path class="cls-5" d="M439.67,825l-53,.19a239.41,239.41,0,0,0,13.85-50.82c.15-1,.28-1.93.41-2.9q.39-2.84.67-5.72c.18-1.83.35-3.72.5-5.64.08-1,.15-1.94.22-2.93.27-3.76.49-7.64.66-11.54l.12-2.93c1.05-26.52.27-53.24.27-53.24l18.63-.06s-.6,26.74.64,53.26l.15,2.93c.2,3.9.44,7.78.74,11.54.07,1,.15,2,.24,2.93.16,1.9.34,3.78.54,5.6s.44,3.87.71,5.77c.14,1,.28,1.94.43,2.9A239.5,239.5,0,0,0,439.67,825Z"/><path class="cls-10" d="M457.16,850.39l-91,.31A12.7,12.7,0,0,1,353.39,838h0a12.72,12.72,0,0,1,12.67-12.76l91-.32a12.71,12.71,0,0,1,12.75,12.67h0A12.72,12.72,0,0,1,457.16,850.39Z"/><circle class="cls-11" cx="351.94" cy="866.28" r="12.42"/><circle class="cls-11" cx="473.42" cy="865.85" r="12.42"/><path class="cls-11" d="M422.81,745.62a58.66,58.66,0,0,1-9.91.8,56,56,0,0,1-9.9-.76l.12-2.93a53.06,53.06,0,0,0,9.77.78,56.64,56.64,0,0,0,9.77-.82Z"/><path class="cls-11" d="M423.79,760.09a58.7,58.7,0,0,1-10.83,1,54.73,54.73,0,0,1-10.84-.93c.08-1,.15-1.94.22-2.93a50.39,50.39,0,0,0,10.61.94,53.51,53.51,0,0,0,10.6-1C423.62,758.14,423.7,759.12,423.79,760.09Z"/><path class="cls-11" d="M425.47,774.36A54.86,54.86,0,0,1,413,775.69a51.66,51.66,0,0,1-12.47-1.3c.15-1,.28-1.93.41-2.9A47.45,47.45,0,0,0,413,772.78a50.8,50.8,0,0,0,12-1.32C425.18,772.44,425.32,773.4,425.47,774.36Z"/><path class="cls-17" d="M481.6,596a215,215,0,0,1-60-27.6c-30-20.15-27.86-40.06-27.75-40.9l2.31.29-1.16-.14,1.16.14c0,.19-2,19.4,26.74,38.68a212.61,212.61,0,0,0,59.3,27.27Z"/><path class="cls-17" d="M489.39,577.39c-.57-.06-14.28-1.61-43.23-17.74-29.33-16.34-29.67-33.2-29.67-33.91h2.33c0,.16.47,16.28,28.48,31.89,28.43,15.84,42.19,17.44,42.33,17.46Z"/><path class="cls-18" d="M398.21,336.69s-30.73,33.6-41.5,65S348.78,448,348.78,448l12.3,81.37s26.94-.29,41.49-.14,42.47-9,42.47-9,3.13-104.28-.4-113.39S433.74,368,433.74,368s-5.55-3.47-16.65-16.24-14-20.91-14-20.91Z"/><ellipse class="cls-16" cx="420.67" cy="293.53" rx="27.36" ry="28.82" transform="translate(-1.02 1.47) rotate(-0.2)"/><ellipse class="cls-17" cx="420.67" cy="293.53" rx="24.88" ry="26.2" transform="translate(-1.02 1.47) rotate(-0.2)"/><ellipse class="cls-16" cx="420.67" cy="293.53" rx="14.85" ry="15.64" transform="translate(-1.03 1.49) rotate(-0.2)"/><path class="cls-15" d="M485.44,275.61c-1.93,0-2.57,6.19-2.78,10.67a3.51,3.51,0,0,0-1.76-.53,5.23,5.23,0,0,0-2.7,1.38c-.41-7.18-2.23-13.88-5.25-13.87s-4.89,7.14-5.18,14.57l-20.17.07v1.16l20.13-.07c0,.39,0,.78,0,1.17,0,8.18,1.91,16.88,5.34,16.86s5.25-8.71,5.22-16.9c0-.49,0-1,0-1.48.79-.76,2-1.73,2.63-1.73a3.14,3.14,0,0,1,1.71.74c-.05,1.5-.05,2.65-.05,3,0,1.54.13,15.07,3,15.06s2.89-13.54,2.89-15.08S488.29,275.6,485.44,275.61Zm-12.37,30.25c-1.95,0-4.15-6.71-4.18-15.7S471,274.43,473,274.42s4.14,6.71,4.17,15.71S475,305.85,473.07,305.86Zm12.47-1.32c-.64-.63-1.79-5.2-1.82-13.85s1.09-13.23,1.72-13.87c.64.63,1.79,5.2,1.82,13.85S486.18,303.9,485.54,304.54Z"/><path class="cls-15" d="M473.64,290.43c0,1.61-.55,2.91-1.23,2.92s-1.24-1.3-1.25-2.91.55-2.91,1.23-2.92S473.63,288.82,473.64,290.43Z"/><path class="cls-12" d="M476.16,323.37a36.16,36.16,0,0,1-2,6.9,13,13,0,0,1-.69,1.34c-1.35,2.31-3.52,4-8.2,2.07a6.26,6.26,0,0,1-3.05-2.72c-2.11-3.55-1.56-8.95-1.32-10.58.15-1,.49-1.41,1.12-1.25s1.8,1.09,3.38,2.65c2.38,2.36,7.92,2,10,1.7Z"/><path class="cls-12" d="M478.09,315.06a.58.58,0,0,1-.34-1.06,11,11,0,0,0,2.9-2.76c.26-.64-.75-2.18-1.72-3.67-.32-.48-.65-1-1-1.52-1.69-2.72,1.61-9.09,2-9.8a.57.57,0,0,1,.78-.25.59.59,0,0,1,.25.79c-1,1.79-3.16,6.82-2,8.65.32.52.65,1,1,1.49,1.3,2,2.32,3.54,1.82,4.75s-3,3.07-3.3,3.27A.51.51,0,0,1,478.09,315.06Z"/><path class="cls-8" d="M475.35,323.48l-.43,1.39s-1.26.68-5.24,0-7.29-3.37-8-3.75c-.4-.23-.07-1.22.27-2,.72.18,1.8,1.09,3.38,2.65C467.74,324.14,473.28,323.73,475.35,323.48Z"/><g class="cls-19"><path class="cls-13" d="M473.43,331.61c-1.35,2.31-3.52,4-8.2,2.07a6.26,6.26,0,0,1-3.05-2.72,25.6,25.6,0,0,1,4.13-.33A23.69,23.69,0,0,1,473.43,331.61Z"/></g><path class="cls-14" d="M397.85,394.07s-.17,47.28,10,74.8S445,520.17,445,520.17l.82-34.2Z"/><path class="cls-18" d="M397.2,390.84s11.51,61.67,32.54,83.72,85.71,33.08,86.85,27.45,6.91-20.79,2.82-24.85-35.52-2.28-50.71-16.45-29.32-59.54-39.85-74.06S396.9,369.3,397.2,390.84Z"/><path class="cls-20" d="M343.16,442.53l24.46,153.9a6.53,6.53,0,0,1-5.71,7.51h0a6.52,6.52,0,0,1-7.18-5.37L327.89,444.69A6.53,6.53,0,0,1,334.3,437h2.38A6.55,6.55,0,0,1,343.16,442.53Z"/><polygon class="cls-10" points="998.86 502.51 998.91 518.23 987.11 518.27 987.1 515.94 996.58 515.9 996.54 504.84 571.53 506.33 571.52 504 998.86 502.51"/><rect class="cls-11" x="716.91" y="527.95" width="251.54" height="349.03" transform="translate(-2.46 2.96) rotate(-0.2)"/><rect class="cls-5" x="774.2" y="528.08" width="59.86" height="349.03" transform="translate(-2.46 2.82) rotate(-0.2)"/><rect class="cls-5" x="909.36" y="527.61" width="59.86" height="349.03" transform="translate(-2.46 3.3) rotate(-0.2)"/><path class="cls-11" d="M544.39,529l-.19,13.78-4.65,332.37a2.94,2.94,0,0,1-2.91,2.91l-10,0a3,3,0,0,1-2.93-2.84L510.86,542.89l-.53-13.78Z"/><path class="cls-11" d="M665.36,877.6l-74.24.26a8,8,0,0,1-8-8l-.69-197a8,8,0,0,1,8-8l74.24-.26a8,8,0,0,1,8,8l.69,197A8,8,0,0,1,665.36,877.6Z"/><path class="cls-5" d="M590.39,877.86h0a7.27,7.27,0,0,1-7.3-7.25l-.69-198.42a7.27,7.27,0,0,1,7.25-7.3h0a7.27,7.27,0,0,1,7.3,7.25l.7,198.42A7.28,7.28,0,0,1,590.39,877.86Z"/><path class="cls-10" d="M662.33,831.8l-14.36.05a10,10,0,0,1-9.93-10l-.43-121.09h2.33l.43,121.09a7.63,7.63,0,0,0,7.59,7.66l14.36,0Z"/><ellipse class="cls-10" cx="638.78" cy="702.52" rx="19.22" ry="19.5" transform="translate(-2.45 2.24) rotate(-0.2)"/><ellipse class="cls-10" cx="638.95" cy="748.72" rx="19.22" ry="19.5" transform="translate(-2.65 2.27) rotate(-0.2)"/><ellipse class="cls-10" cx="639.11" cy="794.92" rx="19.22" ry="19.5" transform="translate(-2.81 2.27) rotate(-0.2)"/><ellipse class="cls-5" cx="638.78" cy="702.52" rx="13.59" ry="13.79" transform="translate(-2.42 2.21) rotate(-0.2)"/><ellipse class="cls-5" cx="638.95" cy="748.72" rx="13.59" ry="13.79" transform="matrix(1, 0, 0, 1, -2.67, 2.29)"/><ellipse class="cls-5" cx="639.11" cy="794.92" rx="13.59" ry="13.79" transform="translate(-2.74 2.21) rotate(-0.2)"/><path class="cls-10" d="M668.12,702.42H673a0,0,0,0,1,0,0v138a0,0,0,0,1,0,0h-4.87a6,6,0,0,1-6-6v-126a6,6,0,0,1,6-6Z" transform="translate(-2.71 2.35) rotate(-0.2)"/><rect class="cls-10" x="615.05" y="842.14" width="37.85" height="21.26" rx="5" transform="translate(-2.99 2.23) rotate(-0.2)"/><path class="cls-8" d="M801.47,614.47l-41.58,11.44a4.65,4.65,0,0,1-5.72-3.32L742.89,580.4a4.73,4.73,0,0,1,3.28-5.79l41.58-11.45a4.65,4.65,0,0,1,5.71,3.33l11.28,42.18A4.73,4.73,0,0,1,801.47,614.47Z"/><path class="cls-16" d="M794.86,610.63l-31.18,8.58a4.65,4.65,0,0,1-5.72-3.32l-8.46-31.64a4.74,4.74,0,0,1,3.27-5.8L784,569.87a4.64,4.64,0,0,1,5.71,3.32l8.47,31.64A4.74,4.74,0,0,1,794.86,610.63Z"/><path class="cls-8" d="M805,832.5l-26.73-6a4.73,4.73,0,0,1-3.55-5.63l5.88-27.12a4.67,4.67,0,0,1,5.55-3.6l26.73,6a4.73,4.73,0,0,1,3.55,5.63l-5.88,27.12A4.66,4.66,0,0,1,805,832.5Z"/><path class="cls-18" d="M802.13,827.94l-19.36-4.32a4.71,4.71,0,0,1-3.55-5.63l4.25-19.65a4.66,4.66,0,0,1,5.55-3.6l19.37,4.32a4.74,4.74,0,0,1,3.55,5.63l-4.26,19.65A4.66,4.66,0,0,1,802.13,827.94Z"/><path class="cls-8" d="M916.65,768.87l-82.41-5.76a4.69,4.69,0,0,1-4.33-5L832,727a4.68,4.68,0,0,1,5-4.39l82.42,5.75a4.7,4.7,0,0,1,4.32,5l-2.1,31.09A4.69,4.69,0,0,1,916.65,768.87Z"/><path class="cls-16" d="M875.31,761.8l-36.69-2.56a4.7,4.7,0,0,1-4.32-5l1.54-22.76a4.68,4.68,0,0,1,5-4.39l36.69,2.56a4.7,4.7,0,0,1,4.32,5l-1.54,22.76A4.68,4.68,0,0,1,875.31,761.8Z"/><path class="cls-18" d="M908.05,751.44,895,750.52a4.7,4.7,0,0,1-4.33-5l.42-6.24a4.69,4.69,0,0,1,5-4.39l13.09.91a4.71,4.71,0,0,1,4.33,5L913,747A4.69,4.69,0,0,1,908.05,751.44Z"/><ellipse class="cls-8" cx="892.46" cy="597.79" rx="39.01" ry="39.58" transform="translate(-2.06 3.09) rotate(-0.2)"/><ellipse class="cls-18" cx="892.46" cy="597.79" rx="34.54" ry="35.05" transform="translate(-2.1 3.15) rotate(-0.2)"/><path class="cls-13" d="M884.15,585.21a3.78,3.78,0,0,1-4.64,2.7,3.85,3.85,0,0,1-2.67-4.71,3.77,3.77,0,0,1,4.64-2.7A3.84,3.84,0,0,1,884.15,585.21Z"/><path class="cls-13" d="M912.62,593a3.78,3.78,0,0,1-4.64,2.7,3.85,3.85,0,0,1-2.66-4.71,3.76,3.76,0,0,1,4.64-2.7A3.84,3.84,0,0,1,912.62,593Z"/><path class="cls-13" d="M887.08,617.93A20.91,20.91,0,0,1,873,605.15a1.18,1.18,0,0,1,.74-1.49,1.16,1.16,0,0,1,1.47.75,18.5,18.5,0,0,0,12.48,11.24,17.34,17.34,0,0,0,16-3.39,1.16,1.16,0,0,1,1.65,0,1.19,1.19,0,0,1,0,1.67A19.43,19.43,0,0,1,887.08,617.93Z"/><rect class="cls-11" x="672.82" y="714" width="7.37" height="20.8" transform="translate(-2.54 2.38) rotate(-0.2)"/><rect class="cls-11" x="672.97" y="757.68" width="7.37" height="20.8" transform="translate(-2.68 2.37) rotate(-0.2)"/><rect class="cls-11" x="673.13" y="801.36" width="7.37" height="20.8" transform="translate(-2.85 2.38) rotate(-0.2)"/><path class="cls-10" d="M723.18,696.51A1.18,1.18,0,0,0,722,697.7l.06,16.5a8.81,8.81,0,0,1-8.7,8.89l-33.19.12a1.18,1.18,0,0,0,0,2.36l33.19-.12a10.94,10.94,0,0,0,8.71-4.39l.13,36.82a8.81,8.81,0,0,1-8.7,8.89l-33.18.11a1.19,1.19,0,0,0,0,2.37l33.19-.12a11,11,0,0,0,8.72-4.39l.13,36.82a8.82,8.82,0,0,1-8.71,8.89l-33.18.11a1.19,1.19,0,0,0-1.16,1.19,1.17,1.17,0,0,0,1.17,1.18l33.18-.12a11.16,11.16,0,0,0,11-11.26l-.16-43.68-.15-43.68-.06-16.5A1.17,1.17,0,0,0,723.18,696.51Z"/><path class="cls-10" d="M979.53,523.33a1.16,1.16,0,0,0-1.16,1.18l0,8.27,0,8.27.41,116.17A14.68,14.68,0,0,1,964.33,672l-236.09.83a1.18,1.18,0,0,0,0,2.36l236.09-.83a16.85,16.85,0,0,0,14.51-8.49,14.66,14.66,0,0,1-14.49,14.4l-236.09.83a1.18,1.18,0,0,0,0,2.36l236.09-.83a16.84,16.84,0,0,0,14.51-8.5,14.67,14.67,0,0,1-14.49,14.41l-236.09.83a1.18,1.18,0,0,0,0,2.36l236.08-.83a17,17,0,0,0,16.83-17.19l0-8.27,0-8.27L980.75,541l0-8.26,0-8.27A1.18,1.18,0,0,0,979.53,523.33Z"/><rect class="cls-10" x="715.37" y="665.6" width="12.91" height="33.47" rx="2" transform="translate(-2.39 2.53) rotate(-0.2)"/><path class="cls-5" d="M987.13,523.06a4.39,4.39,0,0,1-4.37,4.39l-486.39,1.71a4.39,4.39,0,0,1-4.39-4.37l0-10.26v-1.36a4.38,4.38,0,0,1,4.36-4.39l486.39-1.7a4.36,4.36,0,0,1,4.39,4.36l0,3.09Z"/><polygon class="cls-9" points="544.39 528.99 544.2 542.77 510.87 542.89 510.33 529.11 544.39 528.99"/><rect class="cls-9" x="716.32" y="527.95" width="252.31" height="13.78" transform="translate(-1.87 2.96) rotate(-0.2)"/><path class="cls-8" d="M987.1,514.53H492v-1.36a4.38,4.38,0,0,1,4.36-4.39l486.39-1.7a4.36,4.36,0,0,1,4.39,4.36Z"/><path class="cls-11" d="M686.65,505l5.29-15.25a2.35,2.35,0,0,1,2.19-1.57l45.8-.16a2.35,2.35,0,0,1,2.28,1.79L745.83,505a2.33,2.33,0,0,1-2.26,2.87l-54.72.19A2.32,2.32,0,0,1,686.65,505Z"/><path class="cls-9" d="M723.15,488.09S732.42,476,732.74,457s-20-34.38-20-34.38L703.92,428s15.57,12,14.46,28.67-16.19,31.49-16.19,31.49Z"/><path class="cls-5" d="M676.47,440.17l15-4.38a7.6,7.6,0,0,0,5.14-5.14L764,200.46a7.57,7.57,0,0,0-1.59-7.14l-10.73-12.13a7.57,7.57,0,0,0-12.94,2.91l-71.7,246.69A7.57,7.57,0,0,0,676.47,440.17Z"/><path class="cls-11" d="M725.32,332.54,737.79,348a10.46,10.46,0,0,1,1.64,10.34L715.7,420.17a10.5,10.5,0,0,1-7.21,6.41l-11.59,2.93Z"/><path class="cls-10" d="M528.2,504.3l.5-.88a2.91,2.91,0,0,1,2.52-1.46l110.45-.39a2.92,2.92,0,0,1,2.38,1.22l.62.87a2.91,2.91,0,0,1-2.36,4.61l-111.58.39A2.91,2.91,0,0,1,528.2,504.3Z"/><path class="cls-9" d="M530.78,508.66s-.62-10.38,15.47-15.49,28.56,9.22,30.72,15.33Z"/><path class="cls-8" d="M754.67,443.16a30.48,30.48,0,0,0-10.3-22.74L723.18,401.7l.5-.56,21.19,18.72a31.28,31.28,0,0,1,10.55,23.3l.21,59.7h-.75Z"/><path class="cls-21" d="M723.63,400.44l-1.15,1.3L744,420.79a30,30,0,0,1,10.13,22.37l.21,60.2h1.75l-.21-60.2a31.74,31.74,0,0,0-10.72-23.67l-21.57-19.05Z"/><path class="cls-9" d="M889.51,426.57l-49,.17a7.89,7.89,0,0,0-7.86,8.14c.39,11.51,1.6,32.4,5.47,43.44,4.49,12.83,20.23,24.35,25.93,28.2a8,8,0,0,0,4.44,1.35l21.31-.08,21.3-.07a8,8,0,0,0,4.43-1.38c5.67-3.89,21.33-15.53,25.73-28.38,3.79-11.07,4.86-32,5.16-43.48a7.87,7.87,0,0,0-7.91-8.08Z"/><path class="cls-16" d="M887.61,413.38s-20.33-42.24-16.14-65.54S888,315.62,898.4,336.52s-2.4,90-2.4,90Z"/><path class="cls-22" d="M896,426.55s-1-11.82,7.27-30.78,29.36-25.33,29.36-25.33-17.36,15.67-21.09,32.76,1.15,23.29,1.15,23.29Z"/><path class="cls-17" d="M911.62,405.15s-2.18-20.76,16.63-24.71,29.92,9.21,24.13,19.13S918.62,417.94,911.62,405.15Z"/><path class="cls-16" d="M854.82,361.09s-24.92-23.59-25-43.77,21-18.2,29.14-2,5.59,55.33,5.59,55.33Z"/><path class="cls-17" d="M900.78,369.11s-17.31-29.46-5-62.5,50.67-49.47,66.66-27.79S943.75,382.15,900.78,369.11Z"/><path class="cls-22" d="M867.09,426.65A106.71,106.71,0,0,0,856,372c-14.07-27.51-39.29-37.13-39.29-37.13s31.42,7.27,47.79,28.56,20,63.2,20,63.2Z"/><path class="cls-23" d="M890.76,427.15a.58.58,0,0,1-.58-.56c0-.36-1.48-37.06,16.48-75.24s32.45-47,33.06-47.34a.58.58,0,0,1,.59,1c-.15.08-14.81,9-32.59,46.82s-16.39,74.33-16.38,74.7a.58.58,0,0,1-.55.61Z"/><path class="cls-23" d="M899.3,427.12a.45.45,0,0,1-.16,0,.58.58,0,0,1-.4-.72A63,63,0,0,1,915.1,401.6c12.47-11.76,25.79-9.19,25.92-9.16a.58.58,0,0,1,.46.68.59.59,0,0,1-.69.46c-.13,0-12.88-2.46-24.89,8.87a61.73,61.73,0,0,0-16,24.25A.6.6,0,0,1,899.3,427.12Z"/><path class="cls-22" d="M941.34,351.51s-1.43-22,13.69-26.55S941.34,351.51,941.34,351.51Z"/><path class="cls-22" d="M952.91,346.31s17,1.69,19.3,9.25S958.14,360.07,952.91,346.31Z"/><path class="cls-22" d="M949.58,347.18s12.48-27.1,22.75-21.51S949.58,347.18,949.58,347.18Z"/><path class="cls-22" d="M962.66,346s8.67-21.5,19.37-14.75S962.66,346,962.66,346Z"/><path class="cls-22" d="M969.26,345.87s21,.7,18.09,7.89S969.26,345.87,969.26,345.87Z"/><path class="cls-22" d="M947.46,349.06s14.49,2.16,12.07,10.57S947.46,349.06,947.46,349.06Z"/><path class="cls-23" d="M894.73,419.63h-.12a.6.6,0,0,1-.45-.69l.08-.39c4.68-23,15.63-43.35,30.83-57.42A61.82,61.82,0,0,1,978,345.66a.57.57,0,0,1,.42.7.58.58,0,0,1-.7.43A60.62,60.62,0,0,0,925.86,362c-15,13.91-25.85,34.08-30.48,56.81l-.08.38A.59.59,0,0,1,894.73,419.63Z"/><path class="cls-17" d="M899.3,426.53s-20.16-38-25.66-88.79S887.86,262,887.86,262s-20.09,9-28.17,49S876,426.62,876,426.62Z"/><rect class="cls-24" x="55.08" y="878.03" width="976.89" height="17.08" rx="8" transform="translate(-3.1 1.91) rotate(-0.2)"/><path class="cls-24" d="M566.9,919.48l-394.18,1.38a4.66,4.66,0,0,1-4.68-4.64h0a4.67,4.67,0,0,1,4.65-4.68l394.17-1.38a4.66,4.66,0,0,1,4.68,4.64h0A4.66,4.66,0,0,1,566.9,919.48Z"/><path class="cls-24" d="M842.06,918.51l-238,.84a4.66,4.66,0,0,1-4.68-4.64h0A4.67,4.67,0,0,1,604,910l238-.83a4.66,4.66,0,0,1,4.68,4.64h0A4.66,4.66,0,0,1,842.06,918.51Z"/></g></svg>