<?xml version="1.0" standalone="no"?><!DOCTYPE svg PUBLIC "-//W3C//DTD SVG 1.1//EN" "http://www.w3.org/Graphics/SVG/1.1/DTD/svg11.dtd"><svg t="1647572478290" class="icon" viewBox="0 0 1024 1024" version="1.1" xmlns="http://www.w3.org/2000/svg" p-id="3165" xmlns:xlink="http://www.w3.org/1999/xlink" width="32" height="32"><defs><style type="text/css"></style></defs><path d="M749.714286 512q0 14.857143-10.857143 25.714286l-310.857143 310.857143q-10.857143 10.857143-25.714286 10.857142t-25.714285-10.857142-10.857143-25.714286v-164.571429H109.714286q-14.857143 0-25.714286-10.857143t-10.857143-25.714285V402.285714q0-14.857143 10.857143-25.714285t25.714286-10.857143h256V201.142857q0-14.857143 10.857143-25.714286t25.714285-10.857142 25.714286 10.857142l310.857143 310.857143q10.857143 10.857143 10.857143 25.714286z m201.142857-201.142857v402.285714q0 68-48.285714 116.285714T786.285714 877.714286H603.428571q-7.428571 0-12.857142-5.428572T585.142857 859.428571q0-2.285714-0.571428-11.428571t-0.285715-15.142857 1.714286-13.428572 5.714286-11.142857 11.714285-3.714285h182.857143q37.714286 0 64.571429-26.857143t26.857143-64.571429V310.857143q0-37.714286-26.857143-64.571429t-64.571429-26.857143H608l-6.571429-0.571428-6.571428-1.714286-4.571429-3.142857-4-5.142857-1.142857-7.714286q0-2.285714-0.571428-11.428571t-0.285715-15.142857 1.714286-13.428572 5.714286-11.142857T603.428571 146.285714h182.857143q68 0 116.285715 48.285715T950.857143 310.857143z" p-id="3166"></path></svg>